<svg xmlns="http://www.w3.org/2000/svg" width="100%" height="100%" fill-rule="evenodd" stroke-linejoin="round" stroke-miterlimit="1.414" clip-rule="evenodd" viewBox="0 156 1200 1900" xmlns:xlink="http://www.w3.org/1999/xlink">
    <defs>
        <pattern id="waves" width="250" height="30" patternUnits="userSpaceOnUse" patternTransform="rotate(143) ">
            <path id="a" data-color="outline"  d="M-62.5-15C-31.3-15 0-7.5 0-7.5S31.3 0 62.5 0 125-7.5 125-7.5s31.3-7.5 62.5-7.5S250-7.5 250-7.5 281.3 0 312.5 0"></path><use xlink:href="#a" y="15"></use><use xlink:href="#a" y="30"></use><use xlink:href="#a" y="45"></use>
        </pattern>
        <pattern id="diagonalHatch" width="20" height="20" patternTransform="rotate(45 0 0)" patternUnits="userSpaceOnUse">
            <line x1="0" y1="0" x2="0" y2="20" style="stroke-width:10" />
        </pattern>
    </defs>

    <g class="bl-map-locations">
        <path id="UA-scalp--back" d="M549.272,398.122L549.33,397.742L549.385,397.373L549.499,396.583C549.188,396.158 548.877,395.733 548.569,395.306C533.787,374.724 526.276,353.829 518.964,329.694L518.867,329.373C518.693,329.425 518.518,329.474 518.343,329.523C518.189,329.564 518.034,329.604 517.879,329.642C511.452,331.207 505.57,328.603 503.553,322.136C503.316,321.36 503.097,320.579 502.866,319.801C502.661,319.112 502.453,318.424 502.244,317.736C501.606,315.643 500.957,313.553 500.319,311.46C497.446,302.004 490.113,281.023 504.591,276.878C506.588,276.307 508.682,276.336 510.726,276.404L510.831,276.408C510.701,275.781 510.573,275.154 510.447,274.527C510.334,273.96 510.223,273.394 510.114,272.827C507.945,261.443 505.947,249.212 507.203,237.575C507.455,235.35 507.735,233.129 508.004,230.907C509.984,214.76 514.826,199.904 526.645,188.128C535.095,179.709 546.522,174.183 557.433,169.783C590.848,156.308 632.528,156.064 662.238,179.995C668.369,184.933 672.743,189.43 677.21,195.63C694.332,219.396 692.803,245.983 688.615,273.544L688.535,274.063C688.679,274.034 688.823,274.006 688.967,273.98C689.113,273.954 689.26,273.93 689.407,273.907C690.215,273.786 690.843,273.735 691.644,273.725C691.817,273.725 691.989,273.727 692.162,273.732C707.759,274.37 702.837,298.36 701.892,307.928C701.599,310.889 700.943,313.802 700.422,316.731C700.382,316.944 700.382,316.944 700.341,317.157C698.833,324.355 692.812,330.767 685.191,330.944L685.18,330.944C685.115,331.233 685.115,331.232 685.047,331.52C684.96,331.879 684.96,331.878 684.871,332.236C680.665,346.729 673.04,360.52 666.252,373.632C666.106,373.89 665.96,374.148 665.812,374.405C661.511,381.794 656.26,388.847 651.2,395.674L651.058,395.864C651.058,395.864 650.694,397.616 650.768,398.668C621.048,409.03 582.636,408.06 549.272,398.122Z"/>
        <path id="UA-neck--back" d="M420.1,487.569C423.894,485.127 427.947,482.923 432.277,480.986C447.546,474.157 464.318,472.712 480.721,471.001C481.491,470.92 482.261,470.837 483.031,470.753C486.72,470.343 490.001,469.94 493.684,469.308C495.124,469.057 496.563,468.799 498.002,468.542C509.398,466.899 517.504,464.887 526.623,459.273C532.406,455.712 536.371,448.484 538.53,442.458C543.653,428.163 546.963,413.122 549.257,398.122C582.621,408.06 621.033,409.03 650.753,398.668C650.758,398.748 650.766,398.824 650.777,398.895C651.843,405.62 653.79,415.843 655.471,422.409C657.685,431.065 660.248,443.284 665.582,451.308C674.358,464.512 691.508,466.706 705.878,469.246C706.349,469.328 706.82,469.408 707.291,469.486C711.406,470.149 714.928,470.551 719.194,471.001C721.835,471.276 724.477,471.539 727.118,471.815C741.004,473.28 755.488,475.204 768.256,481.25C726.303,498.446 658.11,521.014 588.584,521.322C521.522,521.619 459.379,502.817 420.1,487.569Z"/>
        <path id="UA-armpit-right--back" d="M754.796,718.082C753.333,708.267 751.321,698.192 748.641,690.276C741.45,669.033 744.331,639.175 744.331,639.175C744.331,639.175 742.833,584.981 749.057,579.836C755.282,574.692 777.692,588.214 781.678,608.307C785.84,629.285 774.7,679.438 774.7,679.438L767.512,711.819C765.106,700.947 762.6,690.127 759.909,679.396C759.765,680.694 759.618,681.991 759.469,683.289C758.128,694.87 756.595,706.489 754.796,718.082Z"/>
        <path id="UA-armpit-left--back" d="M432.969,711.24L425.909,679.438C425.909,679.438 414.769,629.285 418.931,608.307C422.918,588.214 445.327,574.692 451.552,579.836C457.777,584.981 456.279,639.175 456.279,639.175C456.279,639.175 459.159,669.033 451.968,690.276C449.101,698.746 446.998,709.688 445.514,720.139C443.398,706.824 441.63,693.524 440.187,680.723L440.094,679.895L440.038,679.396C439.163,683.546 438.285,687.696 437.406,691.846C435.85,698.277 434.381,704.747 432.969,711.24Z"/>
        <path id="UA-elbow-right" d="M876.208,788.814C885.27,811.941 893.976,835.82 899.399,860.109C864.828,872.459 831.09,875.827 808.22,876.412C803.291,862.904 798.795,849.295 795.114,835.511C793.39,829.059 791.747,822.572 790.165,816.058C819.462,802.14 850.632,793.793 876.208,788.814Z"/>
        <path id="UA-elbow-left" d="M323.694,788.751C349.402,793.735 380.815,802.126 410.308,816.173C408.522,822.928 406.616,829.618 404.553,836.226C400.288,849.893 395.478,863.226 390.565,876.372C367.658,875.68 334.466,872.179 300.5,859.99C305.99,835.654 314.638,811.757 323.694,788.751Z"/>
        <path id="UA-arm-lower-right--back" d="M868.34,1030.92C863.52,1018.39 858.685,1005.87 853.858,993.341C851.184,986.4 848.513,979.459 845.844,972.517C834.287,940.368 820.037,908.676 808.263,876.412C831.133,875.827 864.871,872.459 899.442,860.109C901.294,868.402 902.763,876.744 903.733,885.12C903.792,885.701 903.852,886.281 903.913,886.862C905.846,904.993 909.333,922.871 912.683,940.78C913.042,942.707 913.4,944.635 913.756,946.562C917.825,968.763 921.352,991.03 924.445,1013.39C897.652,1014.91 879.662,1021.83 868.34,1030.92Z"/>
        <path id="UA-arm-upper-right--back" d="M745.591,490.038C753.789,487.045 761.39,484.075 768.282,481.25L768.536,481.371C826.361,509.053 833.839,580.834 841.435,636.62C841.676,638.377 841.918,640.134 842.164,641.891C845.987,669.025 852.93,695.223 859.994,721.682C860.343,722.989 860.69,724.297 861.037,725.606C865.67,743.149 870.519,761.217 872.472,779.371C872.718,779.943 872.961,780.516 873.204,781.089C874.222,783.654 875.239,786.23 876.251,788.814C850.675,793.792 819.505,802.14 790.208,816.058C781.845,781.634 775.192,746.468 767.522,711.819L774.711,679.438C774.711,679.438 785.85,629.285 781.688,608.307C778.117,590.308 759.763,577.582 751.502,578.823C751.192,575.476 750.882,572.193 750.571,568.988C748.296,545.547 746.694,516.47 745.591,490.038Z"/>
        <path id="UA-arm-lower-left--back" d="M275.7,1012.11L276.017,1009.83C276.256,1008.13 276.496,1006.43 276.738,1004.73C280.479,978.614 285.073,952.672 289.92,926.745C290.123,925.655 290.326,924.564 290.528,923.474C293.037,909.828 295.095,896.151 296.51,882.35C296.546,882.015 296.582,881.679 296.619,881.344C297.614,874.196 298.945,867.075 300.543,859.99C334.509,872.179 367.701,875.68 390.608,876.372C386.433,887.542 382.184,898.577 378.13,909.569C363.305,949.759 347.273,988.601 332.779,1027.92C332.779,1027.92 331.284,1031.54 331.407,1033.42L331.408,1033.45C320.086,1023.66 303.211,1014.65 275.7,1012.11Z"/>
        <path id="UA-arm-upper-left--back" d="M443.495,579.569C434.425,582.609 421.834,593.729 418.941,608.307C414.779,629.285 425.919,679.438 425.919,679.438L432.979,711.24C425.349,746.309 419.375,782.061 410.351,816.173C380.858,802.126 349.445,793.735 323.737,788.751C324.82,785.999 325.909,783.26 326.999,780.534C327.122,780.244 327.246,779.954 327.37,779.664L327.496,779.371C327.551,778.863 327.608,778.357 327.666,777.85C330.545,753.435 337.879,729.585 344.193,705.913C344.716,703.948 345.236,701.981 345.755,700.014C351.84,678.92 356.07,658.366 358.533,636.619C359.128,632.251 359.716,627.882 360.311,623.514C366.888,575.637 376.334,515.747 420.126,487.569C428.915,490.981 438.847,494.57 449.724,498.083C448.033,524.994 445.986,553.793 443.801,576.308C443.697,577.386 443.595,578.473 443.495,579.569Z"/>
        <path id="UA-back" d="M463.011,888.1C462.951,887.034 462.885,885.917 462.847,884.721C462.657,878.646 462.182,867.216 461.879,861.345C460.392,832.517 459.118,808.039 457.124,779.377L457.003,777.657C456.906,776.31 456.649,775.282 456.318,773.972C456.103,773.114 455.889,772.256 455.678,771.397C451.663,755.007 448.298,737.56 445.529,720.139C447.013,709.688 449.116,698.746 451.983,690.276C459.174,669.033 456.294,639.175 456.294,639.175C456.294,639.175 457.792,584.981 451.567,579.836C449.859,578.424 446.931,578.419 443.5,579.569C443.599,578.473 443.701,577.386 443.806,576.308C445.99,553.793 448.037,524.994 449.729,498.083C487.464,510.274 536.558,521.552 588.615,521.322C646.719,521.064 703.892,505.261 745.596,490.038C746.699,516.47 748.301,545.547 750.575,568.988C750.886,572.193 751.197,575.476 751.507,578.823C750.545,578.967 749.721,579.3 749.072,579.836C742.847,584.981 744.345,639.175 744.345,639.175C744.345,639.175 741.465,669.033 748.656,690.276C751.336,698.192 753.348,708.267 754.811,718.082C751.793,737.533 748.027,756.908 743.17,775.898L743.073,776.273C741.044,804.607 739.569,832.978 738.098,861.345C737.863,865.874 737.451,875.51 737.234,881.589C708.624,894.45 659.519,911.352 598.434,911.746C539.523,912.126 491.89,898.874 463.011,888.1Z"/>
        <a xlink:href="#hand-detail-modal" >
            <path id="UA-hand-right--back" d="M924.355,1013.39L924.537,1014.71C924.865,1014.76 925.193,1014.82 925.521,1014.88C946.638,1018.85 961.051,1032.24 973.64,1048.96C975.073,1050.87 976.494,1052.78 977.926,1054.69C985.11,1064.63 992.398,1071.47 1001.47,1079.18C1001.84,1079.51 1002.22,1079.85 1002.59,1080.18C1005.83,1083.1 1009.29,1085.34 1010.38,1089.65C1011.92,1095.81 1001.42,1099.65 997.624,1098.77C985.44,1095.94 971.841,1085.03 961.765,1078.84C961.765,1078.84 961.796,1080.9 961.972,1081.91C962.193,1083.19 962.411,1084.46 962.628,1085.74C963.74,1092.33 964.79,1098.93 965.758,1105.54C966.53,1110.82 967.222,1116.1 967.848,1121.4C968.343,1125.59 968.762,1129.79 969.12,1134C969.4,1137.3 969.61,1140.61 969.76,1143.93C969.878,1146.52 969.913,1149.11 969.925,1151.7C969.953,1158.23 969.5,1180.25 956.431,1176.59C954.908,1176.16 953.489,1175.37 952.174,1174.49C952.135,1174.81 952.092,1175.13 952.048,1175.45C950.846,1183.94 945.443,1196.52 934.412,1191.38C932.868,1190.66 931.464,1189.62 930.218,1188.46C930.132,1188.57 930.044,1188.69 929.956,1188.81C920.229,1199.29 909.537,1185.84 907.126,1177.21L907.074,1177.03C906.959,1177.09 906.843,1177.14 906.726,1177.2C906.586,1177.26 906.445,1177.32 906.303,1177.38C892.148,1182.68 887.59,1162.68 885.453,1153.4C884.852,1150.79 884.305,1148.16 883.782,1145.54C883.067,1141.95 882.394,1138.35 881.739,1134.75C880.9,1130.13 880.116,1125.51 879.302,1120.89C879.135,1119.95 878.966,1119.01 878.795,1118.07C877.923,1113.32 876.745,1108.67 875.583,1103.98C875.436,1103.38 875.29,1102.79 875.145,1102.19C869.591,1079.23 866.925,1055.66 868.565,1032.04L868.583,1031.78L868.25,1030.92C879.572,1021.83 897.563,1014.91 924.355,1013.39Z"/>
            <path id="UA-hand-left--back" d="M275.61,1012.11C303.121,1014.65 319.996,1023.66 331.319,1033.45C331.357,1034.05 331.393,1034.65 331.427,1035.25C332.804,1060.7 328.74,1085.58 322.66,1110.19C322.504,1110.82 322.35,1111.46 322.198,1112.1C321.52,1115.01 321.008,1117.95 320.486,1120.89C319.894,1124.26 319.311,1127.63 318.719,1130.99C318.035,1134.85 317.334,1138.71 316.593,1142.56C316.052,1145.37 315.493,1148.17 314.874,1150.97C313.196,1158.54 309.828,1175.34 300.474,1177.92C298.253,1178.54 295.694,1178.35 292.74,1177.04L292.714,1177.03C292.64,1177.28 292.563,1177.54 292.485,1177.8C292.423,1177.99 292.361,1178.18 292.298,1178.38C289.68,1186.91 279.337,1198.97 269.571,1188.46C269.422,1188.6 269.271,1188.73 269.119,1188.87C267.855,1189.98 266.433,1190.96 264.877,1191.61C253.632,1196.25 248.684,1182.84 247.619,1174.52L247.615,1174.49C247.485,1174.58 247.355,1174.66 247.223,1174.75C247.068,1174.84 246.913,1174.94 246.756,1175.04C230.771,1184.12 229.785,1157.43 229.88,1148.87C229.911,1146.1 230.032,1143.33 230.2,1140.57C230.413,1137.05 230.683,1133.54 231.023,1130.03C231.453,1125.59 231.944,1121.15 232.51,1116.72C233.22,1111.15 233.996,1105.59 234.85,1100.04C235.917,1093.12 237.063,1086.2 238.271,1079.3L238.401,1078.57C237.759,1079.03 237.115,1079.48 236.471,1079.94C235.795,1080.42 235.117,1080.89 234.438,1081.36C225.214,1086.86 212.966,1096.24 201.776,1098.84C197.404,1099.86 187.218,1095.36 189.919,1088.97C191.72,1084.71 194.962,1082.17 198.324,1079.18C199.831,1077.84 201.341,1076.51 202.848,1075.17C210.499,1068.36 216.191,1062.26 222.635,1053.66C223.806,1052.09 224.974,1050.53 226.148,1048.96C238.875,1032.06 253.685,1018.51 275.177,1014.72L275.252,1014.71C275.371,1013.84 275.49,1012.98 275.61,1012.11Z"/>
        </a>
        <path id="UA-buttocks" d="M428.957,1115.63C428.329,1102.61 428.068,1089.55 428.264,1076.46C428.64,1051.37 428.413,1022.66 431.776,997.328C436.033,965.25 445.836,934.774 458.921,905.221C459.826,903.186 460.744,901.156 461.644,899.119C463.326,895.306 463.18,892.068 462.955,888.1C491.834,898.874 539.468,912.126 598.379,911.746C659.463,911.352 708.569,894.45 737.179,881.589C737.148,882.467 737.12,883.27 737.098,883.974C736.913,889.87 735.999,894.068 738.223,899.119C739.123,901.156 740.041,903.185 740.945,905.22C769.723,971.924 774.459,1044.3 770.27,1116.34C730.96,1146.49 665.511,1165 604.779,1134.34L604.782,1134.02L604.789,1133.85C604.602,1133.74 604.416,1133.63 604.23,1133.52C604.004,1133.38 603.778,1133.24 603.554,1133.1C602.352,1132.34 601.18,1131.53 600.023,1130.7L599.933,1130.64C599.636,1130.85 599.337,1131.07 599.037,1131.28C598.838,1131.42 598.639,1131.55 598.44,1131.69C597.662,1132.22 596.879,1132.75 596.079,1133.25C534.142,1163.1 470.054,1148.4 428.957,1115.63Z"/>
        <path id="UA-knee-pit-right" d="M623.854,1398.54C638.847,1386.14 662.438,1378.14 688.952,1378.14C707.159,1378.14 723.987,1381.91 737.6,1388.29C735.713,1398.86 733.756,1409.42 731.76,1419.98C731.718,1420.21 731.718,1420.21 731.679,1420.44C728.835,1437.84 730.065,1456.48 731.503,1474.61C719.096,1479.4 704.528,1482.16 688.952,1482.16C661.118,1482.16 636.504,1473.34 621.679,1459.88C621.999,1455.2 622.332,1450.41 622.682,1445.25C622.818,1443.22 622.953,1441.19 623.085,1439.16C624.503,1424.51 625.572,1411.75 623.854,1398.54Z"/>
        <path id="UA-knee-pit-left" d="M462.1,1387.48C475.385,1381.59 491.538,1378.14 508.952,1378.14C536.606,1378.14 561.081,1386.85 575.935,1400.16C573.717,1419.26 576.192,1438.55 577.99,1458.21C563.403,1472.61 537.922,1482.16 508.952,1482.16C493.974,1482.16 479.929,1479.61 467.84,1475.15L468.024,1471.34C468.807,1454.75 471.075,1436.51 468.116,1419.98C467.669,1417.61 467.206,1415.25 466.754,1412.89C465.14,1404.42 463.588,1395.95 462.1,1387.48Z"/>
        <path id="UA-leg-lower-right--back" d="M624.766,1829.51L624.842,1828.86C626.379,1815.53 628.213,1801.81 627.166,1788.37C627.059,1787.11 626.94,1785.84 626.829,1784.57C623.684,1747.96 620.943,1711.3 618.211,1674.67C617.08,1659.51 616.01,1643.7 615.031,1628C614.467,1618.94 613.709,1609.82 613.946,1600.94C615.063,1559.1 614.8,1559.36 618.033,1517.53C618.172,1515.71 618.311,1513.89 618.447,1512.07C619.058,1503.82 619.596,1495.59 620.016,1487.34C620.073,1486.26 620.131,1485.17 620.189,1484.09C620.664,1475.56 621.17,1467.9 621.718,1459.88C636.543,1473.34 661.156,1482.16 688.99,1482.16C704.566,1482.16 719.134,1479.4 731.542,1474.61C732.173,1482.57 732.844,1490.43 733.228,1498.05C733.318,1499.86 733.408,1501.67 733.497,1503.48C734.142,1524.84 736.543,1546.98 734.241,1568.26C727.615,1629.51 710.383,1689.84 696.805,1749.83C696.43,1751.36 696.056,1752.89 695.684,1754.42C689.833,1778.81 688.448,1805.23 695.529,1829.51L624.766,1829.51Z"/>
        <path id="UA-leg-upper-right--back" d="M623.893,1398.54C623.28,1393.83 622.314,1389.06 620.882,1384.13C620.185,1380.98 619.476,1377.83 618.777,1374.68C610.143,1333.52 609.559,1292.1 607.691,1250.06C605.986,1211.68 604.466,1172.69 604.822,1134.34C665.554,1165 731.003,1146.49 770.313,1116.34C768.248,1151.84 764.016,1187.25 759.425,1221.87C759.21,1223.35 758.998,1224.83 758.787,1226.32C756.923,1239.53 755.787,1252.67 754.617,1265.95C754.451,1267.83 754.283,1269.71 754.113,1271.59C750.531,1310.78 744.55,1349.6 737.639,1388.29C724.026,1381.91 707.197,1378.14 688.99,1378.14C662.477,1378.14 638.885,1386.14 623.893,1398.54Z"/>
        <path id="UA-leg-lower-left--back" d="M504.44,1829.51C504.614,1828.89 504.792,1828.28 504.972,1827.66C505.054,1827.38 505.135,1827.09 505.216,1826.81C511.64,1803.47 509.85,1777.69 504.268,1754.42C503.897,1752.89 503.522,1751.36 503.147,1749.83C501.546,1743.33 499.933,1736.84 498.331,1730.34C497.666,1727.64 497.004,1724.94 496.343,1722.24C484.467,1671.16 468.977,1619.52 465.611,1567.01C463.758,1538.1 467.08,1508.18 467.68,1479.19C467.746,1477.85 467.813,1476.5 467.878,1475.15C479.968,1479.61 494.013,1482.16 508.99,1482.16C537.96,1482.16 563.441,1472.61 578.028,1458.21C578.168,1459.73 578.303,1461.26 578.432,1462.79C578.579,1464.97 578.724,1467.15 578.867,1469.33C579.323,1476.36 579.662,1481.92 580.018,1488.95C580.078,1490.12 580.139,1491.28 580.203,1492.45C580.982,1506.39 582.263,1521.81 583.363,1536.02C583.507,1537.89 583.65,1539.76 583.791,1541.64C588.905,1624.07 578.453,1706.51 572.817,1788.01C572.796,1788.25 572.776,1788.5 572.757,1788.74C571.798,1802.06 573.588,1815.66 575.11,1828.86L575.187,1829.51L504.44,1829.51Z"/>
        <path id="UA-leg-upper-left--back" d="M462.138,1387.48C454.216,1342.37 448.092,1297.11 444.064,1251.42C443.892,1249.48 443.72,1247.53 443.541,1245.59C442.828,1238.03 441.771,1230.51 440.691,1223C439.939,1217.8 439.172,1212.6 438.417,1207.4C434.006,1176.87 430.481,1146.33 429,1115.63C470.097,1148.4 534.185,1163.1 596.122,1133.25C595.806,1133.44 595.488,1133.64 595.166,1133.82C595.166,1133.82 595.147,1134.53 595.158,1134.88C595.17,1135.32 595.18,1135.76 595.189,1136.2C595.27,1175.5 593.788,1215.04 592.104,1254.24C590.385,1294.24 589.771,1334.04 581.421,1373.57C580.642,1377.09 579.849,1380.61 579.07,1384.13C577.589,1389.46 576.596,1394.8 575.974,1400.16C561.119,1386.85 536.644,1378.14 508.99,1378.14C491.576,1378.14 475.423,1381.59 462.138,1387.48Z"/>
        <a xlink:href="#foot-detail--back">
            <path id="UA-foot-right--back" d="M695.504,1829.51L695.579,1829.76C695.696,1830.17 695.811,1830.57 695.925,1830.97C697.787,1837.61 698.617,1844.05 698.98,1850.9C699.002,1851.29 699.025,1851.67 699.05,1852.05C699.431,1863.09 703.892,1871.58 711.152,1879.96C712.376,1881.46 713.612,1882.95 714.835,1884.45C718.474,1888.93 721.714,1893.47 724.719,1898.36C725.47,1899.59 726.216,1900.83 726.971,1902.06C729.23,1905.72 731.62,1909.3 735.113,1911.88C735.296,1912.02 735.296,1912.02 735.477,1912.16C743.094,1918.23 748.939,1932.76 738.759,1939.24L738.646,1939.31C735.885,1939.83 730.964,1939.86 726.073,1939.88C718.044,1939.9 709.713,1939.97 707.778,1939.97C684.444,1940 661.109,1939.9 637.776,1939.8L633.096,1939.78L629.05,1939.76L628.12,1939.61L627.284,1939.17C627.203,1939.11 627.124,1939.05 627.045,1938.99C615.802,1929.71 615.624,1913.9 619.54,1901.12C619.646,1900.78 619.75,1900.43 619.852,1900.09C623.55,1888.81 623.513,1877.57 622.425,1865.87C622.381,1865.08 622.34,1864.3 622.301,1863.51C621.936,1855.81 622.53,1848.41 623.414,1840.79C623.854,1837.03 624.302,1833.27 624.74,1829.51L695.504,1829.51Z"/>
            <path id="UA-foot-left--back" d="M575.161,1829.51C575.637,1833.59 576.125,1837.66 576.599,1841.75C577.711,1851.43 577.761,1860.74 577.206,1870.5C577.164,1871.26 577.124,1872.03 577.087,1872.8C576.614,1883.09 577.8,1892.91 580.874,1902.74C580.961,1903.02 581.047,1903.31 581.131,1903.59C584.496,1915.47 582.895,1930.15 572.755,1939.07L572.673,1939.13L572.618,1939.17L571.781,1939.61L570.852,1939.76C565.905,1939.78 560.959,1939.8 556.013,1939.83C525.226,1939.55 494.096,1940.1 463.104,1939.77L462.744,1939.76C459.089,1939.16 455.995,1934.46 455.908,1930.93C455.711,1922.94 459.124,1916.23 465.356,1911.45C465.483,1911.36 465.609,1911.26 465.735,1911.15C468.958,1908.5 471.213,1904.86 473.364,1901.35C474.05,1900.23 474.732,1899.1 475.422,1897.97C479.268,1891.72 483.752,1886.07 488.391,1880.4C488.747,1879.96 489.102,1879.52 489.456,1879.09C497.492,1869.07 500.423,1860.28 501.077,1847.77C501.1,1847.35 501.125,1846.93 501.151,1846.52C501.546,1840.7 502.834,1835.09 504.415,1829.51L575.161,1829.51Z"/>
        </a>
    </g>

    <path class="body-outline--back" d="M692.189 273.692c15.879.629 11.181 24.612 9.73 34.197a340.743 340.743 0 0 1-1.47 8.803c-.039.213-.039.213-.081.426-1.508 7.198-7.529 13.609-15.15 13.787h-.01c-.065.289-.066.288-.133.576-.087.359-.087.358-.177.716-3.757 14.555-11.399 28.344-18.619 41.396-.145.258-.292.516-.44.773-4.3 7.389-9.552 14.442-14.612 21.269l-.141.19s-.422 2.028-.267 3.031c1.066 6.725 3.014 16.948 4.694 23.514 2.215 8.656 4.777 20.874 10.111 28.899 8.776 13.204 25.927 15.398 40.296 17.938.471.082.942.162 1.414.24 4.114.663 7.636 1.065 11.902 1.515 2.641.275 5.284.538 7.925.814 13.977 1.474 28.562 3.414 41.391 9.556 57.825 27.682 65.303 99.463 72.899 155.249.241 1.757.483 3.514.729 5.271 3.823 27.133 10.766 53.332 17.831 79.791l1.042 3.924c4.633 17.543 9.482 35.611 11.435 53.765.246.572.489 1.145.732 1.718 13.904 33.012 26.939 68.108 30.529 104.031.059.581.119 1.161.18 1.742 1.933 18.131 5.421 36.009 8.77 53.918.359 1.927.717 3.855 1.073 5.782 4.149 22.636 7.734 45.339 10.87 68.147.329.05.657.11.985.17 21.116 3.97 35.529 17.36 48.119 34.08 1.432 1.91 2.854 3.82 4.285 5.73 7.349 9.75 14.636 16.59 23.539 24.49.38.33.75.67 1.13 1 3.24 2.92 6.05 5.39 7.78 9.47 2.73 6.41-8.5 9.71-12.751 9.12-12.728-1.74-26.15-13.01-35.858-19.93 0 0 .031 2.06.207 3.07.22 1.28.439 2.55.656 3.83a915.29 915.29 0 0 1 3.129 19.8c.773 5.28 1.465 10.56 2.09 15.86.496 4.19.915 8.39 1.272 12.6.281 3.3.49 6.61.641 9.93.118 2.59.163 5.18.164 7.77.003 6.71-.553 29.41-13.493 24.89-1.494-.53-2.942-1.22-4.258-2.1-.038.32-.081.64-.125.96-1.213 8.6-6.657 21.57-17.637 15.93a18.78 18.78 0 0 1-4.193-2.92c-.086.12-.174.23-.263.35-8.958 11.25-20.202-2.75-22.829-11.6l-.052-.18c-.115.06-.232.11-.348.17l-.423.18c-14.294 5.91-18.743-14.57-20.85-23.98-.586-2.62-1.148-5.24-1.671-7.86-.715-3.59-1.389-7.19-2.043-10.79-.839-4.61-1.624-9.24-2.437-13.86-.167-.94-.336-1.88-.507-2.82-.873-4.75-2.051-9.4-3.212-14.09-.147-.6-.293-1.19-.439-1.79-5.554-22.96-8.219-46.53-6.579-70.15l.018-.26c-4.931-12.81-9.877-25.62-14.815-38.438a30822.2 30822.2 0 0 1-8.014-20.825c-17.348-45.16-36.844-90.521-50.687-137.005-15.165-50.921-24.295-104.266-35.238-156.115-.144 1.298-.291 2.595-.44 3.893-3.59 31.013-8.563 62.302-16.314 92.609l-.096.375c-2.029 28.334-3.504 56.705-4.976 85.072-.268 5.182-.769 17.054-.944 22.629-.185 5.896-1.099 10.094 1.124 15.145.901 2.037 1.818 4.066 2.723 6.101 44.109 99.509 33.684 211.719 18.437 316.649-.215 1.48-.427 2.97-.638 4.45-1.864 13.21-3 26.35-4.17 39.63-.166 1.88-.334 3.76-.504 5.64-4.561 49.9-13.01 99.19-22.315 148.39-.042.23-.042.23-.081.46-4.092 25.05.253 52.65 1.511 77.61l.269 5.43c1.033 21.35 2.88 43.42.744 64.78-6.146 61.45-22.714 121.77-37.436 181.57-.375 1.53-.749 3.06-1.121 4.59-5.871 24.48-7.246 51-.079 75.35.116.4.232.8.346 1.2 1.861 6.64 2.691 13.08 3.054 19.93.022.39.046.77.071 1.15.778 10.91 5.209 19.41 12.102 27.91 1.223 1.5 2.459 2.99 3.683 4.49 3.638 4.48 6.879 9.02 9.883 13.91.751 1.24 1.498 2.47 2.253 3.7 2.258 3.66 4.648 7.24 8.142 9.82l.364.28c7.616 6.07 13.461 20.6 3.281 27.08l-.113.07c-6.919 3.13-27.753.65-30.868.66-23.334.03-46.668-.07-70.002-.17l-4.679-.02-4.047-.02-.93-.15-.836-.44-.238-.18c-11.472-9.19-11.482-25.06-7.505-37.87.105-.34.209-.69.311-1.03 3.324-11.31 3.246-22.55 2.573-34.22-.043-.79-.085-1.57-.124-2.35-.364-7.71.23-15.1 1.113-22.73.466-3.98.94-7.96 1.403-11.93 1.537-13.33 3.371-27.05 2.324-40.48-.107-1.27-.226-2.54-.337-3.81-3.145-36.61-5.886-73.26-8.619-109.9-1.782-23.89-5.156-49.31-4.507-73.61 1.117-41.84 1.097-41.7 4.33-83.53.139-1.82.278-3.64.414-5.46.611-8.24 1.148-16.48 1.569-24.73l.173-3.25c.752-13.5 1.581-24.82 2.531-38.84.136-2.03.271-4.06.404-6.09 1.273-19.73 1.949-36-2.242-55.03-.697-3.15-1.406-6.3-2.105-9.45-9.097-41.16-9.54-82.6-11.086-124.62-1.415-38.47-4.361-77.52-2.866-116.04l.007-.17-.559-.33-.677-.42a73.026 73.026 0 0 1-3.53-2.4l-.09-.06c-.297.22-.597.43-.897.64-.198.14-.397.28-.597.41a54.742 54.742 0 0 1-3.316 2.14s-.019.7-.008 1.05c.012.44.022.88.031 1.32.69 39.28-1.642 78.8-3.085 118.04-1.48 40.22-2.023 79.91-10.683 119.33-.779 3.52-1.572 7.04-2.351 10.56-5.769 26.19-2.449 52.01-.638 78.66.147 2.18.292 4.36.435 6.54.456 7.03.795 12.6 1.151 19.62.06 1.17.121 2.33.185 3.5.779 13.94 2.06 29.36 3.16 43.57.144 1.87.287 3.75.428 5.62 6.103 82.21-3.647 164.51-10.974 246.37-.021.24-.041.49-.06.73-.959 13.32.831 26.92 2.353 40.12.501 4.29 1.015 8.59 1.514 12.89 1.113 9.68 1.163 18.99.608 28.75-.042.76-.082 1.53-.12 2.3-.472 10.29.713 20.11 3.787 29.94.087.28.173.57.257.85 3.485 12.03 2.245 27.2-8.375 35.48l-.083.06-.055.04-.836.44-.93.15c-4.946.02-9.892.05-14.838.07-30.853.12-62.003.79-92.909-.06l-.36-.01c-3.656-.6-6.912-5.25-6.999-8.79-.197-7.98 3.379-14.74 9.61-19.51.128-.1.254-.2.379-.3 3.223-2.66 5.479-6.3 7.629-9.81.687-1.12 1.369-2.25 2.059-3.38 3.845-6.25 8.329-11.9 12.969-17.57.356-.44.711-.87 1.064-1.31 8.037-10.02 10.968-18.81 11.622-31.32.023-.42.047-.84.073-1.25.439-6.46 1.977-12.67 3.796-18.85.082-.29.163-.58.244-.86 6.424-23.34 4.634-49.12-.948-72.39-.372-1.53-.746-3.06-1.121-4.59-1.601-6.5-3.214-12.99-4.816-19.49-.665-2.7-1.327-5.4-1.988-8.1-12.457-50.98-25.93-102.79-30.732-155.23-2.654-28.99.614-58.86 2.068-87.81.13-2.62.258-5.24.383-7.86.784-16.59 3.052-34.83.092-51.36-.447-2.37-.91-4.73-1.362-7.09-10.2-53.53-17.943-107.2-22.728-161.47-.172-1.94-.344-3.89-.524-5.83-.712-7.56-1.769-15.08-2.849-22.59-.752-5.2-1.519-10.4-2.274-15.6-6.282-43.49-9.761-86.98-10.11-130.94-.2-25.09-.532-53.8 3.511-79.131 5.099-31.955 14.061-62.554 27.146-92.107.905-2.035 1.823-4.065 2.722-6.102 2.134-4.837 1.326-8.748 1.149-14.398-.191-6.075-.666-17.505-.968-23.376-1.487-28.828-2.762-53.306-4.755-81.968l-.121-1.72c-.097-1.347-.355-2.375-.686-3.685-.215-.858-.428-1.716-.64-2.575-7.084-28.918-12.144-61.125-15.476-90.674l-.093-.828-.055-.499c-.876 4.15-1.754 8.3-2.633 12.45-10.172 47.924-18.477 97.384-32.82 144.38-7.576 24.825-17.302 49.083-26.466 73.343-14.931 39.523-30.163 78.93-45.351 118.35 0 0-1.495 3.62-1.372 5.5.038.61.075 1.22.109 1.83 1.378 25.45-2.686 50.33-8.766 74.94-.156.63-.31 1.27-.462 1.91-.678 2.91-1.19 5.85-1.712 8.79-.592 3.37-1.175 6.74-1.767 10.1a772.99 772.99 0 0 1-2.126 11.57c-.541 2.81-1.117 5.61-1.719 8.41-2.058 9.57-6.666 33.69-22.134 26.07l-.026-.01c-.074.26-.151.51-.23.77-.061.19-.123.39-.187.58-2.916 8.72-14.392 21.5-22.727 10.08-.149.14-.299.27-.452.41-1.263 1.11-2.718 2.02-4.241 2.74-11.254 5.28-16.196-8.62-17.258-17.09l-.004-.03c-.13.09-.261.17-.392.26-.155.09-.31.19-.467.29-16.263 9.7-17.032-17.47-16.876-26.17.049-2.77.152-5.53.319-8.3.214-3.51.484-7.03.824-10.54.43-4.44.921-8.88 1.486-13.31.711-5.57 1.487-11.13 2.341-16.68 1.067-6.92 2.213-13.84 3.421-20.74l.13-.73c-.642.46-1.286.91-1.93 1.37-.677.48-1.355.95-2.033 1.42-9.02 6.27-21.143 16.13-32.662 17.48-4.458.53-14.972-3.16-12.271-9.54 1.801-4.26 5.457-7.13 8.819-10.12 1.506-1.34 3.017-2.67 4.523-4.01 7.652-6.81 13.343-12.91 19.787-21.51 1.172-1.56 2.339-3.13 3.514-4.7 12.726-16.9 27.536-30.45 49.028-34.24l.076-.01a1863.256 1863.256 0 0 1 1.396-9.98c3.741-26.115 8.335-52.057 13.182-77.984l.608-3.272c2.509-13.645 4.568-27.322 5.982-41.123l.109-1.006c3.961-34.78 16.805-68.783 30.38-100.81l.371-.87.126-.293c.055-.508.112-1.014.17-1.521 2.879-24.415 10.213-48.265 16.527-71.937.523-1.965 1.043-3.932 1.562-5.899 5.545-21.134 9.797-41.686 12.778-63.395.595-4.368 1.183-8.737 1.778-13.106 7.147-52.025 17.682-118.235 71.993-142.527 15.269-6.829 32.04-8.274 48.444-9.985.77-.081 1.54-.164 2.309-.248 3.689-.41 6.971-.813 10.654-1.445 1.44-.251 2.878-.509 4.317-.766 10.826-1.949 18.463-4.212 28.621-9.269 6.08-3.027 9.748-10.789 11.908-16.815 5.166-14.416 8.489-29.591 10.785-44.716l.054-.369.114-.79c-.311-.425-.622-.85-.93-1.277-14.781-20.582-22.293-41.477-29.605-65.612l-.096-.321c-.175.052-.35.101-.525.15-.154.041-.309.081-.463.119-6.428 1.565-12.31-1.039-14.327-7.506-.237-.776-.456-1.557-.686-2.336-.206-.688-.414-1.377-.623-2.064-.638-2.093-1.286-4.183-1.925-6.276-2.873-9.456-10.205-30.437 4.272-34.582 1.997-.571 4.091-.542 6.135-.474l.106.003a240.744 240.744 0 0 1-.718-3.58c-2.169-11.384-4.167-23.615-2.911-35.253.252-2.224.532-4.445.801-6.667 1.981-16.147 6.822-31.004 18.642-42.779 8.45-8.419 19.911-13.859 30.787-18.345 33.568-13.845 75.513-14.735 104.805 10.212 5.993 5.104 10.506 9.434 14.972 15.635 17.122 23.766 15.593 50.353 11.405 77.914l-.079.519a20.485 20.485 0 0 1 .872-.156 15.253 15.253 0 0 1 2.754-.176m-10.219 5.532c-.275-.853-.033-1.808.11-2.665.131-.792.259-1.585.385-2.378 4.609-29.355 6.281-59.719-16.354-82.579-28.698-28.985-69.615-30.093-105.403-16.7-11.849 4.434-26.126 11.078-33.682 21.885-9.318 13.326-12.036 25.517-13.832 41.407-.031.29-.06.58-.086.87-1.121 12.706 1.353 26.008 4.115 38.349.115.206.164.43.187.662.016.389.035.777.054 1.166.815 15.163 2.633 30.462 6.231 45.233 0 0 .521 1.722.78 2.584.29.963.582 1.925.874 2.887 6.995 22.905 14.236 42.606 28.344 62.131l.167.23 1.906 2.604.058.008c-1.918 13.26-4.704 26.245-8.248 39.189-2.976 10.866-7.023 22.244-16.423 29.283-7.835 5.867-17.69 8.272-27.144 10.108 3.758.24 7.516.47 11.274.707 1.307.084 2.614.169 3.921.257 3.35.229 9.509-.311 12.651 1.422 1.899 1.049.482 3.22-1.284 2.734a9.91 9.91 0 0 0-.287-.067c-4.861-1.022-10.394-1.043-15.192-1.352-3.544-.224-7.089-.443-10.633-.666-4.23-.272-8.46-.553-12.687-.874-6.072.911-12.202 1.447-18.307 2.084-.803.085-1.606.17-2.409.258-12.831 1.417-26.253 3.392-37.965 9.176-54.789 27.055-61.366 97.114-68.597 150.216-.242 1.765-.485 3.529-.732 5.293-3.856 27.37-10.85 53.815-17.975 80.502l-1.04 3.914c-4.583 17.353-9.427 35.332-11.316 53.312l-.23.878c-.223.515-.443 1.032-.663 1.548-.264.622-.526 1.245-.787 1.868-13.382 32.082-26.046 66.111-29.531 100.976l-.182 1.769c-1.95 18.288-5.46 36.324-8.839 54.389-.237 1.269-.473 2.539-.708 3.808-4.22 22.881-7.883 45.853-11.061 68.9.122 5.82-1.601 11.41-3.216 16.93l-.033.1c-.715 1.73-3.3.84-2.846-.95l.849-2.89c.704-2.45 1.372-4.91 1.793-7.42l-.393.06c-.285.05-.57.09-.855.14-20.153 3.43-33.745 16.16-45.68 32.01-1.432 1.9-2.854 3.82-4.286 5.73-7.611 10.09-15.133 17.19-24.347 25.36l-1.105.99c-1.893 1.7-4.736 3.76-5.875 6.16 0 0 2.347 1.58 3.635 2.14l.089.03c3.65.83 9.211-2.62 12.131-4.18 10.442-5.57 20.229-12.44 29.703-19.47l1.074-.51 1.186-.05 1.112.42.864.81.481 1.09.022 1.18a1140.15 1140.15 0 0 0-4.136 24.12 713.756 713.756 0 0 0-2.255 15.2c-.564 4.09-1.072 8.18-1.54 12.28-.374 3.28-.697 6.57-.984 9.86-.228 2.62-.449 5.24-.561 7.87-.166 3.86-.251 7.73-.271 11.6-.024 4.58-.169 22.79 9.029 15.86a40.758 40.758 0 0 0 3.195-2.69l.958-.59c.142-.03.284-.07.426-.1.866-6.82 1.73-13.64 2.591-20.46 1.528-12.11 3.113-24.23 4.518-36.37.035-.3.07-.61.102-.92.608-6.28-.402-12.89-1.389-19.08l-.024-.14c-.08-.87.548-1.66 1.45-1.75.071.01.143.01.214.01.656.13 1.141.6 1.296 1.25.069.42.134.83.198 1.25 3.747 25.05-2.73 50.96-5.854 75.6l-.194 1.52c.712.81.741 1.85.797 2.87l.063.99c.418 5.77 2.452 21.49 11.7 14.09.864-.7 1.899-1.86 2.432-2.88l.029-.06c.591-.75.659-1.06 1.555-1.42.481-6.27.961-12.54 1.439-18.81 1.262-16.58 2.51-33.15 3.684-49.73.015-.2.032-.39.051-.59.517-5.12 2.378-10.25 5.07-14.64l.054-.08a1.66 1.66 0 0 1 1.326-.71l.222.03c1.238.33 1.39 1.61.817 2.56-.116.2-.231.39-.344.59-2.594 4.67-3.974 9.61-4.321 14.88l-.143 2.1c-1.484 20.99-3.127 41.97-4.735 62.95l-.144 1.88c.601.47.889 1.16 1.158 1.85.063.16.128.31.195.47 5.482 12.44 13.839-7.58 14.462-11.14l.033-.19.033-.2.49-1.22.34-.31c-.971-16.17 3.259-33.62 5.629-49.47.049-.32.099-.63.15-.95.897-5.34 2.384-12.74 6.699-16.65l.066-.06.023-.02.16-.11c.308-.17.395-.19.743-.23.065 0 .131.01.196.01 1.55.25 1.581 1.88.667 2.78-.066.06-.13.13-.194.2-3.562 4.01-4.765 10.43-5.544 15.48-.307 2.05-.604 4.11-.903 6.16-1.757 12.14-2.635 18.53-3.928 30.05-.283 2.52-.624 6.47-.746 9.09-.045.96-.05 2.89-.05 2.89l.198.03s1.001.63 1.425 1.03c.106.1.213.2.322.3 9.306 8.18 13.262-11.23 14.48-16.45.442-1.9.868-3.8 1.269-5.7.546-2.6 1.072-5.2 1.569-7.81.666-3.49 1.3-6.99 1.92-10.49.592-3.36 1.175-6.73 1.768-10.1 1.037-5.84 2.375-11.55 3.802-17.31l.433-1.77c5.478-22.64 8.091-45.92 6.359-69.21l.192-1.3c5.011-13.03 10.038-26.05 15.057-39.075 2.673-6.939 5.344-13.879 8.012-20.82 17.28-44.982 36.862-90.218 50.537-136.564 16.486-55.873 26.475-114.287 38.38-171.168l.413-1.976.342-1.637.484-1.116.887-.832.735-.263-.021-.173c-1.119-9.315-2.255-18.628-3.378-27.943-.584-4.857-1.167-9.715-1.735-14.575l-.137-1.185a1.585 1.585 0 0 1 1.561-1.671l.161.016a1.609 1.609 0 0 1 1.258 1.309c.15 1.294.301 2.588.453 3.881 1.57 13.275 3.202 26.541 4.796 39.813.056.475.113.949.167 1.424l.01.104.347.42s.42 2.175.513 3.277c.087.995.175 1.99.266 2.985 3.435 37.135 8.919 74.397 18.215 110.55 0 0 1.052 14.626 1.518 21.943.447 7.02.882 14.041 1.274 21.065 1.379 24.741 3.346 49.947 3.445 74.827 2.191-3.431 4.467-6.853 7.036-10.016 1.573-1.935 2.872-5.06 5.361-5.219l.12.002c1.285.126 1.818 1.709.936 2.597-.171.159-.171.158-.34.318-6.248 6.017-10.837 13.998-15.142 21.433-.837 1.891-1.689 3.775-2.529 5.665-43.603 98.484-33.069 209.534-17.983 313.354.216 1.49.429 2.98.641 4.47 1.883 13.34 3.025 26.54 4.206 39.95.165 1.87.333 3.74.502 5.61 3.21 35.12 8.177 70 14.264 104.73 6.18 14.95 13.672 30.56 24.578 42.72 0 0 .843 1.31.424 1.74-.847.85-1.601 1.33-2.502.44-.208-.23-.415-.47-.62-.7-8.215-9.34-14.377-20.61-19.666-31.78 1.858 10.24 3.828 20.47 5.763 30.7.033.19.066.37.098.56 3.624 22.19.209 46.54-.919 68.7 2.548-8.57 5.553-17.37 8.477-25.74 1.553-4.44 3.122-8.88 4.675-13.32 1.094-3.13 2.178-6.27 3.228-9.42l.174-.52c.256-.62.807-1 1.476-1.03.071.01.142.02.213.02a1.6 1.6 0 0 1 1.159 1.95c-.236.71-.474 1.42-.712 2.13-2.254 6.67-4.616 13.29-6.946 19.93-.437 1.25-.874 2.5-1.309 3.75-4.162 12-8.269 24.11-11.154 36.5l-.067 1.37c-1.018 21.05-2.849 42.93-.757 63.99 6.068 61.13 22.632 121.17 37.282 180.64.378 1.54.754 3.07 1.128 4.61 6.119 25.52 7.471 53.08.005 78.44-.111.38-.221.76-.329 1.15-1.842 6.57-2.487 12.07-2.84 18.63-.015.28-.031.55-.047.82a59.577 59.577 0 0 1-1.376 9.49c.435 6.77.73 13.67-.127 20.42-.142 1.12-.264 4.04-1.182 5.14-1.022 1.21-3.114.39-2.667-1.31.047-.14.092-.29.136-.44 1.436-5.11 1.308-10.64 1.192-15.88-3.105 6.85-8.037 12.56-12.752 18.32-.37.45-.739.91-1.107 1.36-4.135 5.15-7.462 10.38-10.942 16.06-.222.36-.445.71-.669 1.07-2.509 3.98-5.351 7.64-9.107 10.5-.124.09-.123.09-.246.19-3.785 3.1-9.808 12.39-4.262 16.78 0 0 4.298.11 6.447.13-2.84-3.48-2.489-8.57-.493-12.43l.064-.12c.263-.46.741-.76 1.272-.8.087 0 .086 0 .174.01.982.1 1.628 1.21 1.242 2.12-.081.16-.168.32-.249.49-1.671 3.47-1.566 8.37 2.192 10.35 0 0 .364.25.494.42 12.406.07 24.812.06 37.217.04-12.355-14.05-2.298-33.26 7.737-45.21.238-.29.237-.29.473-.58 9.473-11.76 11.925-26.64 13.68-41.25l.044-.23c.237-.66.81-1.07 1.513-1.09.074 0 .148.01.223.02.744.21 1.234.88 1.199 1.65-.123 1.03-.248 2.05-.376 3.08-1.913 15.15-5.304 29.31-15.195 41.21-.163.19-.325.39-.487.59-9.255 11.5-17.799 29.89-4.604 41.8 16.818-.03 33.636-.09 50.454-.17l2.967-.01c8.845-8.11 8.102-20.52 4.886-30.88a76.266 76.266 0 0 1-.795-2.72c-1.265-2.07-2.651-4.07-4.044-6.06-1.305-1.85-2.62-3.7-3.926-5.55-9.053-12.89-14.498-27.11-15.021-43.09l-.002-.07a1.6 1.6 0 0 1 1.464-1.53c.065 0 .13 0 .196.01.729.12 1.271.7 1.339 1.45.006.23.016.46.027.69.926 18.17 8.063 31.74 18.162 46.06-1.493-8.86-1.057-17.64-.544-26.55.043-.77.084-1.54.122-2.31.348-7.36-.233-14.45-1.08-21.74-.465-3.98-.94-7.95-1.403-11.93-1.693-14.67-3.421-29.53-2.108-44.31.118-1.35.234-2.7.348-4.06 3.094-36.83 5.899-73.71 8.635-110.57 1.67-22.49 4.806-46.67 4.225-69.61-1.057-41.69-1.11-41.56-4.313-83.01-.14-1.83-.279-3.65-.416-5.48-.737-9.96-1.102-15.51-1.577-24.86l-.051-.96a602.218 602.218 0 0 0-3.367-7.09c-1.638-3.39-3.29-6.77-4.929-10.16-.824-1.71-1.659-3.41-2.449-5.14-1.666-3.64-3.392-7.33-4.753-11.11-.346-.96-3.147-6.94-.095-7.24h.157c.875.1 1.314.82 1.447 1.63l.066.35c2.106 10.31 8.351 20.23 12.87 29.56l.605 1.26c-.656-11.04-1.45-22.07-2.199-33.1-.137-2.03-.272-4.06-.405-6.1-.86-13.33-2.499-27.43-.694-40.77-3.028 6.43-6.716 12.75-11.339 18.16l-.163.19c-1.301 1.35-3.432-.42-2.28-1.95.215-.25.43-.5.642-.75 7.447-8.97 12.246-19.93 16.037-30.84l.167-.75c.697-3.16 1.407-6.31 2.106-9.46 10.504-47.52 9.946-96.23 11.707-144.69 1.141-31.37 4.415-64.07 2.047-95.54-25.481 13.72-53.637 15.68-81.847 12.78-15.677-1.61-34.697-7.36-46.687-18.07l-.254-.52c-.033-.59-.032-.59.16-1.14l.39-.44.527-.25.584-.04s2.692 1.46 4.011 2.23c7.6 4.45 15.27 8.96 23.678 11.74 23.117 7.65 54.749 6.7 77.89-.55 10.093-3.16 22.931-7.64 30.66-15.58v-38.8a1.61 1.61 0 0 1 1.5-1.5c.052 0 .105.01.157.01a1.6 1.6 0 0 1 1.343 1.49v38.06s.205.25.311.37c.116.13.234.27.354.4 14.168 15.15 40.967 22.05 60.338 21.83 1.366-.02 2.731-.05 4.097-.07 14.97-.33 31.642-.05 45.671-6.11 9.25-3.99 15.796-8.27 24.063-13.78l.541-.23h.585s.966.67 1.178 1.18v.59l-.224.54-.414.41c-10.851 7.24-12.853 8.47-25.305 14.35-14.795 6.99-34.303 5.87-50.15 6.12-.369.01-.737.01-1.105.01-17.563-.06-35.263-5.26-50.285-14.31-1.808 35.59 1.273 72 2.539 107.54 1.564 43.91 1.553 87.81 11.014 130.87.578 2.61 1.165 5.23 1.747 7.84 4.037 12.39 9.273 25.05 17.847 35.06 0 0 .128 1.62-.307 2.23-.442.62-1.602.11-1.971-.27-.168-.2-.335-.4-.501-.59-4.767-5.72-8.494-12.26-11.578-19.01 2.283 15.26.202 31.32-.818 46.57-.465 6.9-.948 13.81-1.413 20.71-.332 4.96-.947 14.87-.947 14.87.224-.46.448-.93.673-1.39 1.638-3.39 3.29-6.78 4.929-10.16 3.094-6.43 7.362-13.72 8.45-20.91l.031-.16c.212-.66.821-1.11 1.52-1.12.052.01.104.01.156.02 2.822.58.002 6.5-.253 7.22-3.13 8.82-7.677 17.21-11.745 25.61-.517 1.07-1.031 2.14-1.544 3.21-.896 1.88-2.659 5.64-2.659 5.64l-.082 1.61c-.06 1.17-.122 2.35-.186 3.52-.783 14.02-2.064 29.42-3.169 43.7-.143 1.87-.286 3.74-.426 5.61-3.633 48.83-.839 94.58 2.872 143.16 2.603 34.06 5.023 68.2 8.096 102.24l.065.81c.982 13.62-.829 27.84-2.376 41.25-.5 4.29-1.016 8.59-1.514 12.88-.893 7.76-1.283 15.27-.847 23.1.089 1.54.182 3.09.27 4.63.407 7.42.408 14.86-.865 22.21 1.302-1.85 2.614-3.69 3.918-5.54 1.369-1.95 2.723-3.9 4.057-5.88.154-.23.307-.46.457-.69 6.491-10.1 9.57-22.93 9.961-34.87l.001-.05c.071-.82.731-1.44 1.53-1.47.066 0 .131.01.196.02.723.16 1.239.75 1.273 1.51-.005.26-.017.51-.029.77-.911 18.57-8.204 32.78-18.559 47.43-.355.5-.709 1.01-1.062 1.51-1.254 1.81-2.5 3.63-3.624 5.53-.584 2.07-.607 2.01-1.26 4.13-.076.25-.15.51-.223.76-2.708 9.56-2.133 20.96 5.634 28.17 0 0 22.474.16 33.711.2 6.644.02 13.288.04 19.931.05 14.012-12.71 3.595-31.89-6.086-43.59l-.493-.6c-9.73-12.29-12.238-27.13-14.083-42.49l-.01-.22c.081-.77.666-1.36 1.433-1.45h.224c.691.13 1.196.62 1.332 1.32.123 1.01.247 2.04.374 3.06 1.84 14.61 4.961 28.16 14.53 39.66.17.21.339.42.507.62 9.527 11.84 18.301 30.25 6.479 43.7 12.406.02 24.812.03 37.218-.04.126-.17.246-.27.418-.38l.33-.18c3.683-2.17 3.549-7.2 1.727-10.63l-.039-.07c-.385-.91.26-2.02 1.243-2.12.087-.01.087-.01.174-.01.502.03.955.3 1.228.72.061.11.118.22.174.33 1.935 3.82 2.231 8.87-.559 12.3 1.997-.02 3.993-.04 5.989-.09h.259c6.018-4.66-1.012-14.43-5.052-17.45-.169-.13-.337-.26-.504-.4-4.877-3.92-7.961-9.58-11.179-14.83-.237-.38-.475-.77-.715-1.15-3.53-5.64-7.544-10.58-11.789-15.77-.366-.45-.73-.89-1.094-1.34-3.266-4.08-6.35-8.3-8.562-13.06-.105 5.25-.264 10.92 1.337 16.01 0 0 .044 1.38-.467 1.6-1.026.43-1.971.44-2.394-.7-.055-.18-.108-.35-.159-.53-2.157-7.66-1.472-16.26-.989-24.11-1.112-4.66-1.454-9.23-1.702-13.97-.022-.4-.045-.79-.07-1.18-.409-6.03-1.873-11.8-3.57-17.57l-.263-.93c-6.637-24.1-4.947-50.62.731-74.71.169-.7.34-1.41.511-2.11l1.216-4.96c1.46-5.91 2.925-11.82 4.382-17.73 13.134-53.35 27.272-107.48 32.564-162.35 2.107-21.86.057-44.45-1.026-66.24-3.074-12.52-7.28-24.76-11.525-36.91-1.553-4.44-3.122-8.88-4.676-13.32-1.098-3.15-2.187-6.3-3.242-9.46l-.175-.53a1.584 1.584 0 0 1 1.372-1.97c.071 0 .142.01.214.01.592.11 1.032.46 1.262 1.02.234.7.47 1.41.707 2.11 2.25 6.66 4.608 13.27 6.934 19.9.438 1.25.875 2.5 1.311 3.76 2.457 7.08 4.931 14.39 7.123 21.63a4616.693 4616.693 0 0 1-.742-14.93c-.8-17.03-3.06-35.74.002-52.73.449-2.38.914-4.75 1.368-7.12 1.412-7.41 2.797-14.82 4.146-22.23-4.727 9.81-10.272 18.82-16.658 27.6-.327.45-2.424 3.61-3.687 3.97-1.516.42-2.397-1.37-1.52-2.45.2-.23.397-.45.594-.67 10.26-11.7 17.44-26.34 23.44-40.56 7.396-42.01 12.593-84.07 16.33-126.54.173-1.95.346-3.9.526-5.86.723-7.65 1.791-15.28 2.886-22.89.752-5.2 1.519-10.4 2.274-15.6 6.221-43.13 9.921-86.5 10.048-130.11.073-25.04.503-53.06-3.454-78.274-4.923-31.368-13.836-61.51-26.687-90.5-.906-2.039-1.826-4.073-2.728-6.114a86.735 86.735 0 0 1-.934-2.175c-3.975-6.646-8.2-13.801-13.934-19.127l-.085-.086c-.808-.956-.149-2.491 1.141-2.513l.121.008c.326.048.614.178.865.393.186.173.185.172.369.347 4.189 4.034 7.497 8.982 10.63 13.845 0 0 .107-5.636.195-8.454.177-5.641.677-17.458.948-22.72 1.471-28.505 2.965-57.014 5.003-85.486l.088-.534a520.762 520.762 0 0 0 1.277-5.073c8.846-36.113 14.368-73.337 17.364-110.392l.013-.173.338-1.169.774-.939 1.083-.555 1.214-.078 1.146.41.888.832s1.747 7.154 2.503 10.757c8.576 40.81 13.337 62.841 22.1 102.55 4.635 21.004 8.886 42.33 15.121 62.94 7.507 24.814 17.202 49.107 26.44 73.302 15.066 39.457 30.156 78.905 45.336 118.318 0 0 1.966 4.99 1.79 7.59-.039.59-.076 1.19-.111 1.78-1.4 25.02 2.604 49.44 8.578 73.61l.475 1.97c1.481 6.33 2.427 12.86 3.548 19.23a662.493 662.493 0 0 0 2.492 13.43c.445 2.27.919 4.53 1.412 6.79.409 1.88.825 3.75 1.294 5.62 1.367 5.42 5.522 23.15 14.617 14.06l.074-.07 1.1-.71.4-.05c.369-16.04-3.269-32.4-5.628-48.17-.046-.3-.094-.61-.143-.91-.756-4.5-1.993-11.52-5.716-14.89-.008 0-.015-.01-.023-.02-.995-.94-.437-2.61 1.02-2.65.065.01.13.02.195.02 5.354 1.29 7.127 14.71 7.633 18 .309 2.06.607 4.12.907 6.18 1.988 13.74 5.741 29.33 4.711 43.47 0 0 .635 1.37.768 2.11.046.25.094.5.144.74 1.11 5.32 9.929 22.14 14.639 9.05l.592-1c.196-.14.376-.32.571-.47-.484-6.29-.965-12.59-1.445-18.88-1.263-16.58-2.51-33.16-3.685-49.74-.013-.17-.028-.34-.045-.52-.444-4.39-2.235-9.52-4.68-13.42l-.105-.2a1.586 1.586 0 0 1 1.321-2.1c.075.01.15.01.224.01 1.535.29 2.559 3.25 2.954 4.16 1.961 4.47 3.123 8.85 3.441 13.69l.143 2.09c1.48 20.98 3.126 41.95 4.733 62.93l.137 1.77c.742.37.78.62 1.337 1.32.051.1.104.2.159.3.572.97 1.611 2.14 2.504 2.81 9.863 7.4 11.353-10.71 11.618-16.27l.264-1.1.661-.93c-.88-6.93-1.758-13.87-2.634-20.8-2.506-19.87-6.353-37.58-3.216-57.23l.024-.15c.171-.72.777-1.22 1.511-1.26.071.01.142.02.213.02.778.19 1.31.93 1.237 1.73-.067.4-.129.81-.192 1.21-3.702 24.75 2.781 50.46 5.864 74.77l.128 1.01c.728.22 1.294.79 1.844 1.29l.45.4c12.121 10.54 11.421-10.81 11.107-18.43-.68-16.49-2.469-32.83-5.075-49.13-1.471-9.2-3.005-18.39-4.673-27.56l.022-1.18.481-1.09.865-.81 1.112-.42s3.099 1.18 4.419 2.15c.705.52 1.41 1.03 2.117 1.54 8.484 6.14 17.36 12.28 26.766 17.02 2.559 1.3 7.66 4.39 10.831 3.49.02-.01.03-.01.05-.02 1.21-.53 2.58-1.14 3.57-2.05.02-.03.02-.03.05-.05l.02-.03c-.03-.07-.07-.13-.11-.2-2.48-4.34-7.765-7.73-11.4-10.96l-1.473-1.32c-7.352-6.59-12.989-12.89-19.13-21.08-1.169-1.57-2.334-3.13-3.506-4.69-12.103-16.07-26.136-29.04-46.716-32.17.587 3.48 1.643 6.88 2.636 10.27 0 0 .076 1.26-.38 1.49-1.022.51-2.087.6-2.499-.64-.284-.97-.57-1.94-.852-2.91-1.17-4.06-2.212-8.19-2.354-12.44-.172-1.26-.346-2.52-.52-3.78-.239-1.71-.479-3.42-.722-5.14-3.783-26.593-8.439-53.005-13.378-79.403l-.61-3.283c-2.537-13.801-4.619-27.632-6.05-41.59-.051-.482-.104-.963-.159-1.445-4.04-34.391-16.902-68.465-30.471-100.021l-.077-.176c-.229-.872-.293-1.487-.396-2.399-.06-.514-.122-1.028-.185-1.542-2.916-23.053-9.713-45.578-15.698-67.958l-1.052-3.948c-7.128-26.914-11.984-53.593-15.74-81.157-.256-1.865-.513-3.73-.774-5.595-6.839-48.629-17.55-108.748-67.262-132.066-14.611-6.853-31.286-8.051-47.082-9.698-.78-.082-1.56-.166-2.341-.251-3.423-.381-6.507-.756-9.906-1.311-8.989.738-17.995 1.264-26.997 1.832-1.303.084-2.607.169-3.91.256-3.143.215-8.329.119-11.778 1.225l-.163.043c-1.477.211-1.875-1.009-1.544-2.302.28-1.093 4.076-1.192 4.393-1.224 7.794-.79 15.628-1.165 23.444-1.658 1.589-.102 3.179-.206 4.768-.311l.027-.002c-9.155-1.834-18.799-4.359-26.274-10.233-9.067-7.125-12.646-17.784-15.751-28.363-3.496-11.907-6.115-24.15-7.927-36.427l-.045-.313c.152-2.909 1.122-4.904 2.735-7.09.438-.595.875-1.191 1.311-1.787 12.909-17.723 27.122-39.032 30.985-60.831-.008-.144.003-.18.019-.325l.17-1.026c2.504-15.662 2.796-31.788 2.144-47.607M600.207 960.16c3.396-6.894 9.379-12.599 15.084-17.51.151-.131 5.718-5.233 8.063-5.459l.189.006c1.457.228 1.784 1.994.627 2.783-.219.13-.436.261-.653.393-8.26 5.139-19.389 14.168-21.779 24.189.104.578.163 1.164.166 1.754v35.394c-.055.86-.703 1.62-1.7 1.48-.941.12-1.638-.6-1.693-1.48 0-11.837-.097-23.671.001-35.505.009-.551.067-1.097.164-1.638-2.412-10.063-13.682-19.257-21.996-24.327l-.217-.131-.218-.129-.155-.106a1.525 1.525 0 0 1 .971-2.683l.187.018c.323.073.299.074.529.191.232.138.463.278.693.418 8.527 5.296 17.241 13.206 21.737 22.342m260.74-134.006c1.396.193 1.844 2.017.602 2.797-.186.106-.373.211-.561.315-9.627 5.281-19.37 7.222-30.286 6.983l-.104-.002c-1.95-.136-1.791-2.966.078-2.999.281.007.562.011.842.015 10.502.107 19.404-1.716 28.547-6.919l.117-.06c.244-.099.347-.126.635-.136l.13.006m-519.189-.001c.286.035.387.071.621.191.248.141.498.28.748.417 9.244 5.01 18.229 6.758 28.641 6.487 0 0 1.659.666 1.53 1.33-.189.969-.447 1.599-1.452 1.669-.295.007-.59.012-.885.016-11.015.112-20.367-1.855-29.973-7.258l-.093-.054c-1.243-.781-.797-2.727.733-2.803l.13.005m341.424-501.437s.388.037.579.075c5.554.993 9.88-4.265 10.784-9.169.167-.936.332-1.872.495-2.808.371-2.146.723-4.296 1.04-6.452.276-1.878.521-3.762.738-5.648.168-1.467.303-2.938.419-4.41.417-5.303 2.042-17.734-6.703-16.533-1.689.233-2.768.682-4.278 1.247l-.25.088a4.095 4.095 0 0 1-.958.201c.349 10.824.241 21.735-.677 32.531-.309 3.634-1.189 10.878-1.189 10.878m-168.558-42.655c-1.534.5-3.363.313-4.968.274-.22-.005-.22-.005-.44-.007-1.105-.003-2.211.157-3.293.38-5.542 1.141-3.966 10.334-3.274 13.95a72.9 72.9 0 0 0 .73 3.362c.313 1.301.654 2.595 1.013 3.885.474 1.699.975 3.39 1.484 5.079.706 2.323 1.427 4.643 2.135 6.965.443 1.458.859 2.923 1.303 4.38.037.12.076.24.117.359 1.608 4.506 6.552 3.759 10.007 2.016l.019-.01.697-.184c-2.997-13.274-4.664-26.88-5.53-40.449"/>

    </svg>
