<svg xmlns="http://www.w3.org/2000/svg" width="100%" height="100%" fill-rule="evenodd" stroke-linejoin="round" stroke-miterlimit="1.414" clip-rule="evenodd" viewBox="0 156 1200 1900" xmlns:xlink="http://www.w3.org/1999/xlink">
    <defs>
        <pattern id="waves" width="250" height="30" patternUnits="userSpaceOnUse" patternTransform="rotate(143) ">
            <path id="a" data-color="outline"  d="M-62.5-15C-31.3-15 0-7.5 0-7.5S31.3 0 62.5 0 125-7.5 125-7.5s31.3-7.5 62.5-7.5S250-7.5 250-7.5 281.3 0 312.5 0"></path><use xlink:href="#a" y="15"></use><use xlink:href="#a" y="30"></use><use xlink:href="#a" y="45"></use>
        </pattern>
        <pattern id="diagonalHatch" width="20" height="20" patternTransform="rotate(45 0 0)" patternUnits="userSpaceOnUse">
            <line x1="0" y1="0" x2="0" y2="20" style="stroke-width:10" />
        </pattern>
    </defs>

    <g class="bl-map-locations">
        <path id="UA-scalp" d="M508.061 254.817c-.03-.332-.058-.664-.086-.997a106.338 106.338 0 0 1-.383-7.921c-.021-2.559.074-5.121.371-7.664.07-.578.142-1.156.211-1.734.212-1.764.42-3.528.637-5.291.339-2.722.705-5.441 1.187-8.141.466-2.603 1.04-5.187 1.776-7.727a58.005 58.005 0 0 1 2.707-7.433 58.202 58.202 0 0 1 4.079-7.576c1.787-2.81 3.8-5.472 5.963-8.003a87.64 87.64 0 0 1 1.585-1.803c.454-.501.911-1 1.385-1.483a36.956 36.956 0 0 1 1.682-1.606c1.623-1.46 3.354-2.799 5.138-4.056a87.239 87.239 0 0 1 6.342-4.047 124.037 124.037 0 0 1 8.126-4.321 155.022 155.022 0 0 1 8.86-3.972 168.105 168.105 0 0 1 9.258-3.5 156.696 156.696 0 0 1 8.808-2.756 134.48 134.48 0 0 1 6.098-1.562 86.234 86.234 0 0 1 3.259-.7 58.945 58.945 0 0 1 2.572-.432c3.334-.491 6.702-.755 10.069-.869 4.23-.144 8.469-.04 12.688.292 2.033.16 4.062.374 6.083.643 11.856 1.575 23.518 5.032 34.068 10.715a85.423 85.423 0 0 1 4.891 2.848 82.314 82.314 0 0 1 6.743 4.716 80.53 80.53 0 0 1 9.86 9.074 85.396 85.396 0 0 1 5.653 6.854c2.01 2.704 3.871 5.52 5.523 8.457a67.164 67.164 0 0 1 3.898 8.152 68.312 68.312 0 0 1 2.858 8.995 83.846 83.846 0 0 1 1.537 8.043c.183 1.275.34 2.553.476 3.833.104.972.201 1.944.268 2.918.182 2.631.189 5.273.118 7.909a161.278 161.278 0 0 1-.483 8.625c-.039.479-.079.958-.121 1.437a139.115 139.115 0 0 1-1.614 2.642s-21.516-57.79-91.602-57.175c-61.085.536-85.28 43.57-90.488 54.616Z"/>

        <a xlink:href="#face-detail-modal" >
            <path id="UA-face" d="M545.025 391.602a258.711 258.711 0 0 1-6.4-10.48 175.452 175.452 0 0 1-3.47-6.288 109.612 109.612 0 0 1-2.909-5.946c-1.105-2.458-2.065-4.979-2.99-7.509a335.79 335.79 0 0 1-2.977-8.544 642.824 642.824 0 0 1-3.413-10.503 956.794 956.794 0 0 1-3.582-11.587l-.097-.321c-.175.053-.35.102-.526.151a20.231 20.231 0 0 1-1.8.397c-1.125.189-2.273.27-3.413.195a11.204 11.204 0 0 1-3.025-.607 9.762 9.762 0 0 1-3.339-2.01 10.463 10.463 0 0 1-1.669-1.99 12.688 12.688 0 0 1-1.147-2.244 16.33 16.33 0 0 1-.441-1.278l-.438-1.503c-.894-3.015-1.832-6.016-2.75-9.023-.212-.698-.423-1.396-.632-2.095-.58-1.95-1.144-3.904-1.658-5.872a93.437 93.437 0 0 1-1.039-4.364 60.59 60.59 0 0 1-.598-3.248 43.504 43.504 0 0 1-.32-2.521 34.2 34.2 0 0 1-.129-1.837 29.798 29.798 0 0 1-.025-1.495c.004-.49.025-.981.06-1.47.154-2.124.627-4.256 1.641-6.144a11.53 11.53 0 0 1 1.975-2.667 10.813 10.813 0 0 1 1.923-1.54 11.343 11.343 0 0 1 3.074-1.329c1.192-.322 2.424-.464 3.656-.502.828-.024 1.654 0 2.481.028l.103.003a284.437 284.437 0 0 1-.717-3.58 221.362 221.362 0 0 1-1.885-11.385 164.783 164.783 0 0 1-.883-7.677c5.208-11.046 29.403-54.08 90.488-54.616 70.086-.615 91.602 57.175 91.602 57.175s.59-.932 1.614-2.642a259.525 259.525 0 0 1-.726 7.146 353.022 353.022 0 0 1-1.709 12.715l-.08.519c.143-.029.285-.056.428-.082a17.348 17.348 0 0 1 1.695-.216 12.847 12.847 0 0 1 1.329-.037c.407.01.813.033 1.217.079.863.098 1.717.288 2.536.578a10.661 10.661 0 0 1 4.015 2.538c.328.326.638.67.915 1.04.724.97 1.235 2.084 1.61 3.23.285.869.493 1.761.653 2.661.198 1.113.32 2.239.399 3.366.06.872.092 1.745.105 2.618a65.712 65.712 0 0 1-.031 3.076c-.096 2.963-.355 5.92-.693 8.864a202.698 202.698 0 0 1-1.41 9.874c-.232 1.4-.476 2.799-.724 4.197-.103.58-.2 1.162-.331 1.737a18.465 18.465 0 0 1-.599 2.074c-1.236 3.506-3.551 6.64-6.639 8.731-.483.327-.984.628-1.501.899-.571.3-1.161.564-1.766.788-.968.359-1.975.614-2.998.751-.517.069-1.035.104-1.556.116h-.009c-.065.288-.065.288-.133.576l-.176.716c-.127.489-.257.977-.395 1.463-.71 2.506-1.572 4.967-2.503 7.398a165.238 165.238 0 0 1-3.807 9.049 264.86 264.86 0 0 1-4.005 8.428c-2.487 5.016-5.108 9.964-7.806 14.87-.108.195-.217.389-.328.582-.9 1.559-1.878 3.07-2.884 4.562a185.56 185.56 0 0 1-3.741 5.322c-.673.927-1.352 1.85-2.035 2.77-18.086 17.927-38.108 29.887-59.33 29.859-19.113-.026-37.037-10.224-53.332-25.989Z"/>
        </a>
        
         <path id="UA-neck" d="M434.781 481.241a96.26 96.26 0 0 1 10.755-3.641c4.111-1.134 8.288-2.018 12.491-2.728 3.753-.634 7.527-1.13 11.307-1.562 3.996-.456 7.999-.84 11.999-1.257.77-.082 1.541-.164 2.31-.248 1.999-.222 3.997-.456 5.989-.729 1.558-.213 3.113-.45 4.663-.716 1.44-.252 2.879-.509 4.318-.766 2.207-.398 4.413-.804 6.611-1.25 1.485-.302 2.966-.622 4.441-.97a95.597 95.597 0 0 0 3.371-.859c.81-.222 1.616-.457 2.418-.707 4.144-1.29 8.207-2.99 11.781-5.484a29.39 29.39 0 0 0 1.875-1.421 28.213 28.213 0 0 0 2.661-2.49 29.9 29.9 0 0 0 3.816-5.079 35.766 35.766 0 0 0 2.144-4.195 59.827 59.827 0 0 0 1.235-3.147c.66-1.793 1.28-3.601 1.868-5.419 1.662-5.138 3.079-10.353 4.341-15.602.91-3.78 1.737-7.58 2.496-11.394a291.208 291.208 0 0 0 2.179-12.274l.051-.337-.522-1.184.016.023c-.237-.347-.472-.695-.707-1.043l-.752-1.124a313.503 313.503 0 0 1-2.633-4.036c16.294 15.765 34.218 25.963 53.331 25.989 21.222.028 41.244-11.932 59.33-29.859a409.324 409.324 0 0 1-7.185 9.361l-.209.265c-.003.329-.01.659-.009.989 0 .026.007.051.011.077l.055.368.077.51c.095.616.192 1.233.292 1.848a302.866 302.866 0 0 0 4.036 20.361c1.308 5.572 2.782 11.108 4.527 16.56a146.793 146.793 0 0 0 1.852 5.438c.444 1.22.896 2.438 1.413 3.63a35.507 35.507 0 0 0 2.354 4.542 29.77 29.77 0 0 0 3.605 4.732 28.426 28.426 0 0 0 2.521 2.375c.603.502 1.227.979 1.867 1.432 3.496 2.471 7.473 4.171 11.536 5.464.662.211 1.327.411 1.994.602a85.71 85.71 0 0 0 2.482.669c1.293.329 2.593.631 3.897.915 1.671.365 3.349.699 5.03 1.019 2.594.493 5.196.949 7.796 1.409.47.082.941.162 1.412.24 3.949.639 7.924 1.097 11.903 1.515 2.641.277 5.283.538 7.924.813.812.086 1.625.173 2.437.261 2.627.291 5.253.601 7.871.966 3.565.497 7.118 1.089 10.64 1.831 3.658.77 7.282 1.703 10.843 2.84a93.192 93.192 0 0 1 6.283 2.254c-42.124 15.939-102.085 33.407-163.071 33.678-66.43.295-128.033-18.225-167.367-33.455Z"/>
        
        <path id="UA-armpit-left" d="M755.639 712.285c-7.522-34.145-17.933-84.572-18.609-104.933-1.064-32.091 26.182-50.91 34.265 3.403 5.037 33.849.533 79.018-3.465 107.68a11195.753 11195.753 0 0 1-8.081-37.988 962.404 962.404 0 0 1-1.325 11.29 882.785 882.785 0 0 1-2.785 20.548Z"/>
        
        <path id="UA-armpit-right" d="M433.186 714.684c-3.851-28.74-7.775-71.523-2.952-103.929 8.082-54.313 35.329-35.494 34.264-3.403-.699 21.079-11.833 74.38-19.392 108.48a873.323 873.323 0 0 1-3.437-25.061 925.917 925.917 0 0 1-1.15-9.825l-.056-.498c-.875 4.15-1.753 8.3-2.632 12.449a10019.9 10019.9 0 0 1-4.645 21.787Z"/>
        
        <path id="UA-chest" d="M428 484.223a85.121 85.121 0 0 1 6.527-2.982c39.334 15.23 100.937 33.75 167.367 33.455 60.986-.271 120.947-17.739 163.071-33.678 1.115.445 2.221.914 3.317 1.405a84.605 84.605 0 0 1 9.26 4.857c-4.601 10.375-9.27 23.259-13.209 38.88-4.244 16.83-6.437 34.858-7.479 51.354-9.954-5.41-20.579 9.566-19.906 29.838.675 20.361 11.087 70.788 18.608 104.933-1 6.771-2.084 13.529-3.258 20.272a720.14 720.14 0 0 1-1.28 7.136c-31.051 37.448-113.72 40.892-154.909 40.9-39.645.008-117.568-2.26-146.474-37.655a722.002 722.002 0 0 1-2.941-16.588 809.83 809.83 0 0 1-1.671-10.518c7.559-34.1 18.693-87.401 19.392-108.48.688-20.717-10.424-35.903-20.561-29.452-.456-16.611-1.53-34.423-3.968-50.052-2.761-17.708-7.399-32.44-11.886-43.625Z"/>
        
        <path id="UA-elbow-pit-right" d="M784.178 792.988c11.694-11.368 27.373-22.833 46.314-27.924 11.814-3.176 25.283-2.257 39.605 1.07l.045.242c.855 4.657 1.584 9.338 2.09 14.046.247.572.49 1.145.733 1.719a542.427 542.427 0 0 1 4.158 10.162 635.44 635.44 0 0 1 5.011 13.009 604.038 604.038 0 0 1 4.728 13.136c-9.358 8.178-21.883 15.706-38.484 20.176-20.413 5.496-38.362 4.211-52.635.622-.283-.893-.559-1.787-.826-2.685a203.54 203.54 0 0 1-1.452-5.163 442.547 442.547 0 0 1-1.537-5.888 915.169 915.169 0 0 1-3.235-13.165 1952.03 1952.03 0 0 1-4.068-17.407l-.447-1.95Z"/>
        
        <path id="UA-elbow-pit-left"  d="M329.992 766.055c14.195-3.262 27.544-4.142 39.265-.991 19.085 5.13 34.859 16.73 46.58 28.183-.635 2.774-1.273 5.546-1.917 8.317a1577.163 1577.163 0 0 1-3.563 15.033 753.473 753.473 0 0 1-2.791 11.175 367.295 367.295 0 0 1-1.343 5.045c-.41 1.492-.831 2.981-1.281 4.462-.191.627-.385 1.253-.582 1.877-14.33 3.657-32.407 5.009-52.989-.532-16.453-4.43-28.902-11.864-38.233-19.957a617.462 617.462 0 0 1 5.759-15.905 612.602 612.602 0 0 1 4.812-12.353 484.07 484.07 0 0 1 4.007-9.694l.126-.293c.055-.507.112-1.014.17-1.52.064-.537.13-1.073.198-1.609a207.881 207.881 0 0 1 1.782-11.238Z"/>

        <path id="UA-arm-lower-left" d="M868.076 1038.41c.08-1.78.183-3.55.307-5.32l.018-.25c-4.93-12.82-9.877-25.63-14.815-38.448-2.673-6.94-5.345-13.882-8.014-20.824a13450.052 13450.052 0 0 1-18.442-48.25 6065.935 6065.935 0 0 1-13.448-35.721 3209.919 3209.919 0 0 1-6.487-17.562 1795.22 1795.22 0 0 1-5.058-13.991 802.475 802.475 0 0 1-4.401-12.632 370.543 370.543 0 0 1-1.8-5.459l-.226-.707c14.274 3.589 32.223 4.874 52.636-.622 16.601-4.47 29.125-11.998 38.484-20.176a520.927 520.927 0 0 1 4.75 14.361c2.327 7.402 4.48 14.861 6.356 22.39 1.689 6.776 3.162 13.613 4.24 20.514.321 2.053.605 4.113.844 6.177.164 1.425.298 2.854.442 4.281l.18 1.743c.326 3.059.681 6.115 1.079 9.165a407.899 407.899 0 0 0 1.84 12.552c.983 6.071 2.086 12.121 3.215 18.166.874 4.679 1.761 9.356 2.636 14.035l.709 3.817c.764 4.139 1.518 8.279 2.251 12.424a1375.482 1375.482 0 0 1 3.065 18.048c2.126 13.05 4.059 26.129 5.861 39.229-28.434 2.64-46.571 11.87-56.222 23.06Z"/>

        <path id="UA-arm-upper-left" d="M784.146 792.988c-1.2-5.244-2.384-10.49-3.56-15.738a5989.664 5989.664 0 0 1-8.7-39.54 8358.11 8358.11 0 0 1-4.157-19.275c3.998-28.662 8.502-73.831 3.465-107.68-2.977-20.003-8.553-30.087-14.358-33.241 1.042-16.496 3.235-34.524 7.479-51.354 3.939-15.621 8.608-28.505 13.208-38.88a82.616 82.616 0 0 1 3.935 2.539c5.241 3.597 10.059 7.787 14.426 12.403 4.219 4.461 8.018 9.311 11.448 14.4a129.485 129.485 0 0 1 5.394 8.71 134.92 134.92 0 0 1 4.927 9.633 160.94 160.94 0 0 1 4.462 10.648 199.447 199.447 0 0 1 4.493 13.315 254.65 254.65 0 0 1 3.691 13.724 344.052 344.052 0 0 1 3.369 15.695c1.366 7.132 2.543 14.299 3.62 21.479 1.389 9.268 2.609 18.56 3.875 27.845.241 1.757.483 3.515.729 5.271.837 5.939 1.711 11.874 2.751 17.781.58 3.295 1.223 6.578 1.912 9.852 1.67 7.93 3.595 15.804 5.608 23.652 2.443 9.523 5.025 19.008 7.56 28.506l1.043 3.924c2.582 9.786 5.113 19.589 7.273 29.479a311.971 311.971 0 0 1 2.026 9.998c-14.322-3.327-27.791-4.246-39.605-1.07-18.941 5.091-34.62 16.556-46.314 27.924Z"/>

        <path id="UA-arm-lower-right" d="M275.702 1015.42c.208-1.51.418-3.03.629-4.54a1652.1 1652.1 0 0 1 3.493-23.746 1368.326 1368.326 0 0 1 4.024-24.549c.98-5.651 1.998-11.296 3.041-16.936 1.101-5.953 2.231-11.901 3.345-17.852l.607-3.272c.724-3.93 1.434-7.863 2.097-11.804a435.084 435.084 0 0 0 1.922-12.445 377.13 377.13 0 0 0 1.689-14.105c.093-.923.18-1.847.275-2.771l.109-1.004c.135-1.191.282-2.381.445-3.569.408-2.99.903-5.967 1.459-8.933a244.595 244.595 0 0 1 2.435-11.398c1.966-8.287 4.287-16.488 6.823-24.617a514.078 514.078 0 0 1 5.011-15.212c9.331 8.093 21.78 15.527 38.232 19.957 20.583 5.541 38.659 4.189 52.99.532a284.948 284.948 0 0 1-1.097 3.391 517.68 517.68 0 0 1-2.401 7.087 1242.657 1242.657 0 0 1-6.404 17.982 2904.895 2904.895 0 0 1-8.098 21.981 5202.14 5202.14 0 0 1-7.885 21.023c-9.701 25.714-19.544 51.373-29.418 77.02-5.306 13.78-10.625 27.56-15.932 41.34l-1.484 3.86a190.513 190.513 0 0 1 .221 3.46c.056 1.03.105 2.05.146 3.08-9.346-11.53-27.463-21.15-56.274-23.96Z"/>

        <path id="UA-arm-upper-right" d="M329.96 766.055c.278-1.508.571-3.013.874-4.515 1.054-5.227 2.24-10.428 3.493-15.611 1.398-5.789 2.885-11.557 4.401-17.316 1.729-6.565 3.499-13.119 5.253-19.677l1.049-3.94c1.882-7.104 3.736-14.216 5.459-21.361 1.407-5.832 2.73-11.685 3.884-17.572 1.843-9.405 3.171-18.901 4.474-28.392.595-4.368 1.183-8.738 1.778-13.106.361-2.627.723-5.255 1.097-7.881a727.89 727.89 0 0 1 2.643-17.267c1.073-6.434 2.261-12.85 3.632-19.228a293.916 293.916 0 0 1 3.622-15.01 223.59 223.59 0 0 1 4.108-13.526 177.03 177.03 0 0 1 4.535-11.955 146.952 146.952 0 0 1 4.341-9.361 129.353 129.353 0 0 1 3.242-5.987 130.149 130.149 0 0 1 4.833-7.728c3.54-5.252 7.473-10.25 11.855-14.828 4.496-4.697 9.467-8.941 14.876-12.555a83.656 83.656 0 0 1 8.573-5.016c4.487 11.185 9.124 25.917 11.886 43.625 2.438 15.629 3.512 33.441 3.967 50.052-5.566 3.542-10.837 13.605-13.702 32.855-4.823 32.406-.899 75.189 2.952 103.929a8758.208 8758.208 0 0 1-7.431 34.375 5015.837 5015.837 0 0 1-8.26 37.207 3933.23 3933.23 0 0 1-1.589 6.981c-11.722-11.453-27.495-23.053-46.58-28.183-11.721-3.151-25.07-2.271-39.265.991Z"/>
        
        <a xlink:href="#hand-detail-modal" >
            <path id="UA-hand-left" d="m924.293 1015.35.057.41c.329.05.657.11.985.17 1.619.31 3.229.66 4.825 1.07 3.247.83 6.433 1.9 9.514 3.23a62.203 62.203 0 0 1 10.749 5.93c3.359 2.31 6.49 4.94 9.406 7.79 2.797 2.73 5.397 5.66 7.873 8.68 2.116 2.58 4.142 5.24 6.147 7.91 1.297 1.73 2.589 3.47 3.889 5.2 3.157 4.19 6.377 8.35 10.015 12.13.884.92 1.794 1.82 2.729 2.68.693.64 1.388 1.28 2.084 1.91 1.151 1.05 2.307 2.09 3.467 3.12 1.744 1.56 3.498 3.1 5.247 4.65.37.34.75.67 1.12 1.01.69.61 1.36 1.22 2.04 1.85.52.48 1.03.97 1.54 1.47.39.39.77.79 1.15 1.19.23.25.46.5.68.76.16.19.31.38.47.57.92 1.17 1.73 2.5 1.98 3.99.04.21.06.42.07.63.02.31.01.62-.03.92-.05.44-.15.86-.31 1.27-.21.55-.5 1.07-.86 1.54-.56.71-1.25 1.31-1.98 1.83-.5.35-1.03.67-1.56.97-.8.45-1.63.85-2.47 1.23-.12.05-.11.05-.23.1-.31.12-.62.23-.95.31-.74.17-1.51.23-2.273.21-.968-.03-1.929-.18-2.872-.39a19.55 19.55 0 0 1-1.059-.27 22.68 22.68 0 0 1-1.38-.41c-.69-.23-1.372-.48-2.049-.74-.849-.34-1.688-.7-2.519-1.07a89.449 89.449 0 0 1-6.014-3.03 158.52 158.52 0 0 1-6.477-3.77c-5.373-3.3-10.586-6.85-15.719-10.51l-.378-.27c.197 1.11.391 2.23.585 3.34.22 1.28.439 2.55.656 3.83 1.112 6.59 2.17 13.19 3.129 19.8.766 5.28 1.473 10.56 2.091 15.86.489 4.19.922 8.39 1.272 12.6.274 3.3.497 6.61.64 9.93.112 2.59.176 5.18.165 7.77-.008 1.86-.055 3.72-.159 5.57-.081 1.45-.197 2.9-.365 4.34a51.561 51.561 0 0 1-.438 3.01c-.138.78-.298 1.56-.487 2.33-.136.55-.285 1.1-.454 1.65-.115.37-.237.73-.37 1.1-.111.3-.228.6-.353.89-.709 1.69-1.687 3.31-3.086 4.51-.199.17-.405.33-.619.48-.305.22-.625.42-.957.59a7.76 7.76 0 0 1-3.292.83 9.605 9.605 0 0 1-2.917-.41c-1.494-.45-2.875-1.19-4.173-2.05l-.081-.05a63.035 63.035 0 0 1-.258 1.86 48.16 48.16 0 0 1-.577 3.05c-.169.75-.359 1.5-.577 2.24a28.257 28.257 0 0 1-.999 2.84c-.138.33-.283.65-.437.97-.963 2.01-2.277 3.91-4.078 5.26a9.65 9.65 0 0 1-.977.64 9.284 9.284 0 0 1-3.289 1.17c-.935.14-1.89.14-2.827.02-1.302-.18-2.564-.59-3.745-1.16a16.673 16.673 0 0 1-3.246-2.09c-.325-.27-.639-.54-.946-.83-.086.12-.174.23-.262.35-.293.37-.601.72-.933 1.06-.639.65-1.354 1.22-2.138 1.69-.846.5-1.77.87-2.732 1.08-.707.16-1.433.23-2.157.21a9.81 9.81 0 0 1-1.432-.13c-.331-.06-.658-.13-.982-.22-2.519-.69-4.712-2.27-6.476-4.16-.296-.32-.581-.64-.855-.98-.39-.47-.759-.96-1.108-1.47-.432-.62-.834-1.27-1.209-1.93-.518-.91-.982-1.86-1.398-2.82a34.856 34.856 0 0 1-1.462-4.11c-.114.06-.229.11-.345.17-.936.42-1.917.75-2.933.92-.974.17-1.971.2-2.954.09-.923-.1-1.831-.32-2.699-.65-.926-.35-1.804-.82-2.618-1.38-1.727-1.19-3.157-2.78-4.281-4.55a20.19 20.19 0 0 1-1.836-3.68c-.241-.63-.445-1.27-.647-1.92-.172-.55-.34-1.11-.504-1.66a157.89 157.89 0 0 1-1.91-7.16c-.506-2.08-.98-4.16-1.433-6.24-.607-2.8-1.174-5.6-1.718-8.41-.746-3.85-1.444-7.7-2.126-11.56-.593-3.37-1.176-6.74-1.768-10.11-.279-1.57-.56-3.14-.859-4.71a82.568 82.568 0 0 0-.998-4.69c-.216-.9-.44-1.81-.664-2.71-.4-1.6-.801-3.2-1.198-4.8-.147-.6-.293-1.19-.439-1.79-.392-1.62-.778-3.25-1.149-4.88a267.68 267.68 0 0 1-1.533-7.16 232.853 232.853 0 0 1-2.758-16.92 214.251 214.251 0 0 1-1.654-24.73c-.031-3.72.04-7.43.208-11.14 9.651-11.19 27.788-20.42 56.222-23.06Z"/>
        </a>
        
        <a xlink:href="#hand-detail-modal" >
            <path id="UA-hand-right" d="M275.697 1015.42c28.811 2.81 46.928 12.43 56.274 23.96a209.495 209.495 0 0 1-.031 17.68c-.367 8.3-1.226 16.58-2.532 24.79-.909 5.71-2.039 11.39-3.334 17.03-.538 2.34-1.104 4.68-1.683 7.01-.443 1.78-.893 3.56-1.332 5.35-.157.64-.311 1.27-.463 1.91-.316 1.36-.593 2.72-.853 4.08-.299 1.57-.579 3.14-.858 4.71-.593 3.37-1.176 6.74-1.768 10.11a722.16 722.16 0 0 1-2.126 11.56c-.544 2.81-1.112 5.61-1.718 8.41-.453 2.08-.927 4.16-1.433 6.24a154.05 154.05 0 0 1-1.91 7.15 88.16 88.16 0 0 1-.505 1.67c-.201.65-.406 1.29-.647 1.92a20.063 20.063 0 0 1-1.836 3.68c-1.123 1.77-2.553 3.36-4.28 4.55-.814.56-1.693 1.03-2.618 1.38-1.004.38-2.06.62-3.131.69-.954.06-1.916 0-2.853-.19a12.09 12.09 0 0 1-2.921-1.02l-.026-.01c-.075.26-.151.51-.23.77-.081.26-.165.51-.251.77a33.564 33.564 0 0 1-1.369 3.43c-.412.88-.868 1.74-1.369 2.57-.358.6-.738 1.18-1.145 1.74-.325.45-.665.88-1.023 1.3-.278.33-.566.65-.864.96-1.756 1.82-3.925 3.33-6.397 3.97-.325.08-.654.15-.985.2-.522.08-1.05.12-1.578.11a8.53 8.53 0 0 1-2.012-.24 9.254 9.254 0 0 1-2.969-1.29c-.81-.53-1.54-1.18-2.183-1.91-.247-.27-.478-.56-.701-.86l-.068-.09-.359.33-.39.33c-1.267 1.06-2.667 1.96-4.196 2.6-1.138.47-2.343.78-3.572.88-.903.07-1.816.02-2.703-.16a9.575 9.575 0 0 1-1.814-.57c-.452-.2-.888-.43-1.305-.69a9.458 9.458 0 0 1-.828-.58c-1.902-1.47-3.244-3.55-4.207-5.73-.148-.33-.287-.67-.419-1.01-.166-.43-.321-.86-.465-1.3-.205-.62-.388-1.25-.554-1.89a39.15 39.15 0 0 1-.59-2.61 55.526 55.526 0 0 1-.549-3.53l-.005-.04c-.129.09-.258.17-.389.26-.156.09-.313.19-.471.29-.425.25-.855.49-1.297.71-.847.42-1.733.76-2.652.99-.906.21-1.843.31-2.772.24a7.468 7.468 0 0 1-1.869-.39 7.623 7.623 0 0 1-2.677-1.57c-1.421-1.25-2.396-2.93-3.102-4.68-.123-.3-.238-.61-.346-.91-.146-.42-.28-.84-.404-1.27-.177-.61-.333-1.23-.473-1.85a39.43 39.43 0 0 1-.459-2.41 55.285 55.285 0 0 1-.447-3.52 82.692 82.692 0 0 1-.322-5.03c-.078-2.16-.088-4.32-.055-6.48.043-2.77.158-5.53.32-8.3.206-3.51.489-7.03.823-10.54.423-4.45.928-8.88 1.487-13.31.703-5.57 1.493-11.13 2.34-16.67a974.7 974.7 0 0 1 3.422-20.75l.129-.73c-.642.46-1.286.92-1.931 1.37-.676.48-1.353.95-2.032 1.42-3.558 2.48-7.159 4.89-10.832 7.18-2.794 1.75-5.63 3.43-8.532 4.99-2.236 1.2-4.513 2.34-6.858 3.31-1.067.45-2.15.86-3.252 1.21-.877.28-1.768.52-2.672.7-1.245.25-2.534.37-3.799.22a7.788 7.788 0 0 1-1.432-.33c-.385-.13-.751-.3-1.118-.48-.418-.19-.832-.4-1.242-.61-.307-.16-.61-.32-.91-.5-.215-.12-.429-.25-.639-.38-1.273-.79-2.49-1.78-3.219-3.12a5.958 5.958 0 0 1-.322-.7 5.335 5.335 0 0 1-.275-1.02 5.471 5.471 0 0 1-.047-1.43c.06-.61.222-1.21.455-1.78.446-1.09 1.138-2.07 1.889-2.97.878-1.05 1.854-2.02 2.846-2.96 1.255-1.2 2.549-2.36 3.845-3.51 1.506-1.34 3.018-2.67 4.524-4.01.487-.43.973-.86 1.459-1.3 1.188-1.06 2.373-2.13 3.55-3.21.782-.71 1.565-1.43 2.326-2.16a77.988 77.988 0 0 0 3.293-3.42c2.416-2.68 4.661-5.5 6.847-8.36 1.964-2.57 3.884-5.17 5.825-7.76.398-.52.796-1.05 1.196-1.58 2.523-3.31 5.107-6.59 7.878-9.7 3.199-3.6 6.647-6.98 10.426-9.96a64 64 0 0 1 7.323-5.02 60.962 60.962 0 0 1 8.074-3.99 65.125 65.125 0 0 1 8.823-2.87 74.05 74.05 0 0 1 5.309-1.12l.075-.01.047-.34Z"/>
        </a>
        
        <path id="UA-stomach"  d="M445.471 940.977a359.064 359.064 0 0 1 4.604-12.983 385.372 385.372 0 0 1 6.42-15.949c.826-1.93 1.666-3.854 2.518-5.773.905-2.035 1.822-4.065 2.723-6.102.191-.433.38-.866.567-1.301.168-.395.335-.79.489-1.19.04-.105.08-.21.117-.316l.039-.114c.009-.027.022-.059.027-.087.011-.06.013-.123.018-.184.01-.125.017-.251.023-.376.016-.326.025-.653.031-.979a95.75 95.75 0 0 0 .004-2.456c-.02-2.222-.077-4.444-.144-6.666a935.055 935.055 0 0 0-.358-9.904 2037.62 2037.62 0 0 0-.632-14.201 4119.302 4119.302 0 0 0-2.155-40.512c-.797-13.823-1.642-27.643-2.601-41.456l-.121-1.719c-.033-.462-.048-.925-.099-1.385-.014-.129-.064-.25-.097-.376l-.163-.64c-.11-.428-.218-.856-.326-1.285-.215-.857-.428-1.716-.64-2.574a527.855 527.855 0 0 1-2.281-9.709 598.03 598.03 0 0 1-4.089-19.802c28.906 35.395 106.828 37.663 146.474 37.655 41.189-.008 123.858-3.452 154.909-40.9-1.824 9.891-3.863 19.743-6.196 29.527a486.582 486.582 0 0 1-1.91 7.728l-.097.376c-.503 7.027-.965 14.057-1.407 21.088-.341 5.4-.669 10.802-.989 16.204a4463.192 4463.192 0 0 0-2.25 41.053c-.252 5.045-.493 10.092-.716 15.139-.163 3.681-.316 7.363-.449 11.046a503.893 503.893 0 0 0-.279 9.755c-.018 1.1-.03 2.2-.023 3.3.002.439.008.879.023 1.319.01.305.02.612.054.916.003.022.009.04.015.061.073.227.159.448.247.669.132.334.271.665.412.995.352.825.718 1.643 1.083 2.462.736 1.647 1.474 3.293 2.207 4.942a444.173 444.173 0 0 1 5.416 12.717 368.038 368.038 0 0 1 6.096 16.065 349.935 349.935 0 0 1 2.564 7.539c-2.841 10.423-7.18 20.188-13.589 28.734-20.601 27.474-75.571 38.992-133.349 38.992-62.936 0-120.574-8.11-144.35-37.09-7.874-9.596-13.632-20.585-17.77-32.253Z"/>
        
        <path id="UA-genital" d="M554.459 1007.89c16.858 1.73 34.899 2.43 53.398 2.43 12.835 0 25.531-.57 37.743-1.76.598 6.95.911 14.13.911 21.48 0 56.38-18.458 102.78-42.03 108.05.006-.39.012-.79.02-1.19l.005-.22c-.666-.01-1.333-.03-1.999-.04l-2.354-.06-.153-.01-1.943.06c-.71.01-1.42.03-2.13.04l-.434.01c.01.43.018.86.024 1.3l.002.11c-23.572-5.27-42.03-51.67-42.03-108.05 0-7.59.334-15 .97-22.15Z"/>

        <path id="UA-groin-left" d="M709.277 994.095c-1.097 78.785-47.252 142.665-104.808 145.815.004-.6.01-1.21.019-1.82 23.571-5.27 42.03-51.67 42.03-108.05 0-7.35-.314-14.53-.912-21.48 23.96-2.32 46.054-7.02 63.671-14.465Z"/>

        <path id="UA-groin-right" d="M490.723 992.898c17.271 7.822 39.259 12.492 63.743 14.992-.637 7.15-.971 14.56-.971 22.15 0 56.38 18.459 102.78 42.03 108.05l.015 1.47.002.35c-57.846-3.17-104.176-67.68-104.819-147.012Z"/>

        <path id="UA-knee-left" d="M622.607 1444.06c10.475-10.76 27.299-20.2 54.087-20.2 22.961 0 40.721 3.93 53.906 10.09-.045 2.66-.042 5.33-.013 7.99.036 3.23.11 6.46.206 9.69.231 7.79.581 15.57.958 23.36.389 8.04.809 16.07 1.214 24.11l.269 5.43.034.71c-12.977 7.19-31.48 12.75-57.477 12.13-29.856-.71-46.945-8.3-56.725-16.88a715.546 715.546 0 0 0 .515-8.74c.087-1.66.17-3.32.257-4.98.059-1.09.118-2.17.179-3.26.344-6.01.728-12.03 1.13-18.04.465-6.9.949-13.81 1.414-20.71l.046-.7Z"/>

        <path id="UA-knee-right" d="M469.407 1433.74c13.138-6.04 30.754-9.88 53.453-9.88 26.403 0 43.537 9.17 54.513 19.74l.078 1.16c.426 6.36.871 12.72 1.303 19.08.147 2.18.292 4.36.436 6.54.283 4.38.557 8.75.804 13.13.092 1.63.18 3.25.265 4.88.073 1.41.143 2.82.218 4.23a825.304 825.304 0 0 0 .489 8.2c-10.297 8.44-27.721 15.85-57.203 16.55-25.701.61-44.077-4.81-57.031-11.89.103-2.13.208-4.25.315-6.38.316-6.28.64-12.57.955-18.85.337-6.8.665-13.6.931-20.4.207-5.28.379-10.57.463-15.85.035-2.16.054-4.31.049-6.46-.004-1.27-.015-2.54-.038-3.8Z"/>

        <path id="UA-leg-lower-left" d="M625.936 1817.27c.308-3.19.58-6.39.793-9.58.198-2.95.342-5.91.398-8.86.047-2.51.03-5.02-.104-7.52-.033-.63-.077-1.26-.126-1.89-.044-.52-.094-1.05-.141-1.58-.067-.74-.131-1.48-.196-2.22-.575-6.7-1.12-13.4-1.661-20.11-.744-9.21-1.474-18.42-2.199-27.63-1.63-20.71-3.222-41.44-4.758-62.16a5989.92 5989.92 0 0 1-2.828-39.55c-.336-4.99-.664-9.97-.961-14.96-.114-1.91-.224-3.83-.324-5.75a224.402 224.402 0 0 1-.295-7.53c-.048-1.93-.081-3.88-.1-5.82-.145-14.13.413-28.27 1.283-42.38.809-13.12 1.887-26.22 2.905-39.32.141-1.83.281-3.65.42-5.48.361-4.81.709-9.62 1.019-14.44 9.779 8.58 26.869 16.17 56.724 16.88 25.997.62 44.5-4.94 57.477-12.13.331 6.87.647 13.75.898 20.62.169 4.61.31 9.22.402 13.84.078 3.86.121 7.72.107 11.58-.015 3.77-.081 7.53-.256 11.29-.105 2.25-.255 4.5-.441 6.74-.459 5.52-1.115 11.03-1.868 16.52a557.454 557.454 0 0 1-2.65 17.17 888.716 888.716 0 0 1-3.692 20.31 1288.04 1288.04 0 0 1-3.92 19.46 1853.86 1853.86 0 0 1-6.632 30.36c-3.361 14.83-6.871 29.62-10.463 44.4-1.33 5.47-2.672 10.93-4.021 16.4-1.394 5.65-2.797 11.3-4.19 16.95-.375 1.53-.749 3.06-1.121 4.59a172.996 172.996 0 0 0-1.982 9.3 171.415 171.415 0 0 0-2.811 26.24 151.25 151.25 0 0 0 .35 15.85c.373 4.9.999 9.78 1.97 14.59.404 2.01.868 4 1.405 5.97l.014.05c-19.724 4.44-44.938 4.88-68.425-10.2Z"/>

        <path id="UA-leg-upper-left" d="M622.601 1444.06c.278-4.18.549-8.36.79-12.54.215-3.72.408-7.44.551-11.16.12-3.15.207-6.29.21-9.44.001-1.24-.012-2.47-.048-3.71a67.77 67.77 0 0 0-.208-3.87c-.153-1.77-.407-3.54-.697-5.3a173.51 173.51 0 0 0-1.263-6.7 539.63 539.63 0 0 0-1.769-8.17c-.552-2.48-1.108-4.96-1.659-7.44-.248-1.12-.494-2.24-.739-3.36-.857-3.96-1.689-7.91-2.453-11.88-1.324-6.88-2.462-13.8-3.283-20.75a215.68 215.68 0 0 1-.699-6.82c-.143-1.65-.262-3.31-.375-4.96-.148-2.17-.281-4.34-.408-6.51-.331-5.66-.619-11.32-.892-16.98-.401-8.32-.767-16.64-1.116-24.97-.337-8.07-.657-16.14-.963-24.21-.48-12.66-.928-25.33-1.343-37.99-.37-11.31-.715-22.62-1.018-33.94a2666.8 2666.8 0 0 1-.629-27.99c-.054-3.33-.099-6.66-.121-9.99-.012-1.82-.018-3.64-.006-5.47 57.555-3.15 103.711-67.03 104.807-145.815 13.824-5.84 24.891-13.37 31.937-22.767 6.409-8.546 10.747-18.311 13.589-28.734 5.956 18.173 10.434 36.841 13.069 55.786.905 6.51 1.591 13.05 2.041 19.6.111 1.62.208 3.24.29 4.86.076 1.5.138 2.99.201 4.49.158 3.73.297 7.46.418 11.2.421 12.98.619 25.98.561 38.98a930.893 930.893 0 0 1-1.013 39.85 851.57 851.57 0 0 1-2.472 36.11c-.896 9.96-1.972 19.9-3.207 29.82-.602 4.84-1.242 9.68-1.909 14.51-.607 4.4-1.239 8.79-1.876 13.18-.581 3.98-1.165 7.96-1.743 11.94-.898 6.21-1.778 12.43-2.489 18.67a247.24 247.24 0 0 0-.482 4.6c-.143 1.5-.273 2.99-.407 4.49-.483 5.44-.951 10.88-1.43 16.33-.425 4.79-.86 9.59-1.325 14.39-.546 5.63-1.133 11.25-1.767 16.88a1105.025 1105.025 0 0 1-4.841 37.04 1512.14 1512.14 0 0 1-5.144 32.34c-1.521 8.97-3.109 17.93-4.748 26.88-1.048 5.73-2.117 11.44-3.205 17.16-.431 2.26-.864 4.53-1.301 6.8-.162.84-.329 1.68-.488 2.53l-.082.46c-.306 1.88-.477 3.78-.598 5.67-.143 2.24-.215 4.49-.254 6.74l-.001.05c-13.185-6.16-30.945-10.09-53.905-10.09-26.789 0-43.613 9.44-54.088 20.2Z"/>

        <path id="UA-leg-lower-right" d="M505.822 1826.79c.14-.53.275-1.06.405-1.6.948-3.89 1.642-7.84 2.143-11.81.464-3.67.766-7.36.929-11.05.266-6.05.164-12.12-.26-18.16a173.793 173.793 0 0 0-3.983-26.7c-.261-1.14-.537-2.27-.814-3.41-.401-1.65-.807-3.29-1.212-4.94-1.46-5.91-2.925-11.82-4.383-17.73-1.63-6.63-3.253-13.25-4.854-19.89a2771.29 2771.29 0 0 1-8.603-36.61c-2.97-13.05-5.831-26.13-8.505-39.26-1.362-6.68-2.674-13.38-3.915-20.09a761.831 761.831 0 0 1-3.025-17.38 486.057 486.057 0 0 1-2.425-16.7c-.536-4.25-1.002-8.51-1.344-12.78-.15-1.88-.275-3.76-.367-5.64-.191-3.92-.263-7.84-.278-11.76-.018-4.67.049-9.35.16-14.02.121-5.11.295-10.21.498-15.32.219-5.49.471-10.97.737-16.46 12.954 7.08 31.33 12.5 57.032 11.89 29.481-.7 46.905-8.11 57.202-16.55.423 6.53.913 13.06 1.417 19.59.432 5.55.873 11.1 1.303 16.66.677 8.82 1.323 17.64 1.83 26.48.811 14.13 1.274 28.29.998 42.44-.032 1.68-.071 3.36-.134 5.04-.055 1.48-.127 2.95-.204 4.43-.118 2.28-.251 4.56-.389 6.83-.338 5.59-.71 11.17-1.091 16.75-.512 7.5-1.046 14.99-1.589 22.48-.701 9.65-1.418 19.3-2.146 28.95a15069.6 15069.6 0 0 1-6.265 80.12c-.235 2.88-.472 5.77-.712 8.65-.21 2.53-.421 5.05-.643 7.58l-.202 2.24-.059.74c-.219 3-.258 6.01-.201 9.03.058 3.11.216 6.23.43 9.34.249 3.63.571 7.25.935 10.87-23.816 13.95-49.09 12.59-68.416 7.75Z"/>

        <path id="UA-leg-upper-right" d="M469.401 1433.74c-.016-.93-.039-1.86-.07-2.79-.057-1.72-.142-3.44-.279-5.16-.127-1.59-.299-3.19-.582-4.76-.159-.85-.325-1.69-.488-2.53l-.873-4.56c-3.38-17.72-6.611-35.48-9.553-53.28-2.443-14.78-4.692-29.6-6.631-44.46a1051.82 1051.82 0 0 1-3.651-31.78c-1.06-10.64-1.956-21.3-2.893-31.95-.173-1.94-.345-3.88-.524-5.83-.574-6.08-1.373-12.14-2.222-18.19-.477-3.39-.971-6.78-1.466-10.16-.48-3.28-.96-6.56-1.436-9.84a1411.788 1411.788 0 0 1-2.465-17.73c-.668-5.07-1.3-10.14-1.889-15.22a857.884 857.884 0 0 1-3.046-31.21c-2.083-26.37-2.895-52.82-2.688-79.26.077-9.76.292-19.52.633-29.27.098-2.81.206-5.62.324-8.43.098-2.31.199-4.62.336-6.92.175-2.94.399-5.88.669-8.82a293.318 293.318 0 0 1 3.839-27.335c2.759-14.665 6.576-29.122 11.291-43.278 4.138 11.668 9.897 22.657 17.77 32.253 6.638 8.09 15.915 14.554 27.21 19.668.643 79.332 46.972 143.842 104.818 147.012.015 2.98-.003 5.96-.035 8.93-.04 3.62-.098 7.24-.167 10.86-.16 8.51-.371 17.02-.603 25.53-.329 12.09-.703 24.18-1.106 36.27-.376 11.26-.777 22.53-1.204 33.79-.355 9.35-.727 18.7-1.125 28.04-.301 7.05-.615 14.09-.955 21.14-.273 5.66-.561 11.32-.891 16.98-.127 2.17-.261 4.34-.408 6.51a285.21 285.21 0 0 1-.375 4.96 218.68 218.68 0 0 1-.7 6.82c-.967 8.19-2.371 16.33-4.006 24.41a598.34 598.34 0 0 1-2.223 10.47c-.776 3.52-1.571 7.04-2.351 10.56-.213.97-.426 1.94-.637 2.92-.625 2.91-1.234 5.83-1.749 8.77a97.173 97.173 0 0 0-.591 3.77c-.121.9-.228 1.8-.305 2.7a72.59 72.59 0 0 0-.23 4.75c-.037 1.8-.032 3.6-.006 5.4.068 4.64.271 9.29.514 13.92.282 5.4.626 10.8.986 16.19-10.977-10.57-28.111-19.74-54.514-19.74-22.698 0-40.315 3.84-53.453 9.88Z"/>
        
        <a xlink:href="#foot-detail-modal" >
            <path id="UA-foot-left" d="M625.937 1817.27c23.486 15.08 48.701 14.64 68.424 10.2.153.56.311 1.12.476 1.67.165.56.335 1.12.5 1.68.116.4.232.8.346 1.2.31 1.11.609 2.23.885 3.35.633 2.56 1.16 5.16 1.508 7.78.196 1.46.335 2.94.432 4.42.095 1.46.152 2.92.229 4.38.022.39.045.77.071 1.15.085 1.21.198 2.42.365 3.62.187 1.35.435 2.69.73 4.02.24 1.09.507 2.16.832 3.23a34.23 34.23 0 0 0 1.5 3.97c.998 2.22 2.225 4.33 3.585 6.34 1.573 2.34 3.318 4.55 5.089 6.73 1.224 1.5 2.459 2.99 3.683 4.5.897 1.1 1.788 2.21 2.661 3.33 1.217 1.57 2.395 3.17 3.517 4.81 1.031 1.5 2.016 3.03 2.977 4.58 1.006 1.62 1.984 3.26 2.981 4.88.213.34.426.69.64 1.03 1.482 2.35 3.044 4.69 5.01 6.66.491.5 1.006.97 1.546 1.41.309.25.628.48.949.72l.362.28c.424.34.837.69 1.235 1.06.701.65 1.359 1.35 1.975 2.09a26.042 26.042 0 0 1 3.285 4.96c.304.6.584 1.21.837 1.83a22.192 22.192 0 0 1 .884 2.63c.623 2.35.819 4.86.278 7.25-.095.42-.213.84-.354 1.25a10.936 10.936 0 0 1-2.228 3.8c-.797.9-1.731 1.65-2.747 2.28l-.714.32c-.258.04-.514.1-.773.13-.119.01-.24.01-.36.01-.269.01-.539.02-.809.02-.827.02-1.654.04-2.481.05-2.783.04-5.566.06-8.349.08-8.015.05-16.03.05-24.045.05-10.937 0-21.875-.02-32.812-.06-13.083-.04-26.167-.09-39.25-.15l-.928-.15-.835-.43a3.44 3.44 0 0 1-.24-.19c-.885-.7-1.702-1.49-2.465-2.33-.778-.85-1.5-1.76-2.164-2.7a29.722 29.722 0 0 1-3.235-5.97 31.191 31.191 0 0 1-1.665-5.69c-.51-2.64-.686-5.35-.575-8.04.126-3.03.613-6.05 1.368-8.99.192-.75.403-1.5.629-2.24.194-.64.402-1.27.6-1.91.132-.43.261-.86.387-1.29a78.424 78.424 0 0 0 1.619-6.54c.578-2.87.98-5.78 1.2-8.7.18-2.39.239-4.78.211-7.17a153.89 153.89 0 0 0-.22-6.16c-.113-2.05-.241-4.11-.356-6.17-.105-2-.197-4-.233-6-.04-2.27-.012-4.53.11-6.79.057-1.05.134-2.1.232-3.15.085-.91.186-1.82.285-2.72.205-1.88.421-3.76.639-5.64.465-3.98.939-7.96 1.403-11.93.485-4.21.956-8.42 1.363-12.64Z"/>
        </a>
        
        <a xlink:href="#foot-detail-modal" >
            <path id="UA-foot-right" d="M574.239 1819.04c.432 4.3.924 8.6 1.425 12.9.388 3.3.78 6.6 1.166 9.9.218 1.88.434 3.76.639 5.64.099.9.2 1.81.285 2.72.098 1.05.175 2.1.232 3.15.122 2.26.15 4.52.109 6.79-.036 2-.127 4-.233 6-.1 1.8-.21 3.6-.313 5.41-.14 2.56-.259 5.13-.268 7.69a78.19 78.19 0 0 0 .45 8.91 73.506 73.506 0 0 0 1.897 10.24c.306 1.18.639 2.35.996 3.52.192.63.395 1.25.592 1.88.087.28.173.57.257.85.368 1.27.696 2.55.965 3.85.562 2.71.885 5.47.894 8.23.01 2.68-.275 5.37-.895 7.98-.876 3.68-2.43 7.21-4.611 10.31a27.027 27.027 0 0 1-2.684 3.25c-.64.66-1.315 1.29-2.041 1.86l-.082.06-.062.05-.835.43-.928.15c-4.946.02-9.892.05-14.838.07-19.075.07-38.149.14-57.224.14-6.871 0-13.743 0-20.614-.03-2.666-.02-5.333-.03-7.999-.06-2.357-.02-4.715-.05-7.071-.11l-.36-.01c-.258-.04-.523-.05-.773-.13-.404-.12-.737-.33-1.079-.55-.485-.32-.949-.68-1.386-1.06a11.413 11.413 0 0 1-2.419-2.98 11.716 11.716 0 0 1-1.325-3.94c-.347-2.29-.066-4.64.579-6.86.117-.4.247-.8.388-1.2.675-1.89 1.604-3.69 2.714-5.37a25.286 25.286 0 0 1 3.744-4.45c.397-.37.809-.72 1.235-1.06.264-.21.536-.4.805-.61.128-.09.255-.19.382-.29.5-.41.981-.83 1.441-1.28 1.255-1.22 2.349-2.61 3.356-4.04 1.047-1.49 2.007-3.03 2.956-4.59.686-1.12 1.369-2.25 2.058-3.38.848-1.37 1.707-2.74 2.6-4.09.917-1.38 1.87-2.74 2.859-4.08 2.389-3.22 4.971-6.29 7.51-9.4.356-.44.711-.87 1.065-1.31 1.689-2.11 3.341-4.25 4.819-6.51 1.569-2.41 2.937-4.95 3.953-7.63.35-.93.66-1.87.927-2.82.227-.81.42-1.62.601-2.44.417-1.88.733-3.77.93-5.68.215-2.08.284-4.16.392-6.24a74.128 74.128 0 0 1 .351-4.43c.182-1.62.431-3.23.738-4.83.435-2.27.981-4.53 1.593-6.76.336-1.22.698-2.44 1.062-3.66.084-.28.166-.57.248-.85.14-.5.277-1 .41-1.5 19.327 4.84 44.601 6.2 68.417-7.75Z"/>
        </a>
    </g>
            

    
    <path class="body-outline" d="M692.307 275.445c10.276.261 11.918 10.953 11.419 19.187-.716 11.8-.586 37.633-18.217 38.03l-.009.001c-.065.288-.065.287-.133.575-.087.359-.087.359-.176.717-3.722 14.406-11.415 28.299-18.516 41.207-.108.195-.217.39-.328.583-4.464 7.731-10.389 15.095-15.845 22.015l-.209.264c-.073 7.629 2.923 17.75 4.462 24.154 2.794 11.624 5.615 25.464 13.751 34.902 8.566 9.936 25.013 11.744 37.123 13.885.47.082.941.162 1.411.239 6.286 1.018 13.403 1.66 19.828 2.329.812.086 1.624.172 2.437.261 13.137 1.453 26.927 3.463 38.954 9.295 57.794 28.031 65.253 99.157 72.899 155.248.241 1.758.483 3.515.729 5.272 3.824 27.14 10.767 53.322 17.831 79.791l1.043 3.924c4.612 17.475 9.485 35.649 11.434 53.765.246.572.49 1.145.732 1.719 13.938 33.051 26.93 68.125 30.53 104.03l.18 1.743c1.933 18.13 5.42 36.009 8.77 53.917l.709 3.818c4.295 23.287 8.009 46.641 11.234 70.104l.985.18c21.325 4.03 35.906 17.81 48.514 34.61 1.297 1.73 2.589 3.47 3.889 5.2 4.074 5.4 7.915 10.33 12.744 14.81.693.64 1.388 1.28 2.084 1.91 3.421 3.11 4.981 4.46 8.714 7.77l1.12 1c4.69 4.22 11.79 10.45 4.75 16.03-.9.71-3.18 1.81-4.03 2.2-.11.05-.11.05-.23.1-7.68 3.04-20.21-5.7-25.593-9.17-5.3-3.41-10.587-6.85-15.719-10.5 0 0 .031 2.06.207 3.07a915.304 915.304 0 0 1 3.786 23.63c.772 5.27 1.464 10.56 2.09 15.85.495 4.2.915 8.4 1.272 12.6.28 3.31.49 6.62.641 9.93.117 2.59.163 5.19.164 7.78.003 6.75-.546 29.36-13.497 24.88a18.598 18.598 0 0 1-4.173-2.04l-.081-.05a63.035 63.035 0 0 1-.258 1.85c-1.386 8.77-6.78 20.01-17.506 15.04-1.558-.73-2.944-1.76-4.192-2.93a8.39 8.39 0 0 1-.262.35c-8.916 11.29-20.291-2.84-22.882-11.77-.114.05-.229.11-.345.16-15.359 7.06-19.769-16.72-21.815-26.23-.601-2.79-1.178-5.59-1.718-8.4-.741-3.85-1.444-7.71-2.126-11.57-.593-3.36-1.176-6.73-1.768-10.1-1.015-5.72-2.323-11.28-3.719-16.91-.147-.6-.293-1.2-.439-1.79-5.546-22.97-8.236-46.52-6.579-70.16l.018-.25c-4.93-12.82-9.877-25.63-14.815-38.441-2.673-6.941-5.345-13.882-8.014-20.825-17.324-45.105-37.082-90.495-50.687-137.006-14.923-51.014-24.289-104.239-35.237-156.114-.144 1.298-.292 2.595-.441 3.893-3.611 31.111-8.557 62.235-16.313 92.608l-.097.376c-1.869 26.093-3.268 52.222-4.646 78.344-.703 13.307-2.878 28.123-1.39 41.476.003.022.009.04.015.061.452 1.399 1.154 2.806 1.742 4.126.736 1.647 1.474 3.293 2.207 4.941 13.086 29.549 22.031 60.155 27.145 92.107 4.063 25.384 3.656 53.984 3.512 79.124-.257 44.79-4.054 89.2-10.478 133.48-.58 3.98-1.165 7.96-1.743 11.94-1.345 9.3-2.543 18.44-3.378 27.75-.483 5.45-.951 10.89-1.43 16.33-4.596 51.81-13.218 102.94-22.818 154.02l-.082.47c-4.093 25.02.255 52.68 1.511 77.61l.269 5.42c1.03 21.33 2.863 43.44.744 64.79-6.098 61.43-22.714 121.81-37.436 181.57-.375 1.53-.749 3.06-1.121 4.59-5.873 24.48-7.245 50.99-.079 75.34.117.4.232.81.346 1.21 1.844 6.59 2.694 13.13 3.055 19.93.022.39.045.77.07 1.15.773 10.94 5.201 19.4 12.102 27.91 1.223 1.5 2.458 2.99 3.683 4.49 4.534 5.59 8.376 11.49 12.136 17.61.212.34.425.68.64 1.03 2.232 3.54 4.293 6.42 7.504 8.79l.363.28c7.587 6.07 13.604 20.68 3.165 27.15l-.715.32c-11.283 1.84-26.525.34-36.816.34-24.021-.01-48.042-.1-72.062-.21l-.928-.15-.836-.44-.239-.18c-11.447-9.13-11.498-25.07-7.507-37.87.131-.43.26-.86.387-1.29 2.726-9.38 3.312-18.87 2.81-28.57-.113-2.06-.241-4.12-.356-6.18-.435-8.23.088-16.14 1.032-24.29.465-3.98.94-7.96 1.403-11.94 1.511-13.09 3.364-27.14 2.324-40.48-.106-1.27-.226-2.54-.337-3.8-3.144-36.61-5.886-73.27-8.618-109.9-1.785-23.94-5.105-49.3-4.508-73.61 1.007-41.03 1.01-40.81 4.188-81.7a1254.437 1254.437 0 0 0 2.21-33.64l.179-3.26c.344-6.02.729-12.03 1.131-18.04.465-6.91.948-13.81 1.413-20.71.905-13.57 2.686-27.8 1.342-41.42-.921-9.32-3.362-18.49-5.389-27.61-.248-1.12-.494-2.25-.739-3.37-8.367-38.6-8.73-77.72-10.189-117.07-1.459-39.36-3.863-78.99-3.079-118.39l.005-.22c-.666-.01-1.333-.03-1.999-.04-.785-.02-1.569-.04-2.354-.07H600c-.647.02-1.295.04-1.943.05-.71.02-1.42.04-2.13.05 0 0-.417.85-.41 1.3.007.53.012 1.06.017 1.59.225 38.57-1.663 77.2-3.114 115.73-1.047 27.8-.29 56.82-4.453 84.45-2.326 15.43-5.22 30.27-8.58 45.44-.214.97-.427 1.94-.638 2.91-5.365 25.03-1.722 50.42-.001 75.74.147 2.19.293 4.37.436 6.55.481 7.41.891 14.82 1.287 22.24.064 1.17.131 2.34.199 3.51.48 8.1 1.083 16.19 1.708 24.28.431 5.55.872 11.1 1.302 16.65 6.465 84.16-3.045 168.15-10.546 252-.021.24-.041.49-.06.73-1.009 13.87 1.007 28.57 2.589 42.14.388 3.3.781 6.6 1.167 9.91.946 8.15 1.467 16.06 1.032 24.29-.1 1.81-.211 3.61-.314 5.42-.603 11.06.338 21.63 3.667 32.24.088.28.173.56.257.85 3.483 12.02 2.251 27.22-8.372 35.48l-.082.06-.061.04-.836.44-.928.15-14.838.06c-30.852.12-62.002.8-92.908-.05l-.359-.01c-3.666-.6-6.742-5.19-6.983-8.66-.536-7.77 3.323-14.94 9.466-19.55l.382-.3c3.288-2.65 5.58-6.35 7.753-9.9.686-1.13 1.369-2.25 2.058-3.38 3.878-6.3 8.255-11.81 12.969-17.57l1.065-1.32c8.001-9.98 10.977-18.84 11.621-31.32.023-.41.048-.83.074-1.25.428-6.29 1.862-12.39 3.671-18.42.083-.29.166-.57.247-.86 7.284-25.89 3.951-53.46-2.381-79.16-1.46-5.91-2.925-11.82-4.383-17.73-13.153-53.45-27.564-107.72-32.671-162.71-2.131-22.96-.079-46.65 1.065-69.58.316-6.29.64-12.57.955-18.86.939-18.91 3.876-40.22.475-59.22-.447-2.36-.91-4.72-1.362-7.08-10.22-53.61-17.947-107.14-22.728-161.47-.172-1.95-.345-3.89-.524-5.83-1.205-12.78-3.28-25.49-5.124-38.19-.251-1.74-.5-3.48-.748-5.22-6.485-45.87-9.439-91.87-9.34-138.21.058-26.91.78-54.24 5.801-80.768 5.54-29.268 15.55-56.964 27.557-84.085.191-.433.38-.867.567-1.301 1.617-3.809.724-8.41.604-12.368-.204-6.733-.677-17.943-.991-24.105-1.444-28.346-2.788-53.628-4.755-81.968l-.121-1.719c-.097-1.348-.354-2.375-.685-3.686-.215-.858-.428-1.716-.64-2.575-7.353-30.062-12.122-60.766-15.569-91.502l-.056-.498c-.875 4.15-1.753 8.299-2.632 12.449-.892 4.201-1.786 8.403-2.681 12.604-9.341 43.76-17.08 88.851-30.139 131.778-7.552 24.822-17.247 49.11-26.467 73.341-15.024 39.487-30.166 78.93-45.35 118.353 0 0-1.495 3.61-1.373 5.5.039.61.076 1.22.11 1.83 1.379 25.47-2.694 50.31-8.766 74.93-.157.64-.311 1.28-.462 1.92-.635 2.71-1.231 6.08-1.712 8.79-.592 3.37-1.175 6.74-1.768 10.1-.682 3.86-1.385 7.72-2.126 11.57-.54 2.81-1.117 5.61-1.718 8.4-2.053 9.54-6.659 33.73-22.134 26.08l-.026-.01c-.075.25-.151.51-.23.76-.081.26-.165.52-.251.78-2.985 8.78-14.325 20.99-22.595 9.98l-.068-.1c-.119.12-.238.23-.359.34l-.389.33a18.167 18.167 0 0 1-4.197 2.59c-11.143 4.98-15.957-8.83-17.006-17.19l-.005-.03c-.128.08-.258.17-.389.25-.156.1-.313.2-.471.29-16.223 9.67-17.031-17.41-16.874-26.16.049-2.77.151-5.54.319-8.3.213-3.52.484-7.03.823-10.54.431-4.45.922-8.88 1.487-13.31.711-5.57 1.486-11.13 2.341-16.68 1.066-6.92 2.213-13.84 3.421-20.74l.129-.74-1.93 1.38c-.677.47-1.354.95-2.033 1.42-8.93 6.2-20.807 15.78-32.146 17.39-4.881.69-16.006-3.13-12.548-10.14 2.708-5.48 8.663-9.5 13.105-13.44.486-.43.972-.87 1.458-1.3 8.357-7.49 15.092-15.92 21.841-24.91.398-.53.796-1.06 1.196-1.58 12.482-16.4 27.117-29.01 47.833-32.66l.075-.02c.224-1.62.449-3.25.676-4.87.238-1.7.479-3.4.721-5.1 3.742-26.118 8.33-52.061 13.182-77.986l.607-3.272c2.512-13.649 4.561-27.322 5.983-41.125l.109-1.005c3.979-34.968 16.97-69.474 30.751-101.68l.126-.293a157.13 157.13 0 0 1 .367-3.129c2.988-23.18 9.785-45.846 15.804-68.357l1.049-3.94c5.935-22.404 10.657-44.315 13.817-67.326.595-4.368 1.183-8.737 1.778-13.105 7.163-52.148 17.691-118.082 71.993-142.528 15.233-6.857 32.065-8.277 48.443-9.985.77-.081 1.54-.163 2.31-.247 3.708-.413 7.006-.82 10.652-1.446 1.44-.252 2.879-.508 4.318-.765 10.774-1.945 18.632-4.219 28.622-9.27 5.907-2.987 9.594-10.435 11.731-16.332 5.217-14.4 8.541-29.572 10.884-44.69l.051-.336-.522-1.185.016.024c-.237-.347-.472-.695-.707-1.043-.251-.375-.502-.749-.752-1.125-13.623-20.552-21.265-41.4-28.375-64.893l-.097-.32a24.116 24.116 0 0 1-.992.271c-6.449 1.553-12.401-1.154-14.368-7.657l-.438-1.503c-.894-3.015-1.832-6.016-2.75-9.023-.212-.698-.423-1.397-.632-2.095-2.687-9.046-8.966-28.716 4.904-32.487 2.093-.569 4.028-.545 6.137-.475l.103.004a242.93 242.93 0 0 1-.717-3.581c-2.198-11.509-4.24-23.885-2.866-35.644.283-2.341.56-4.684.848-7.025 2-16.03 7.06-30.457 18.682-42.165 8.199-8.261 19.545-13.629 30.148-18.002 33.333-13.748 75.197-14.975 104.537 9.395 6.296 5.229 10.826 9.507 15.513 15.928 17.366 23.791 15.844 50.545 11.639 78.23l-.08.519a21.485 21.485 0 0 1 .874-.156 15.269 15.269 0 0 1 2.578-.18M501.935 1935.69l-.001-.06c.021-.42.065-.84.094-1.26.268-4.26.325-9.33-2.096-13.08-.955-1.48-2.591-2.07-4.293-2.06-3.272.02-6.383 1.94-7.681 4.99l-.046.09c-.034.05-.049.08-.076.12.363 3.18-.084 6.41-.352 9.58-.019.23-.037.47-.055.71-.022.32-.044.64-.061.96 4.856.01 9.712.01 14.567.01m209.856-11.26c-.122-.18-.19-.38-.282-.58-.046-.09-.093-.18-.142-.27-2.119-3.83-9.2-6.67-11.941-1.88-2.307 4.03-2.107 9.41-1.738 13.83l.005.1-.001.06c4.856 0 9.711 0 14.567-.01-.015-.21-.024-.41-.037-.62-.094-1.35-.227-2.69-.344-4.04l-.063-.77c-.144-1.94-.245-3.89-.024-5.82m-193.999 11.24c.365-.49.968-.67 1.549-.56l.011.01c.346-.27.658-.57.963-.88l.034-.04c.868-4.39 1.58-9.74-.772-13.84-1.129-1.97-3.637-2.72-5.769-2.62-3.533.17-7.581 1.32-9.402 4.69l-.053.1-.06.09a1.8 1.8 0 0 1-.282.3c1.321 4.07 1.271 8.55.926 12.76 4.285 0 8.57-.01 12.855-.01m177.824-12.75c-.243-.2-.31-.35-.483-.64a3.131 3.131 0 0 0-.145-.23c-2.016-2.96-5.688-4.35-9.169-4.31-2.348.03-4.728.67-5.935 2.89-2.124 3.91-1.462 9.05-.681 13.19l.039.2s.209.36.357.5c.192.19.388.37.595.53l.057.05.024.02.088-.02c.416-.06.788.01 1.146.25.126.08.326.31.326.31 4.285.01 8.57.02 12.856.02-.02-.23-.039-.47-.057-.71-.272-3.99-.267-8.2.982-12.05m29.818 12.71s.01-.14.018-.21c.05-.25.107-.51.156-.76.754-4.01 1.366-9.39-1.066-13.02-1.963-2.93-7.638-2.54-9.141.61-1.548 3.23-.536 8.35-.268 11.51a92.08 92.08 0 0 1 .116 1.64s.01.18.011.27c3.391-.01 6.783-.02 10.174-.04m-241.067.04c-.026-1.55.279-3.59.393-4.9.031-.38.061-.75.089-1.13.177-2.58.427-5.68-.96-8.02-1.777-3-7.481-2.37-9.081.44-2.158 3.79-1.528 9.05-.688 13.1.012.05.023.11.036.16.019.11.037.31.037.31 3.391.02 6.783.03 10.174.04m54.26-.06c2.564-5.08 3.065-13.97-1.786-18.04-1.288-1.08-3.113-1.15-4.697-1.09-3.375.12-7.384 1.69-8.234 5.31l-.036.11c-.077.18-.146.32-.271.46 1.06 4.34.403 8.98-.488 13.28l-.01.01c5.174-.01 10.348-.02 15.522-.04m137.397-13.25c-.221-.26-.287-.54-.374-.84a3.342 3.342 0 0 0-.081-.25c-1.271-3.44-4.745-4.43-8.086-4.79-1.779-.19-3.971.18-5.245 1.54-4.129 4.41-3.794 12.51-1.239 17.59 5.174.01 10.348.03 15.522.04l-.01-.01c-.071-.35-.144-.7-.213-1.05-.768-3.96-1.246-8.25-.274-12.23M644.306 399.552c-.204.185-.409.368-.616.55.1.25.106.424.097.708-.043.409-.089.817-.136 1.225-1.439 12.264-3.583 24.536-7.876 36.15-3.75 10.148-10.648 19.475-16.22 28.613-.379.624-.756 1.248-1.131 1.873-.777 1.304-.649 1.113-1.337 2.289-.179.302-.358.603-.54.904-.8 1.32-1.64 2.615-2.464 3.92-.191.305-.38.61-.566.918-.798 1.336-1.443 2.582-1.75 4.071-.083.422-.162.846-.246 1.268-2.431 11.775-20.829 8.998-23.137-1.536-.03-.128-.03-.127-.062-.255-.431-1.613-1.32-3.064-2.196-4.466-.521-.825-1.049-1.645-1.569-2.47-1.285-2.052-1.179-1.94-2.442-4.086-.227-.384-.457-.767-.686-1.15-1.348-2.231-2.716-4.45-4.074-6.675-.547-.898-1.092-1.797-1.636-2.696-10.591-17.606-19.239-36.121-19.306-57.399a77.593 77.593 0 0 1-.857-.773c-3.008 19.945-6.144 49.464-23.08 63.807-6.591 5.581-15.295 8.136-23.611 9.972 2.67.572 5.473 1.131 8.026 2.144.431.177.856.37 1.285.55 6.448 2.677 12.275 4.863 19.137 3.87.383-.055.765-.107 1.148-.158 7.552-.967 14.135-.251 21.91.788.798.106 5.97.938 7.743 1.857 1.657.86.41 3.058-1.141 2.747l-.951-.254c-10.238-2.65-20.435-3.104-30.815-1.639a53.62 53.62 0 0 1-.805.103c-6.242.688-13.043-2.796-18.632-5.081-.127-.05-.254-.098-.381-.145-4.565-1.628-9.508-2.381-14.258-3.244a261.684 261.684 0 0 1-20.233 2.916c-2.38.246-4.761.484-7.14.732-13.698 1.444-27.814 3.394-40.373 9.433-54.865 26.386-61.454 97.752-68.598 150.217-.194 1.415-.389 2.829-.586 4.244-3.874 27.746-10.9 54.495-18.121 81.551-.348 1.304-.694 2.609-1.04 3.913-4.477 16.962-9.18 34.48-11.175 52.029.863 6.443 1.013 17.839 5.733 23.316 0 0-1.163 2.762-1.989 2.213-4.551-3.023-5.117-14.762-5.85-19.268-13.239 31.86-25.791 65.72-29.246 100.293l-.182 1.77c-1.957 18.287-5.46 36.323-8.84 54.389l-.708 3.807c-4.388 23.792-8.16 47.683-11.437 71.653 6.599.66 13.268 2.94 18.968 6.34 0 0 1.087 1.37.656 1.87-.635.73-1.117 1.2-2.063.78-.219-.12-.432-.25-.65-.38-5.813-3.26-12.541-5.51-19.227-5.76l-.278.1c-.291.04-.583.09-.874.13-.286.05-.571.09-.856.14-20.41 3.47-34.068 16.54-46.07 32.53-1.3 1.73-2.594 3.47-3.896 5.2-7.598 10.08-15.149 17.21-24.347 25.37l-1.105.99c-1.849 1.66-4.782 3.77-5.881 6.17.051.05.105.1.159.15.99.86 2.296 1.48 3.49 1.98.041.02.084.03.126.04 3.748.73 9.049-2.57 12.087-4.19 10.247-5.49 19.827-12.17 29.156-19.07l.545-.41 1.075-.5 1.185-.05 1.112.41.864.82.481 1.08.023 1.19a1216.822 1216.822 0 0 0-1.447 8.07 1050.34 1050.34 0 0 0-3.051 18.35c-.777 4.96-1.493 9.93-2.163 14.9-.539 4-1.021 8.01-1.462 12.02-.352 3.2-.65 6.42-.918 9.63-.195 2.34-.379 4.67-.472 7.01-.143 3.65-.223 7.3-.235 10.95-.01 3.33-.615 15.74 4.425 17.77 2.282.91 6.741-3.62 7.799-4.6l.957-.6c.279-.05.555-.14.834-.18.813-23.18 2.392-46.57 6.429-69.43-.976-.25-7.06-1.48-9.14-2.76-1.269-.77-.874-2.69.63-2.83h.188c.186.03.186.03.367.09l.599.21c20.286 6.89 41.806 6.68 62.96 6.04 0 0 1.796.47 1.732 1.16-.097 1.05-.334 1.73-1.415 1.83-.632.02-1.265.04-1.897.05-2.717.07-5.435.12-8.153.15-.016.03-.035.06-.051.1-.023.09-.044.17-.064.26-5.119 22.35-8.176 45.98-9.801 68.9l.649.42c.108.11.217.22.327.32.104.1.209.2.316.29 9.269 8.13 13.146-10.77 14.373-15.98.444-1.89.872-3.78 1.275-5.68a394.02 394.02 0 0 0 1.484-7.31c.617-3.2 1.203-6.41 1.78-9.62.715-3.98 1.394-7.97 2.095-11.95.17-.96.34-1.91.513-2.86.898-4.88 2.1-9.64 3.29-14.45l.433-1.77c5.402-22.37 8.039-45.29 6.425-68.31l-.033-.45-.033-.46.192-1.3c5.011-13.02 10.038-26.04 15.057-39.068 2.673-6.939 5.344-13.879 8.012-20.82 17.328-45.103 37.1-90.407 50.644-136.924 16.6-57.016 26.924-116.412 39.027-174.422l.485-1.115.888-.832.554-.199-.004-.078c-.002-.713 0-1.426.002-2.14.06-12.612.414-25.234.949-37.835.017-.383.037-.765.059-1.147.706-11.587 3.926-25.99 12.91-34.262l.16-.128c.312-.187.403-.218.764-.266l.205.002c1.67.241 1.581 1.918.664 2.83-.103.104-.205.21-.306.316-8.071 8.679-10.984 21.592-11.471 33.068-.061 1.483-.119 2.966-.176 4.449-.377 10.152-.766 24.184-.761 34.929v.176c-.014.219-.026.344-.092.523l.759.919s.42 2.176.513 3.277c.087.996.175 1.99.266 2.985 3.383 36.699 8.804 73.535 17.89 109.284l.162.633.163.634s1.05 14.626 1.518 21.942c.397 6.212.77 12.425 1.132 18.639 1.156 19.886 2.245 39.777 3.075 59.68.361 8.639 2.265 18.098-1.319 26.24-.903 2.04-1.821 4.074-2.728 6.113-43.604 98.457-33.067 209.557-17.982 313.357.215 1.48.429 2.97.641 4.46.937 6.66 1.833 13.32 2.45 20.02.164 1.8.325 3.6.485 5.4.426 4.84.844 9.69 1.27 14.53.166 1.88.334 3.75.503 5.62 4.55 49.7 12.971 98.83 22.241 147.85l.098.56c4.159 25.43-.163 53.57-1.437 78.9l-.268 5.42c-1.018 21.04-2.874 42.93-.758 63.99 6.143 61.13 22.631 121.16 37.283 180.64.377 1.53.754 3.07 1.127 4.61 6.121 25.51 7.469 53.07.006 78.44-.111.38-.221.76-.33 1.15-1.84 6.58-2.49 12.04-2.839 18.63l-.048.82c-.335 5.13-1.225 10.31-3.066 15.12 7.058-5.43 15.998-10.55 25.212-10.8h.609c.537.01 1.072.03 1.605.1 0 0 1.344 1.4 1.21 2.24-.11.69-1.226.78-1.76.72-.129-.02-.259-.03-.388-.04-11.091-.66-21.931 7.36-29.683 14.36-2.992 5.08-6.778 9.47-10.514 14.04-.37.45-.739.9-1.108 1.36-4.09 5.09-7.528 10.5-10.942 16.05l-.669 1.08c-2.514 3.99-5.342 7.63-9.107 10.49l-.245.2c-3.8 3.1-9.838 12.47-4.218 16.81.544.02 1.089.03 1.634.04 1.791.03 3.582.05 5.373.07l-.044-.22c-1.305-6.76-1.422-18.35 7.997-18.64.17-.01.34-.01.51-.01 2.3.03 4.613.66 6.171 2.42.223-.62.445-1.24.67-1.86.086-.24.173-.47.26-.71.837-2.22 1.626-4.05 2.922-6.02l.045-.06c.283-.36.704-.58 1.163-.61h.159c1.059.11 1.711 1.29 1.18 2.26-.102.16-.211.32-.314.49-1.087 1.74-1.79 3.47-2.512 5.44 1.81-1.19 3.886-1.76 6.024-1.85.218-.01.434-.02.652-.01 1.901.03 3.674.64 5.093 1.91 1.7-3.56 3.531-7.06 5.278-10.59a1.54 1.54 0 0 1 1.219-.83c.085-.01.085-.01.171-.01 1.052.06 1.707 1.14 1.335 2.09-1.359 2.96-2.836 5.87-4.307 8.78 2.518-1.92 5.642-2.78 8.774-2.83.21-.01.21-.01.42 0 2.643.04 5.256.77 7.111 2.74.733-2.89 3.125-13.87 7.014-14.27.056.01.112.02.168.02 1.21.18 1.743 1.73.835 2.6l-.018.02c-1.868 2.99-3.179 6.5-4.315 9.81 2.247-1.56 4.979-2.14 7.67-2.2h.713c2.812.06 5.365 1.14 7.148 3.33.906-4.9 2.989-9.68 5.452-14l.063-.11c.265-.43.704-.7 1.202-.75h.196c1.017.1 1.68 1.2 1.244 2.16-.122.23-.254.46-.379.68-1.268 2.32-2.47 4.9-3.376 7.4 3.191-3.21 7.829-4.35 12.266-4.39h.339c14.809.09 20.917 17.64 10.116 27.71l2.621-.02c.131-.12.26-.24.388-.36 8.348-8.18 7.707-20.22 4.498-30.51-.112-.37-.223-.73-.333-1.1-2.984-10.11-3.67-20.37-3.123-30.85.112-2.06.241-4.12.356-6.18.28-5.31.366-10.61-.176-15.9l-.291-2.7c-.139-1.24-.281-2.48-.423-3.73-.499-4.29-1.013-8.59-1.514-12.89-1.69-14.68-3.422-29.52-2.108-44.3l.348-4.06c3.1-36.84 5.898-73.71 8.635-110.57 1.673-22.53 4.79-46.66 4.224-69.61-1.001-40.7-1.007-40.49-4.17-81.18a1266.051 1266.051 0 0 1-2.22-33.78c-.058-1.09-.118-2.16-.178-3.24-.342-6-.726-11.99-1.126-17.98-.465-6.91-.949-13.81-1.414-20.71-.92-13.81-2.788-28.47-1.332-42.33 1.007-9.6 3.423-19 5.508-28.4.246-1.11.491-2.23.734-3.34 10.032-46.28 9.364-94.26 10.973-141.35.665-19.47 1.44-43.97 1.867-63.95.201-9.37 1.559-22.17.115-32.21l.039-1.07c-6.057-1.43-8.189-4.44-9.86-9.84-.074-.23-.149-.47-.227-.7-.089-.26-.182-.51-.283-.77-.195-.48-1.596-3.82-1.685-4.04-4.909-11.72-9.831-23.43-14.752-35.15L560 1076.6c-.616-1.82 1.916-2.84 2.765-1.16 3.897 9.27 7.793 18.55 11.686 27.82 1.876 4.47 3.751 8.94 5.623 13.42.113.26 1.493 3.56 1.7 4.07.413 1.04.713 2.11 1.046 3.17.063.2.126.39.192.59 1.863 5.37 7.829 6.29 12.835 6.51 8.658.38 18.17.76 22.01-8.21.11-.26.11-.26.222-.51.292-.64.596-1.27.891-1.9.318-.69.634-1.38.949-2.08 6.089-13.42 15.072-28.43 18.253-43.01.005-.02.009-.05.012-.07.127-.72.701-1.26 1.432-1.35.071.01.142.01.214.01 3.536.62-1.818 10.42-2.29 11.54-5.269 12.53-10.593 25.06-16.378 37.35-.082.17-.164.35-.244.52l-.206.46c-.274.62-.533 1.26-.804 1.88-.681 1.56-1.741 3.98-3.359 4.79-1.943.97-5.943 2.66-5.943 2.66l.033.08.037 1.07-.033.27c-1.104 11.53-.065 23.7.221 35.22.604 24.3 1.086 40.47 1.943 64.91 1.788 51.03 2.62 100.04 13.665 149.9.216.98.431 1.97.644 2.95 5.495 25.59 1.883 51.5.122 77.41-.147 2.18-.292 4.35-.435 6.53-.479 7.39-.888 14.78-1.283 22.17-.065 1.18-.132 2.36-.2 3.54-.485 8.14-1.086 16.26-1.716 24.39-.431 5.55-.872 11.1-1.302 16.65-6.437 83.8 3.009 167.54 10.542 251.02.023.27.044.53.065.8.99 13.61-.833 27.88-2.376 41.25-.501 4.3-1.016 8.6-1.513 12.89-.247 2.14-.487 4.28-.715 6.43l-.085.85c-.456 5.02-.357 10.02-.091 15.05.1 1.8.211 3.6.313 5.4.655 11.92-.492 23.2-4.006 34.61-.075.25-.15.5-.223.75-2.704 9.55-2.13 20.87 5.558 28.11l.076.07s1.543.07 2.315.07c-10.392-9.69-5.06-27.34 9.601-27.7h.856c4.435.04 9.075 1.18 12.265 4.39-1-2.75-2.239-5.45-3.708-7.99l-.047-.09c-.423-.93.196-2.05 1.244-2.16h.197c1.522.15 2.613 3.3 2.948 4.07 1.677 3.87 3.039 6.81 3.768 10.79 1.783-2.19 4.337-3.27 7.149-3.33h.477c2.765.03 5.603.6 7.906 2.2-1.131-3.28-2.448-6.82-4.316-9.81l-.018-.02c-.971-.94-.288-2.47 1.006-2.62.099.01.198.02.297.04 3.787 1.06 5.946 11.22 6.715 14.23 1.856-1.97 4.466-2.7 7.11-2.74.21-.01.21-.01.42 0 3.109.05 6.207.89 8.716 2.79-1.426-2.88-2.792-5.79-4.213-8.67-.453-.98.253-2.1 1.299-2.16a1.569 1.569 0 0 1 1.351.76c1.862 3.51 3.552 7.12 5.291 10.69 1.423-1.28 3.205-1.9 5.119-1.93.144-.01.143 0 .286 0 2.255.04 4.489.62 6.39 1.86l-.292-.78c-.722-1.88-1.396-3.42-2.492-5.08l-.042-.07c-.512-.94.085-2.14 1.18-2.26h.16c.459.03.879.25 1.162.61.087.12.17.25.253.38 1.62 2.57 2.629 5.43 3.645 8.27 1.558-1.76 3.87-2.39 6.171-2.42h.253c9.654.15 9.633 11.93 8.209 18.87 2.077-.02 4.154-.04 6.231-.08.297-.01.594-.01.891-.02l.258-.01c.093-.07.184-.14.274-.22 5.541-4.82-1.376-14.26-5.326-17.23a110.6 110.6 0 0 1-.504-.39c-3.759-3.03-6.376-6.98-8.906-11.1-.759-1.24-1.511-2.49-2.272-3.73-3.75-6.09-7.934-11.33-12.505-16.92-.366-.45-.73-.9-1.093-1.35-2.205-2.75-4.215-5.39-6.016-8.33-7.28-6.74-20.017-16.83-31.116-15.06l-.151.02c-2.843.02-1.085-3.03 1.151-3.1h.566c9.591.11 18.748 5.49 26.06 11.22-2.462-6.24-3.089-12.87-3.431-19.51-.021-.39-.044-.78-.069-1.17-.397-5.85-1.755-11.51-3.436-17.11l-.267-.92c-7.569-26.92-4.256-55.52 2.328-82.25 1.459-5.91 2.924-11.82 4.382-17.73 13.132-53.36 27.261-107.48 32.563-162.35 2.773-28.7-.64-58.42-2.079-87.06-.13-2.62-.258-5.25-.383-7.87-.802-17.05-3.073-35.68.001-52.73.446-2.38.914-4.75 1.369-7.13 10.182-53.4 17.88-106.74 22.644-160.87.174-1.95.347-3.91.527-5.86.722-7.66 1.79-15.28 2.885-22.89.752-5.2 1.52-10.4 2.275-15.6 6.78-46.94 10.012-93.82 10.035-141.25.013-27.21-.747-54.87-5.841-81.688-5.426-28.563-15.296-55.59-27.015-82.062-.154-.349-.307-.699-.459-1.048-2.115-4.919-1.375-9.868-1.22-15.224.197-6.819.689-17.936.995-24.211 1.36-27.953 2.914-55.91 4.884-83.827l.119-1.658.087-.534c.217-.844.432-1.688.645-2.533 9.262-36.908 14.952-75.013 17.996-112.934l.014-.177.339-1.168.526-.636c-.172-.271-.213-.516-.232-.806.002-.706 0-1.413-.003-2.119-.059-12.572-.412-25.153-.945-37.715-.017-.368-.037-.736-.057-1.104-.665-10.904-3.637-24.148-11.842-32.131l-.081-.077-.025-.023-.14-.149c-.763-1.063.001-2.443 1.248-2.452l.203.027c5.029 1.37 9.553 14.17 10.54 17.601 5.309 18.455 4.111 39.018 4.102 57.971v.125l.922.331.888.832s1.747 7.154 2.503 10.757c8.386 39.907 13.497 63.605 22.099 102.55 4.639 21.003 8.932 42.315 15.121 62.939 7.45 24.824 17.23 49.104 26.441 73.302 15.025 39.473 30.156 78.905 45.335 118.321 0 0 1.966 4.99 1.79 7.59-.038.59-.075 1.18-.11 1.78-1.417 25.01 2.605 49.43 8.577 73.61.161.66.32 1.32.475 1.97.707 3.02 1.239 6.08 1.78 9.13.593 3.36 1.176 6.73 1.768 10.1.619 3.5 1.254 7 1.92 10.49a422.98 422.98 0 0 0 1.569 7.81c.401 1.9.827 3.8 1.27 5.69 1.281 5.5 5.511 25.58 15.128 15.84l.289-.19c-1.574-22.91-4.457-47.01-9.849-69.26l-.028-.11-.005-.02-.049-.1a562.64 562.64 0 0 1-9.186-.17l-.643-.02c-2.05-.07-2.138-2.95-.125-3.01l1.878.06c20.67.52 42.145.78 61.9-6.3l.181-.06c.186-.03.186-.03.374-.03.063 0 .125.01.188.02 1.489.33 1.637 2.3.27 2.89-.212.08-.425.15-.638.22-2.678.91-5.568 1.75-8.33 2.46.065.36.13.73.194 1.1 3.856 22.52 5.448 45.49 6.235 68.31 1.211-.05 1.997.66 2.831 1.41.15.14.301.27.451.41 12.226 10.62 11.268-10.91 11.106-18.43-.053-2.46-.137-4.91-.271-7.37-1.272-23.25-5.312-46.45-9.477-69.32l.023-1.19.481-1.08.864-.82 1.112-.41s3.099 1.18 4.419 2.15c.705.51 1.41 1.03 2.117 1.54 8.697 6.29 17.761 12.53 27.416 17.34 2.008 1.01 7.608 4.25 10.224 3.15.23-.1.46-.21.69-.32.92-.45 2.18-1.03 2.96-1.81-1.98-4.36-8.129-8.16-11.512-11.16a977 977 0 0 1-1.473-1.32c-8.665-7.76-15.639-16.45-22.637-25.77l-1.177-1.56c-12-15.77-26.054-27.78-46.233-30.72l-.307-.12c-6.951.19-14.163 2.48-20.112 6.1l-.109.06c-1.625.73-3.031-1.57-1.45-2.62.161-.1.323-.2.485-.29 5.698-3.23 12.403-5.54 18.895-6.11-.224-1.64-.449-3.28-.676-4.92-.239-1.71-.48-3.43-.722-5.14-3.783-26.595-8.439-53.009-13.379-79.405l-.61-3.284c-2.539-13.799-4.62-27.633-6.049-41.589-.052-.482-.105-.964-.16-1.446-3.921-33.363-16.198-65.958-29.081-96.743-.972 6.094-1.605 14.208-5.438 19.376-1.173 1.58-3.742.176-2.584-1.576.08-.101.164-.199.242-.301 4.719-6.408 4.817-17.104 5.767-24.612a30.767 30.767 0 0 0-.035-.281c-2.929-23.045-9.715-45.583-15.697-67.958-.352-1.316-.702-2.632-1.052-3.949-6.005-22.666-10.777-44.833-13.963-68.052-.595-4.368-1.183-8.737-1.778-13.105-6.78-49.362-16.357-114.27-68.037-137.661-14.8-6.699-31.157-8.037-47.08-9.697-.781-.083-1.561-.166-2.341-.251-3.723-.414-6.978-.817-10.649-1.434-1.247-.214-2.492-.438-3.737-.659l-2.232-.402c-5.023.921-10.432 1.725-15.191 3.746a98.57 98.57 0 0 1-.893.368c-6.795 2.733-12.811 4.839-20.039 3.792-.371-.052-.741-.103-1.111-.152-9.445-1.21-18.951-.053-28.123 2.417l-.193.039c-1.758.117-2.288-2.356-.587-2.936l.971-.259c10.617-2.749 21.217-3.229 31.985-1.709.245.033.49.065.736.094 5.607.618 12.075-2.733 17.056-4.836.116-.048.233-.094.35-.139 2.28-.856 4.955-1.436 7.299-1.946-6.891-1.497-12.358-3.134-19.082-6.658-17.544-9.193-21.21-34.022-25.101-50.857-.924-3.999-2.451-12.729-3.078-16.945l-.045-.316-.007-.092M543.11 1931.16c-.241 1.49-.64 3.03-1.195 4.44 1.76-.01 3.52-.01 5.28-.02-1.717-1.1-3.15-2.61-4.085-4.42m113.407 0c-.93 1.82-2.369 3.32-4.083 4.42 1.759 0 3.518.01 5.277.02a21.939 21.939 0 0 1-1.194-4.44m-99.484-20.37c-3.917.04-7.878 1.01-10.612 3.99-3.638 3.97-3.234 12.93.638 16.82 3.769 3.79 9.949 4.23 14.958 3.69l.077-.01c2.201-.55 4.138-2.48 5.27-4.35 2.801-4.63 3.54-10.59.745-15.43-2.078-3.6-6.612-4.64-10.464-4.71h-.612m85.258 0c-3.837.02-8.488.95-10.634 4.5-2.894 4.79-2.252 10.7.456 15.4 1.142 1.98 3.107 3.97 5.387 4.58 0 0 2.183.19 3.276.17 1.291-.02 2.588-.07 3.863-.28 4.058-.64 8.015-2.28 9.632-6.33 2.577-6.47 1.641-14.14-5.438-17-1.711-.7-3.965-.98-5.789-1.03-.251-.01-.502-.01-.753-.01m29.274-4.56h-.184l.121.01c.051 0 .113-.01.063-.01m-143.443.01.122-.01h-.083c-.099 0-.099 0-.196-.01.052.01.105.02.157.02m.234-.02h-.025l.076-.01.044-.01c-.032 0-.063.01-.095.02m142.861-.01.058.01h-.004a.316.316 0 0 0-.095-.02c-.014 0 .027.01.041.01m-.217-.06h.001H671m-23.514-461.24c2.26.33 2.725 5.08 3.207 6.74.613 2.14 1.214 4.28 1.826 6.42 1.336 4.64 2.82 9.24 4.346 13.83 1.877 5.64 4.703 14.58 10.446 17.67 2.677 1.44 7.71.5 10.441.43 1.764-.04 3.528-.09 5.293-.13l1.91-.03.466-.03c9.792-.73 13.743-15.79 16.75-22.82 1.114-2.61 2.217-5.22 3.305-7.84l.102-.25c.826-1.68 3.404-.7 2.772 1.15-.375.91-.754 1.81-1.133 2.72-3.085 7.34-5.852 15.96-10.375 22.64-.176.25-.356.49-.536.74-2.934 3.97-6.504 6.59-11.539 6.69l-1.656.03-5.882.15-1.753.03c-2.586.04-7.048.51-9.69-.88-3.87-2.04-6.227-6.41-8.03-10.18-4.376-9.17-6.968-19.07-9.743-28.8-.193-.67-.389-1.35-.587-2.03-.371-1.25-.747-2.84-1.386-4.05l-.078-.18c-.3-.98.353-1.91 1.336-2.02h.188m-94.969.02c1.049.25 1.49 1.34 1.029 2.26-.031.06-.06.12-.088.19-1.565 3.65-2.377 7.71-3.466 11.52-.174.6-.349 1.21-.525 1.81-3 10.25-6.037 26.38-16.55 31.84-4.104 2.13-12.194.42-16.401.32-.648-.01-1.296-.02-1.944-.04-5.279-.2-8.739-3.19-11.717-7.32-.074-.11-.073-.11-.145-.21-4.897-7.49-7.932-16.82-11.33-25l-.102-.25c-.62-1.8 1.932-2.86 2.771-1.15.374.91.75 1.81 1.128 2.71 2.977 7.08 5.623 15.77 10.122 22.16.182.25.366.5.551.76 2.331 3.12 5.036 5.23 9.066 5.31l1.667.03 5.88.15 1.735.03c1.449.02 6.287.57 8.305-.57 3.393-1.92 5.39-6.06 6.959-9.41 4.129-8.84 6.603-18.36 9.267-27.7.197-.69.394-1.37.595-2.05.34-1.15.999-3.41 1.576-4.55l.034-.06c.305-.5.811-.79 1.396-.8.062 0 .124.01.187.02m366.723-343.48s-5.664.24-8.498.3c-3.531.07-7.063.1-10.594.09 4.835 22.49 8.165 46.13 9.796 69.05l.382.12.959.89s.497 1.3.62 1.98c.045.25.093.49.143.74.265 1.27.607 2.52 1.006 3.75 1.131 3.5 7.875 15.31 12.363 7.93.508-.83.94-1.72 1.27-2.64l.089-.14c-.043-.26-.003-.52.075-.76.006-.1.008-.2.011-.3.262-15.03-1.771-30.32-3.116-45.26-1.043-11.59-1.246-24.14-4.413-35.41l-.033-.12-.035-.11-.025-.11m-638.852 0c-.034.15-.085.31-.128.46-.049.18-.096.36-.141.54-3.389 14.13-3.804 29.42-5.024 43.81-1.01 11.9-2.941 24.49-2.32 36.48.41.5.52.9.73 1.44.063.16.128.31.195.47 3.179 7.19 9.523 2.32 11.804-2.81 1.21-2.72 2.191-5.59 2.691-8.53l.032-.19.49-1.22.958-.89c.857-12.56 2.994-25.25 4.793-37.66.874-6.02 1.786-12.05 2.724-18.06.556-3.57 1.154-7.13 1.758-10.69.158-.92.529-2.76.529-2.76-3.784.01-7.57-.03-11.354-.11-2.58-.06-7.737-.28-7.737-.28m659.596-2.86c-5.819 1.34-11.726 2.28-17.681 2.68 3.322 12.5 3.694 26.49 4.753 39.29 1.107 13.36 2.709 27.54 2.809 41.14 1.412.17 1.602.7 2.317 1.62.052.1.105.2.162.29.575.99 1.616 2.13 2.499 2.81 9.854 7.49 11.357-10.76 11.614-16.19-.029-.12-.029-.18-.043-.33-.017-.61-.036-1.22-.055-1.83-.789-23.19-2.352-46.6-6.375-69.48m-680.341 0-.159.9c-3.92 22.86-5.5 46.21-6.24 69.37l-.004.12c.32.65.312 1.48.352 2.2.019.33.04.66.063.99.419 5.79 2.442 21.4 11.702 14.08.861-.68 1.912-1.89 2.431-2.88l.03-.05c.589-.75.954-1.3 1.943-1.55.072-13.65 1.634-27.69 2.81-41.21 1.092-12.56 1.452-26.87 4.754-39.29-5.953-.4-11.871-1.34-17.682-2.68m12.599 83.46.051.05-.055-.06c-.031-.02-.12-.09-.103-.05.017.04.071.04.107.06m655.165-.01-.022.01.106-.06a.372.372 0 0 0-.084.05m.491-.22c-.153.04-.157.03-.295.11l.156-.07c.046-.01.187-.04.139-.04m-656.036.04.159.07-.116-.07-.192-.04h-.007c.052.01.104.02.156.04m30.076-79.31-.185.08.165-.06.187-.13c-.055.04-.111.07-.167.11m595.772.02.164.06-.185-.08c-.053-.04-.211-.16-.167-.11.051.06.125.09.188.13m-.266-.19.072.05a.885.885 0 0 0-.136-.11c-.025-.02.042.04.064.06m-595.332.05c.073-.05.073-.05.135-.11-.045.04-.09.08-.135.11m595.169-.22.042.05c-.032-.04-.071-.09-.042-.05m-594.977.05c.025-.03.026-.03.048-.06l-.048.06m290.094-183.812h-4.599c-1.976-.08-1.849-2.926 0-3h2.794a24.563 24.563 0 0 1 .554-.92c1.929-3.046 4.889-6.669 8.824-6.79l.236-.001c4.368.099 7.542 4.103 9.27 7.727l.022.048 3.337.223s1.548.769 1.398 1.415c-.224.968-.591 1.604-1.597 1.578l-5.201-.347c-.134-.344-.265-.689-.404-1.032a16.805 16.805 0 0 0-.181-.415c-.527-1.147-1.206-2.229-1.961-3.241-.505-.675-1.132-1.259-1.791-1.784-4.28-3.408-8.308 2.061-10.184 5.537l-.054.1-.463.902m102.952-237.19c1.305.092 1.936 1.727.95 2.614-.729.656-3.38 1.132-3.756 1.207-5.472 1.09-10.825 2.032-16.418 1.286l-.103-.017c-1.742-.422-1.375-3.016.396-2.967.301.03.601.074.903.107 5.81.593 11.972-.362 17.512-2.158l.101-.029c.102-.022.102-.022.206-.036.104-.007.104-.007.209-.007m-190.863.007c.104.014.103.014.206.036.254.073.505.157.758.233 5.635 1.653 11.788 2.64 17.654 1.857l.104-.01c1.809-.05 2.152 2.67.292 2.984-.219.029-.438.057-.658.083-6.277.688-12.859-.333-18.854-2.225l-.121-.039c-1.567-.57-1.197-2.813.409-2.926.105 0 .105 0 .21.007M640.55 402.719c-24.291 19.174-56.085 20.623-80.794 1.367 1.529 11.944 3.24 25.178 8.864 36.033.304.581.611 1.161.918 1.74 4.269 7.981 8.973 15.662 13.679 23.38.382.63.763 1.261 1.142 1.893.729 1.223.661 1.133 1.349 2.308.172.291.345.582.52.871.793 1.305 1.623 2.586 2.438 3.878.169.269.336.539.501.81 1.225 2.03 1.819 3.48 2.31 5.6.034.146.071.292.109.438 2.245 8.341 15.668 7.059 17.241-.859.035-.169.035-.168.072-.337.699-2.998 2.597-5.566 4.213-8.124.249-.398.496-.797.742-1.197.774-1.277.688-1.164 1.495-2.543l.5-.845.741-1.232c1.405-2.314 2.825-4.618 4.233-6.93 3.803-6.267 9.487-14.425 12.175-21.918 3.98-11.099 6.135-22.648 7.552-34.333m4.727-8.025.862-1.091c.443-.563.884-1.127 1.325-1.691 10.049-12.927 17.124-24.949 24.268-39.725 3.481-7.2 7.22-15.193 8.35-23.204l.419-1.16.85-.892 1.137-.476s1.053-.007 1.567.093c5.633 1.008 9.881-4.316 10.783-9.171.167-.935.332-1.87.495-2.805.371-2.147.723-4.296 1.039-6.451 1.296-8.822 6.158-31.281-9.824-25.346-.126.046-.125.046-.252.089-.605.193-1.045.219-1.651.164l-.012-.002-1.101-.415-.858-.807-.481-1.074-.03-1.177a265.72 265.72 0 0 0 .595-3.615c4.159-26.465 6.38-52.516-10.276-75.326-4.123-5.646-8.206-9.619-13.664-14.206-27.675-23.26-67.171-22.33-98.797-9.35-11.004 4.516-23.781 10.136-31.332 19.838-8.804 11.313-12.666 22.286-14.409 36.457-.266 2.2-.544 4.399-.793 6.6-1.406 13.041 1.246 26.891 4.102 39.543l.066.288.017 1.274-.514 1.166c-1.643 2.257-4.685 1.932-7.208 1.87a48.755 48.755 0 0 0-.661-.008c-12.803.086-4.936 20.639-3.12 26.657.706 2.324 1.427 4.643 2.135 6.967.45 1.483.867 2.99 1.331 4.472.038.117.078.234.119.35 1.61 4.399 6.625 3.615 9.982 1.928l.021-.01 1.265-.33 1.285.239 1.062.763s1.192 3.009 1.658 4.556c.321 1.059.643 2.118.966 3.176 6.893 22.471 14.322 41.873 27.485 61.359.278.164.47.429.68.668l.292.325c24.464 26.595 65.55 25.577 90.109-.048l.053-.057c.229-.205.381-.322.665-.405M600.3 365.762c.027-.001.054 0 .08-.007a.282.282 0 0 0 .051-.019c.182-.102.322-.275.453-.433.208-.254.401-.519.606-.775.61-.746 1.391-1.342 2.389-1.398a5.71 5.71 0 0 1 .262-.002c2.471.047 5.195.892 7.519 1.426.424.095.849.19 1.274.281 1.986.418 7.218 1.798 8.918-.289l.007-.01.039-.107c.529-1.197 2.256-1.173 2.782-.014.649 1.429-1.272 3.059-2.489 3.407-4.844 1.385-9.43.055-14.202-1.04-.378-.085-.756-.17-1.135-.25-.784-.163-1.913-.388-2.752-.404l-.015-.001c-.085.072-.157.159-.228.243-.205.251-.397.513-.599.767-.726.89-1.76 1.665-2.974 1.626-1.247.013-2.198-.715-2.941-1.626-.201-.254-.393-.516-.599-.767a2.144 2.144 0 0 0-.221-.236l-.007-.007c-2.218.016-4.893.889-6.907 1.352-.439.099-.877.196-1.316.29-3.232.681-10.675 2.144-12.373-2.21-.819-2.098 1.784-2.437 2.824-1.022a.82.82 0 0 0 .068.076c2.864 2.752 10.157-.072 13.138-.757.317-.071.634-.142.951-.211 1.073-.228 2.278-.466 3.374-.512.126-.004.252-.006.379-.005 1.025.028 1.831.635 2.458 1.398.205.257.399.523.607.777.117.141.351.457.579.459m21.547-1.178c-.01.032-.01.031-.018.064.006-.021.025-.085.018-.064m-43.071.064c-.007-.033-.008-.032-.017-.064v-.001l.017.065m36.727-34.342c1.979.216 1.474 2.749.611 3.856-1.219 1.564-3.654 1.729-5.472 2.044-.164.029-.327.06-.491.092-1.945.396-2.855 1.137-3.983 2.748-.067.095-.136.188-.205.28-3.074 3.905-9.837 2.164-12.539-1.032-.064-.074-.128-.148-.194-.22-.472-.493-.808-.654-1.586-.685-.516-.012-1.033-.014-1.549-.023-3.2-.076-6.129-.677-6.892-4.163-.159-.728-.224-1.605.173-2.277.753-1.271 2.543-.465 2.711.737.008.175.008.35.017.525.176 2.728 3.711 2.158 5.633 2.203.117.004.117.004.233.011 1.518.11 2.746.798 3.735 1.942.209.248.412.502.624.748 1.955 2.23 6.214 1.907 7.835-.43.072-.101.145-.202.219-.302 1.826-2.383 4.457-2.876 7.289-3.368.153-.027.306-.056.458-.086.695-.143 1.761-.245 1.777-1.131l.009-.135a1.59 1.59 0 0 1 1.452-1.336l.135.002m-60.87-42.224c-3.893 1.399-7.629 4.216-10.156 7.498l-.089.106c-.938.922-2.54.267-2.6-1.02v-4.241c.091-1.95 2.914-1.864 3 0v.427c.166-.154.332-.307.499-.459.182-.162.182-.162.365-.322 3.929-3.392 8.786-5.863 14.069-5.93l.375.002c5.593.111 10.567 2.956 14.553 6.759v-.477c.086-1.844 2.909-1.985 3 0v4.241c-.06 1.3-1.684 1.975-2.631.984l-.4-.457c-2.418-2.702-5.21-5.168-8.551-6.669.461.905.673 1.947.709 2.961.3 8.496-13.722 8.371-13.1 0 .088-1.175.342-2.398.957-3.403m78.893.632c-3.345 1.602-6.133 4.16-8.542 6.935l-.097.101c-.937.815-2.476.208-2.536-1.084v-4.241c.093-2.003 2.915-1.836 3 0v.477c.109-.105.219-.208.33-.312.21-.194.21-.193.422-.386 3.842-3.428 8.558-5.957 13.801-6.061.188-.002.187-.002.375-.002 5.599.071 10.731 2.853 14.78 6.568l.153.143v-.427l.006-.138c.247-1.767 2.908-1.719 2.994.138v4.241c-.062 1.345-1.679 1.917-2.595 1.025-.152-.178-.295-.363-.445-.543-2.634-3.09-6.062-5.752-9.918-7.107.55.969.787 2.12.852 3.232.491 8.397-13.107 8.487-13.1 0a6.613 6.613 0 0 1 .52-2.559m-75.373-23.71c6.352.09 12.135 2.689 17.433 5.913.21.128 3.646 2.301 4.572 3.378 1.529 1.78-.659 4.492-2.678 2.967-.176-.146-.352-.29-.53-.433-11.093-8.872-23.007-9.585-35.531-3.244l-.159.072c-2.15.755-3.758-2.079-1.944-3.457 1.195-.907 4.054-1.922 5.068-2.251 4.336-1.408 8.589-2.827 13.154-2.942.205-.004.41-.005.615-.003m83.272-.001c4.765.044 9.246 1.577 13.744 3.054.591.194 3.943 1.299 4.92 2.254 1.613 1.577-.133 4.227-2.238 3.274-.176-.089-.354-.175-.531-.261-9.226-4.369-18.613-6-27.951-1.062-3.03 1.602-5.145 2.987-7.58 5l-.139.105c-2.138 1.34-4.235-1.54-2.409-3.189.189-.156.38-.312.571-.466 5.967-4.772 13.506-8.597 21.304-8.708l.309-.001"/>
    
</svg>
