<?xml version="1.0" encoding="UTF-8"?>
<svg width="100px" height="100px" viewBox="0 0 100 100" version="1.1" xmlns="http://www.w3.org/2000/svg" xmlns:xlink="http://www.w3.org/1999/xlink">
    <title>fa_distribution_single@1.0x</title>
    <defs>
        <polygon id="path-1" points="0 0 100 0 100 100 0 100"></polygon>
    </defs>
    <g id="V3---Homepage-+-DE-workflow" stroke="none" stroke-width="1" fill="none" fill-rule="evenodd">
        <g id="DE-Coverage" transform="translate(-526, -406)">
            <g id="Group-8" transform="translate(505, 329)">
                <g id="fa_distribution_single" transform="translate(21, 77)">
                    <polygon id="FA-distribution-single" points="0 0 100 0 100 100 0 100"></polygon>
                    <g id="Clipped">
                        <mask id="mask-2" fill="white">
                            <use xlink:href="#path-1"></use>
                        </mask>
                        <g id="Path"></g>
                        <g id="Group" mask="url(#mask-2)">
                            <g transform="translate(-0.0005, 0)">
                                <path d="M37.9332542,96.7284946 C37.929222,94.0833333 38.0905123,91.4260753 38.1348671,88.8037634 C38.2706198,82.0887097 39.1066413,75.4596774 40.0878241,68.8884409 C40.1214263,68.6612903 40.1563725,68.4341398 40.1926628,68.2083333 C37.8808349,69.3413978 32.4198134,70.3951613 29.8378241,69.9086022 C29.8378241,69.9086022 29.273308,69.6008065 29.6429317,69.3239247 C29.757179,69.2392473 29.9251897,69.2715054 30.0569102,69.2930108 C33.8069102,69.8978495 37.8727704,68.3655914 40.6079854,66.594086 C41.0112112,66.2244624 41.5569102,65.8037634 41.976265,65.3844086 C43.0878241,64.266129 44.5878241,61.3817204 45.0354048,60.1505376 C45.773308,56.7526882 44.3095983,52.8924731 43.3620177,49.3198925 C42.8727704,47.4637097 42.2907811,45.5268817 42.7289532,43.7083333 C42.9910499,42.6196237 43.4816413,41.5846774 44.1388994,40.6827957 C44.1388994,40.6827957 44.2746521,40.5080645 44.476265,40.5282258 C44.9843295,40.6626344 44.3499209,41.4637097 44.0018026,42.1465054 C43.3579854,43.405914 43.0649747,44.7930108 43.3190069,46.2594086 C44.0354048,50.3965054 45.8942757,54.3333333 45.8270714,58.5994624 C45.8243833,58.8333333 45.8136306,59.0672043 45.7934693,59.2997312 L45.7934693,60.9274194 C45.7934693,60.9274194 45.8311037,61.233871 45.8324478,61.1693548 C45.8458886,62.1370968 46.0972327,63.1438172 46.2786843,64.1491935 C46.8001897,67.0577957 47.4265338,69.9422043 47.8378241,72.8615591 C48.8781467,80.2903226 49.3257274,87.7284946 50.4023403,95.3037634 C50.5470121,96.2951878 50.7539627,97.2765198 51.0219639,98.2419355 C50.5865417,98.2509119 50.1510187,98.2540484 49.7155123,98.2513441 C48.9319102,95.2930108 48.7182005,92.1895161 48.3929317,89.1155914 C47.7907811,83.3965054 47.257179,77.6599462 46.4050284,71.9516129 C45.9789532,69.1021505 45.3297596,66.2715054 44.8445446,63.4166667 L44.83648,63.3709677 C44.7880929,63.4596774 44.7397059,63.5497312 44.6886306,63.6397849 C43.8794908,65.0887097 42.9251897,66.5094086 41.6254585,67.5336022 C41.6254585,67.5336022 41.5259962,68.0268817 41.4722327,68.3615591 C40.5112112,74.3266129 39.8915876,80.3857527 39.523308,86.4959677 C39.3095983,90.0040323 39.2007274,93.5336022 39.2504585,97.0483871 C38.8098954,96.9480091 38.3707829,96.8413675 37.9332542,96.7284946 L37.9332542,96.7284946 Z M39.2437381,2.95295699 C38.3179031,5.05733256 37.2374371,7.09022595 36.0112112,9.03494624 C34.4238456,11.5712366 32.1872865,13.6814516 29.6402435,15.2217742 C29.1287349,15.5369852 28.5935243,15.8120052 28.039437,16.0443548 C31.8929317,18.8803763 36.1066413,21.1357527 41.0945446,22.1236559 C41.0945446,22.1236559 41.9117489,22.1774194 42.5757274,22.1895161 C45.8082542,22.2594086 49.0649747,22.5887097 52.039437,23.8225806 C54.2302973,24.7311828 56.1751897,26.2405914 57.2706198,28.4153226 C59.9386306,33.719086 60.7827166,39.8602151 61.1079854,45.7620968 C61.3606736,50.6545699 60.9466951,55.4932796 61.1133618,60.4623656 C61.3526091,67.5645161 61.4009962,74.6693548 61.8768026,81.8736559 L61.8768026,81.8870968 C63.5609424,85.7446237 66.2128241,89.1760753 67.7464263,93.2419355 C67.9265338,93.7163978 68.0797596,94.2002688 68.2141682,94.6908602 C67.8136306,94.8548387 67.4104048,95.0134409 67.0044908,95.1666667 C66.5972327,93.5766129 65.8915876,92.0752688 65.1348671,90.6048387 C63.8311037,88.0712366 62.2544908,85.6854839 61.0300284,83.1223118 L60.8243833,86.1169355 C60.7518026,86.7580645 60.1725016,86.4287634 60.1819102,86.0725806 L60.5125553,81.2795699 C60.4856736,80.7849462 60.5058349,80.2715054 60.4856736,79.7634409 C60.2061037,73.1424731 60.0125553,66.4784946 59.8069102,59.9099462 C59.570351,51.6572581 60.5380929,43.2688172 58.4104048,35.1330645 C57.7921252,32.7674731 57.0380929,30.4018817 55.7518026,28.3185484 C53.9493833,25.3978495 50.1335231,24.2311828 46.5743833,23.7594086 C45.5797596,23.6276882 44.5770714,23.5887097 43.5743833,23.5564516 C43.5004585,23.577957 43.4117489,23.594086 43.3055661,23.6034946 C39.3001897,23.9596774 35.429222,25.3817204 31.4682005,25.547043 C28.0757274,25.686828 24.6725016,25.6814516 21.3405123,26.5725806 C21.3405123,26.5725806 21.0313725,26.5860215 20.9547596,26.3709677 C20.8391682,26.0510753 21.3647059,25.8938172 21.8458886,25.7849462 C25.2020714,25.0282258 28.6388994,25.0604839 32.1765338,24.8682796 L32.2854048,24.8615591 C35.0757274,24.6532258 37.789437,23.8534946 40.5999209,23.3360215 C40.582034,23.3318387 40.5641122,23.3278063 40.5461575,23.3239247 C36.6079854,22.4825269 32.8727704,20.9583333 29.5018026,18.6599462 C28.3513378,17.8747892 27.22234,17.05863 26.1160499,16.2123656 L26.0125553,16.0981183 C25.742394,15.9099462 25.5179317,15.2244624 25.2652435,14.3561828 C24.7759962,12.6693548 24.4829854,10.9247312 24.3069102,9.15860215 C24.7302973,8.89247312 25.1577166,8.63172043 25.5891682,8.37768817 C25.726265,9.82930108 25.9251897,11.2728495 26.1993833,12.7002688 C26.33648,13.4126344 26.570351,14.3978495 26.9870177,15.0026882 C27.3206347,14.9239251 27.6460196,14.8136632 27.9587919,14.6733871 C31.4413188,13.0134409 34.1617489,9.875 35.9789532,6.52688172 C36.5467128,5.48694276 37.0845678,4.43095417 37.5918564,3.36021505 C38.1388994,3.21505376 38.6899747,3.07930108 39.2437381,2.95295699 L39.2437381,2.95295699 Z M23.6066413,9.60887097 C23.1496521,11.8830645 22.6294908,14.1357527 21.9104048,16.3333333 C21.1214263,18.7446237 19.789437,20.9583333 18.8647059,23.3225806 C18.4789532,24.3064516 18.6577166,25.4543011 17.8808349,26.3884409 C17.4050284,26.9610215 16.6241145,27.186828 15.9077166,27.2284946 C15.1550284,27.2715054 13.7168564,26.7284946 13.4668564,25.4260753 C13.2612112,24.358871 12.4991145,22.5013441 11.6899747,20.6733871 C11.8633618,20.4489247 12.0380929,20.2244624 12.2141682,20.0013441 C13.007179,21.5739247 13.7746521,23.1451613 14.0354048,24.8427419 C14.0972327,25.2459677 14.1456198,25.6586022 14.4117489,25.9771505 C14.7612112,26.4005376 15.1147059,26.5685484 15.8687381,26.5846774 C16.8243833,26.6075269 17.6335231,25.8696237 17.7356736,25.030914 C17.7854048,24.641129 17.8109424,24.5403226 17.8687381,24.3037634 C18.3754585,22.2244624 19.5367489,20.3467742 20.460136,18.327957 C21.632179,15.7473118 22.2437381,12.938172 22.8257274,10.1303763 C23.085136,9.95564516 23.3445446,9.78091398 23.6052973,9.60887097 L23.6066413,9.60887097 Z M8.4372865,25.4879032 C9.11739402,25.5994624 9.79346929,25.7352151 10.4587919,25.9086022 C11.2719639,26.1182796 10.8485768,26.6747312 10.2975016,26.530914 C9.56915931,26.3467202 8.8321465,26.1986896 8.08916822,26.0873656 C8.20341553,25.8857527 8.31900693,25.686828 8.4372865,25.4879032 L8.4372865,25.4879032 Z M41.5058349,22.3521505 C41.5622865,22.4274194 41.6039532,22.5134409 41.6308349,22.5766129 L41.6630929,22.6586022 C41.6630929,22.6586022 41.6523403,22.625 41.6308349,22.577957 L41.5690069,22.4166667 L41.5058349,22.3521505 C41.4764277,22.3116851 41.4410838,22.275888 41.4009962,22.2459677 L41.5058349,22.3521505 L41.5058349,22.3521505 Z M34.648308,4.24462366 C34.343564,4.55710975 34.0204066,4.85109321 33.6805661,5.125 C32.0367489,6.44892473 30.0206198,7.28494624 27.9493833,7.67069892 C27.7276091,7.71102151 27.5918564,7.54435484 27.5770714,7.38844086 C27.5730392,7.34139785 27.5918564,7.29166667 27.6268026,7.24462366 L28.1509962,6.97311828 C29.8714263,6.60349462 31.5044908,5.89784946 32.9090607,4.8655914 C33.4843295,4.64784946 34.0636306,4.44086022 34.648308,4.24462366 L34.648308,4.24462366 Z" id="body-outline" fill="#BBC2CE"></path>
                                <g id="lesion" stroke-width="1" fill="none" transform="translate(51.8136, 50.2823)">
                                    <circle id="Oval" fill="#FF69B4" cx="3.26747312" cy="3.26747312" r="3.26747312"></circle>
                                </g>
                            </g>
                        </g>
                    </g>
                </g>
            </g>
        </g>
    </g>
</svg>