<svg xmlns="http://www.w3.org/2000/svg" fill-rule="evenodd" stroke-linejoin="round" stroke-miterlimit="1.414" clip-rule="evenodd" viewBox="0 120 1200 1900" xmlns:xlink="http://www.w3.org/1999/xlink">
    <defs>
        <pattern id="waves" width="250" height="30" patternUnits="userSpaceOnUse" patternTransform="rotate(143) ">
            <path id="a" data-color="outline"  d="M-62.5-15C-31.3-15 0-7.5 0-7.5S31.3 0 62.5 0 125-7.5 125-7.5s31.3-7.5 62.5-7.5S250-7.5 250-7.5 281.3 0 312.5 0"></path><use xlink:href="#a" y="15"></use><use xlink:href="#a" y="30"></use><use xlink:href="#a" y="45"></use>
        </pattern>
        <pattern id="diagonalHatch" width="20" height="20" patternTransform="rotate(45 0 0)" patternUnits="userSpaceOnUse">
                <line x1="0" y1="0" x2="0" y2="20" style="stroke-width:10" />
        </pattern>
    </defs>
    <g class="bl-map-locations">
        <path id="UA-FaceDetail-scalp" d="M92.348 722.4c-8.941-45.617-15.989-91.693-10.598-137.82 1.585-13.127 3.139-26.257 4.754-39.38 11.212-89.859 39.577-170.733 104.725-236.368 45.964-46.306 109.563-76.399 169.002-100.914 186.854-77.064 421.531-83.944 586.003 52.666 35.295 29.315 60.686 53.293 86.966 89.29 91.61 125.51 89.45 265.738 69.23 411.177-9.65-50.753-42-177.697-136.295-279.085-79.97-85.98-240.081-151.148-361.319-150.343-144.313.959-308.809 87.618-401.097 190.235-63.167 70.235-95.395 147.57-111.371 200.542z"/>
        <path id="UA-FaceDetail-forehead" data-location-label="Forehead" d="M106.467 789.479c-1.239-4.24-2.203-7.632-2.401-8.652-3.699-19.37-7.883-38.856-11.718-58.427 15.976-52.972 48.204-130.307 111.371-200.542 92.288-102.617 256.784-189.276 401.097-190.235 121.238-.805 281.349 64.363 361.319 150.343 94.295 101.388 126.645 228.332 136.295 279.085a2232.55 2232.55 0 0 1-3 20.81c-36.58-22.061-191.161-102.31-501.773-100.564-293.044 1.647-444.849 79.333-491.19 108.182z"/>
        <path id="UA-FaceDetail-nose" data-location-label="Nose" d="M517.581 683.738c25.426-1.434 52.108-2.284 80.076-2.441 30.572-.172 59.632.451 87.218 1.734.992 7.897.019 16.637-3.572 26.252-23.354 62.532-15.316 149.569 1.938 227.691 12.011 54.384 46.234 94.786 46.234 138.026 0 166.38-68.522 140.91-131.934 140.91-63.412 0-127.324 18.49-124.129-147.86.852-44.34 34.019-78.549 46.318-125.762 19.708-75.651 28.852-170.051 2.551-233.049-3.893-9.326-5.261-17.814-4.7-25.501z"/>
        <path id="UA-FaceDetail-eye-left" d="M682.961 935.704c-17.06-77.795-24.886-164.228-1.658-226.421 3.591-9.615 4.564-18.355 3.572-26.252C873.4 691.8 993.017 731.428 1055.3 759.246a147.616 147.616 0 0 1 5.43 39.702c0 100.535-101.951 182.156-227.529 182.156-57.557 0-110.15-17.146-150.24-45.4z"/>
        <path id="UA-FaceDetail-eye-right" d="M135.733 773.018c59.88-30.723 182.139-78.018 381.848-89.28-.561 7.687.807 16.175 4.7 25.501 24.469 58.61 18.259 144.4 1.405 216.985-41.324 33.854-98.976 54.88-162.713 54.88-125.579 0-227.532-81.621-227.532-182.156 0-8.802.781-17.46 2.292-25.93z"/>
        <path id="UA-FaceDetail-mouth" d="M475.079 1120.66c10.592 109.54 66.72 95.25 122.462 95.25 56.62 0 117.313 20.31 129.666-93.78 44.758 29.22 73.324 73.54 73.324 123.11 0 87.92-89.855 159.3-200.531 159.3s-200.531-71.38-200.531-159.3c0-50.41 29.541-95.38 75.61-124.58z"/>
        <path id="UA-FaceDetail-chin" d="M428.112 1327.28c35.102 46.28 98.977 77.26 171.888 77.26 69.172 0 130.211-27.89 166.263-70.26 24.332 72.42 90.08 110.53 108.856 120.15a4203.379 4203.379 0 0 1-15.319 19.55l-1.172 1.48-.001.15c-27.928 23.77-76.679 63.66-107.535 79.82-46.74 24.48-100.16 37.61-156.787 37.47-45.399-.1-87.916.05-192.052-63.29-27.258-16.57-41.072-27.12-54.913-41.47l.002-.11-1.419-8.37a1860.73 1860.73 0 0 1-15.348-23.54c44.671-40.1 79.299-95.86 97.537-128.84z"/>
        <path id="UA-FaceDetail-ear-left" d="M1043.27 869.002c11.25-21.57 17.46-45.236 17.46-70.054 0-13.634-1.87-26.92-5.43-39.702 21.2 9.466 35.75 17.565 44.13 22.615l-.99 6.547-.44 2.907c.79-.16 1.59-.312 2.39-.459.83-.146 1.67-.284 2.5-.415 4.52-.67 8.06-.967 12.55-1.019.95.001.95.001 1.9.013 57.6 1.459 66.81 61.395 64.01 107.555-4.01 66.15-5.8 202.8-104.64 205.03h-.05c-.36 1.61-.36 1.61-.74 3.23-.41 1.69-6.78 7.05-9.06 9.9-9.56-5.78-16.63-14.84-18.86-28.51-8.95-54.86-7.85-143.795-4.73-217.638z"/>
        <path id="UA-FaceDetail-ear-right" d="M160.968 1108.1a980.956 980.956 0 0 1-3.744-12.08l-.541-1.8c-.979.29-1.962.57-2.947.84-.87.24-1.74.46-2.614.68-36.155 8.7-71.688-.18-82.713-36.64-.819-2.81-15.241-71.781-16.414-75.698-15.061-50.704-60.718-145.991 17.03-167.133 11.733-3.191 45.04.592 44.333-2.925-.428-2.154-4.274-14.904-6.891-23.865 7.179-4.47 16.891-10.112 29.266-16.461a147.492 147.492 0 0 0-2.292 25.93c0 33.389 11.245 64.691 30.866 91.61 9.44 66.181 15.912 139.622 8.026 187.922-2.001 12.26-6.017 21.94-11.365 29.62z"/>
        <path id="UA-FaceDetail-cheek-left" d="M770.358 974.055c19.962 4.59 41.047 7.049 62.843 7.049 94.577 0 175.759-46.297 210.069-112.102-.09 2.026-.17 4.063-.25 6.111-1.75 43.317-2.74 91.263-1.4 134.227.17 5.44.38 10.79.62 16.05.15 3.05.3 6.06.47 9.04.58 9.95 1.31 19.49 2.22 28.47.86 8.45 1.87 16.4 3.07 23.74.04.25.09.49.13.74.03.18.06.35.1.53l.06.31c2.36 12.1 8.66 20.44 17.11 26.01.17.11.35.22.52.34.14.08.28.17.43.26.17.11.34.21.51.32-.43.53-.71.97-.79 1.28-20.86 80.76-73.872 173.43-116.366 238.06-14.755 22.44-50.378 68.89-74.585 99.94-18.777-9.62-84.525-47.73-108.856-120.15 21.632-25.43 34.268-56.07 34.268-89.04 0-49.57-28.566-93.89-73.324-123.11 1.482-13.69 2.268-29.31 2.268-47.13 0-43.24-34.223-83.642-46.234-138.026l-.28-1.27c21.048 14.834 45.543 26.606 72.392 34.442a268.788 268.788 0 0 0 7.945 2.186c1.785.461 3.579.905 5.383 1.332l1.025.241.652.15z"/>
        <path id="UA-FaceDetail-cheek-right" d="M165.225 897.088c-.303-2.184-.609-4.361-.918-6.53 28.152 38.623 73.546 68.224 127.708 82.016l.319.082.664.167a270.527 270.527 0 0 0 5.13 1.232l.374.086c19.852 4.535 40.81 6.963 62.471 6.963 63.737 0 121.388-21.026 162.713-54.88a618.65 618.65 0 0 1-3.956 16.064c-12.299 47.213-45.466 81.422-46.318 125.762-.386 20.12.209 37.54 1.667 52.61-46.069 29.2-75.61 74.17-75.61 124.58 0 30 10.462 58.07 28.643 82.04-18.238 32.98-52.865 88.74-97.537 128.84-68.306-106.44-131.874-228.95-169.607-348.02 5.348-7.68 9.364-17.36 11.365-29.62 5.839-35.76 3.806-85.306-1.474-135.482a1227.23 1227.23 0 0 0-1.026-9.4 1454.095 1454.095 0 0 0-4.249-33.901l-.185-1.352-.174-1.257z"/>
        <path id="UA-FaceDetail-neck" d="M858.627 1475.61c-.618 65.93 10.357 144.73 27.181 206.93 3.636 13.45 7.291 27.95 16.523 38.38 39.816 44.98 67.67 29.58 111.309 58.16 19.95 13.06 71.21 31.69 53.42 47.56-39.03 34.83-220.259 50.04-239.486 51.03-241.986 12.44-610.519-.84-701.437-63.12-10.1-6.92 17.259-27.84 21.574-29.72 53.193-23.2 118.414-46.49 172.06-83.82 19.902-86.71 25.814-122.28 27.569-212.87 13.841 14.35 27.655 24.9 54.913 41.47 104.136 63.34 146.653 63.19 192.052 63.29 56.627.14 110.047-12.99 156.787-37.47 30.856-16.16 79.607-56.05 107.535-79.82z"/>
    </g>

    <path id="UA-FaceDetail-outline" fill-rule="nonzero" d="M320.521 1462.85c-15.546-15.47-30.5-34.14-47.084-67.05-38.743-76.87-86.152-160.94-126.011-292.64l-.541-1.79c-.979.29-1.962.57-2.948.84-.869.23-1.74.46-2.613.68-36.155 8.7-69.518-6.47-80.544-42.93-.819-2.81-1.634-5.61-2.456-8.42-5.01-16.9-10.27-33.72-15.416-50.58-1.189-3.915-2.37-7.83-3.544-11.748-15.061-50.704-50.257-160.969 27.491-182.111 11.733-3.191 22.579-3.056 34.403-2.66l.579.02c-.731-3.512-1.448-7.027-2.155-10.543-.631-3.174-1.253-6.35-1.867-9.527C85.494 719.874 74.046 650.497 81.75 584.58c1.585-13.127 3.139-26.257 4.754-39.38 11.212-89.859 39.577-170.733 104.725-236.368 45.964-46.306 109.563-76.399 169.002-100.914 186.854-77.064 421.531-83.944 586.003 52.666 35.295 29.315 60.686 53.293 86.966 89.29 97.34 133.363 88.81 283.342 65.24 438.534l-.44 2.907c.79-.16 1.59-.312 2.39-.459.83-.146 1.67-.284 2.5-.415 4.52-.67 8.06-.967 12.55-1.019.95.001.95.001 1.9.013 57.6 1.459 66.81 61.395 64.01 107.555-4.01 66.15-3.28 210.96-102.11 213.19h-.05c-.37 1.62-.37 1.61-.75 3.23-.49 2.01-.49 2-.99 4.01-20.86 80.76-63.99 153.56-103.79 225.92-.606 1.09-28.716 42.04-49.817 66.94-17.557 20.72-30.91 35.33-42.116 46.56 3.677 61.73 10.461 162.67 20.503 210.92 2.581 12.57 2.889 29.56 7.878 33.58 47.988 41.07 170.222 92.22 180.312 100.16 15.58 12.25 11.77 30.12-8.89 39.59-46.91 21.5-101.91 30.37-134.945 35.1-41.758 5.98-83.717 10.53-125.766 13.89-45.987 3.68-92.084 5.95-138.203 7.05-30.17.73-60.354.97-90.531.73-58.711-.47-117.415-2.85-175.947-7.5-54.107-4.3-108.068-10.55-161.668-19.13-47.142-7.54-80.14-14.41-106.61-24.74-28.343-11.06-50.097-26.64-50.643-41.11-.625-16.57 40.547-33.96 64.728-43.51 33.49-13.23 86.36-30.82 118.998-46.86 12.942-6.36 29.76-26.44 32.19-36.1 3.653-14.52 8.685-45.57 9.805-64.43 2.177-36.62 4.095-99.59-1.457-150.33l-.96-1.3zm514.323 34.08c-2.458 1.9-4.992 3.87-7.638 5.96a427.846 427.846 0 0 1-14.013 10.61c-49.964 40.89-98.243 67.1-178.794 77.16-43.175 5.39-86.967 5.15-139.953-14.06-11.271-4.08-23.563-9.74-36.035-16.37-26.619-11.25-52.493-26.01-77.172-44.39 4.702 61.29 5.354 109.44 28.945 183.26 2.051 6.42 11.251 20.4 7.503 22.54-5.3 3.04-11.896-7.86-16.657-19.5-23.609-59.22-31.79-117.68-38.058-180.65-2.286 52.11-3.705 103.59-14.131 153.94-2.388 11.64-10.486 42.55-27.14 53.76-31.622 21.28-162.1 53.76-162.592 73.92-.412 16.88 69.304 32.04 111.242 38.52 49.357 7.62 99.012 13.26 148.795 17.21 57.632 4.58 115.434 6.92 173.243 7.38 29.773.24 59.551 0 89.316-.71 40.491-.97 80.962-2.85 121.356-5.81 37.462-2.75 74.86-6.43 112.116-11.22 35.245-4.54 126.073-17.07 119.763-37.94-6.31-20.88-106.742-40.83-157.599-87.31 0 0-6.235-9.8-7.606-20.64-5.903-44.46-15.888-86.93-17.865-135.35-5.192 41.27-12.873 79.66-29.605 122.2-7.481 19.02-14.061 31.42-19.411 28.35-2.756-1.59 1.79-16.16 5.559-26.71 20.097-56.24 22.414-127.04 26.171-187.22.063-1.02.175-4.27.26-6.93zm75.429-115.54c34.56-51.02 63.046-102.43 91.727-161.76 19.52-40.36 40.48-85.17 46.81-130.08l2.35-6.5 4.77-5 6.37-2.67s5.9-.04 8.78.52c31.58 5.65 55.39-24.19 60.45-51.41.94-5.24 1.86-10.48 2.78-15.72 2.07-12.035 4.05-24.086 5.82-36.167 7.26-49.449 34.52-175.348-55.07-142.077-.7.254-.7.252-1.41.496-3.4 1.082-5.86 1.226-9.26.919l-.06-.011-6.18-2.325-4.8-4.523-2.7-6.023-.17-6.597c.4-2.309.79-4.62 1.18-6.931.73-4.444 1.45-8.889 2.16-13.337 23.31-148.353 35.76-294.388-57.61-422.251-23.115-31.65-45.998-53.924-76.594-79.638-155.14-130.385-376.544-125.173-553.828-52.414-61.685 25.316-133.309 56.823-175.639 111.21-49.355 63.414-71.002 124.929-80.775 204.368-1.49 12.331-3.049 24.655-4.445 36.997-7.879 73.101 6.984 150.739 22.996 221.668l.372 1.611.091 7.142-2.881 6.536c-9.207 12.652-26.26 10.833-40.407 10.481a228.21 228.21 0 0 0-3.701-.041c-71.771.48-27.671 115.697-17.49 149.43 3.957 13.027 7.998 26.027 11.969 39.057 2.522 8.31 4.856 16.76 7.461 25.06.213.66.436 1.32.668 1.97 9.025 24.66 37.134 20.26 55.955 10.81l.114-.06 7.092-1.85 7.207 1.34 5.951 4.28s6.681 16.86 9.297 25.54c1.797 5.93 3.603 11.87 5.414 17.8 30.168 98.36 62.17 186.22 109.875 272.02 46.019 58.68 111.531 116.56 111.531 116.56 71.973 51.55 120.26 69.67 218.166 67.41 63.95-1.47 169.417-69.13 211.927-107 29.215-26.03 60.572-62.8 73.737-78.84zm-308.696-85.66c.154-.01.302-.01.453-.05.098-.02.191-.06.282-.1 1.024-.57 1.805-1.54 2.543-2.43 1.162-1.42 2.248-2.91 3.395-4.34 3.417-4.19 7.799-7.53 13.39-7.84.49-.02.979-.02 1.469-.01 13.854.26 29.123 5 42.149 7.99 2.379.54 4.759 1.07 7.143 1.58 11.133 2.34 40.464 10.08 49.994-1.62l.026-.04.014-.02.213-.6c2.97-6.71 12.647-6.57 15.598-.08 3.636 8.01-7.129 17.15-13.953 19.1-27.154 7.77-52.861.31-79.614-5.83-2.118-.48-4.237-.95-6.362-1.4-4.392-.91-10.72-2.18-15.425-2.27h-.084c-.476.4-.881.89-1.281 1.36-1.149 1.41-2.225 2.88-3.354 4.3-4.069 4.99-9.866 9.34-16.673 9.12-6.992.07-12.32-4.01-16.486-9.12-1.128-1.42-2.201-2.89-3.355-4.3-.389-.46-.787-.92-1.24-1.32l-.04-.04c-12.436.09-27.428 4.99-38.721 7.58-2.458.55-4.915 1.1-7.378 1.63-18.116 3.81-59.836 12.01-69.359-12.39-4.59-11.76 10.003-13.67 15.833-5.73.117.15.245.29.381.42 16.056 15.43 56.937-.4 73.645-4.24 1.777-.4 3.554-.8 5.333-1.18 6.015-1.28 12.772-2.61 18.911-2.88.709-.02 1.416-.03 2.125-.02 5.747.16 10.267 3.56 13.781 7.84 1.149 1.44 2.238 2.92 3.403 4.35.654.79 1.969 2.56 3.244 2.58zm-120.655-6.25c-.042-.18-.046-.18-.097-.36-.001 0-.002-.01-.001 0l.098.36zm241.441-.36c-.052.18-.055.18-.097.36.032-.12.136-.48.097-.36zm-35.562-192.15c11.095 1.21 8.266 15.41 3.426 21.62-6.832 8.76-20.482 9.68-30.672 11.45-.92.17-1.838.34-2.754.52-10.906 2.22-16.005 6.37-22.328 15.4-.376.53-.76 1.05-1.151 1.57-17.232 21.89-55.143 12.13-70.286-5.78a40.53 40.53 0 0 0-1.092-1.23c-2.645-2.77-4.528-3.67-8.887-3.85-2.894-.06-5.791-.07-8.686-.12-17.934-.43-34.357-3.8-38.632-23.34-.893-4.08-1.259-9 .969-12.77 4.22-7.12 14.254-2.6 15.194 4.13.048.99.047 1.97.097 2.95.986 15.29 20.806 12.1 31.579 12.35.655.02.652.02 1.304.06 8.509.62 15.392 4.47 20.937 10.89 1.175 1.39 2.311 2.81 3.501 4.19 10.96 12.5 34.832 10.69 43.921-2.41.404-.57.813-1.14 1.228-1.7 10.235-13.35 24.98-16.11 40.859-18.87l2.568-.48c3.896-.81 9.867-1.38 9.962-6.35l.048-.75c.631-4.08 4.051-7.2 8.141-7.5.251.01.503.01.754.02zM345.585 860.272c-21.825 7.84-42.769 23.634-56.933 42.035l-.5.591c-5.258 5.167-14.239 1.498-14.572-5.72v-23.769c.506-10.932 16.334-10.453 16.817 0v2.389a261.65 261.65 0 0 1 2.797-2.568c1.02-.91 1.018-.908 2.047-1.81 22.024-19.013 49.248-32.862 78.863-33.237 1.052-.002 1.05-.002 2.103.008 31.351.625 59.233 16.573 81.582 37.891v-2.673c.478-10.341 16.303-11.13 16.817 0v23.769c-.34 7.291-9.444 11.075-14.752 5.519-.745-.856-1.493-1.71-2.244-2.561-13.549-15.15-29.204-28.97-47.933-37.383 2.585 5.068 3.776 10.913 3.977 16.599 1.68 47.622-76.923 46.921-73.435 0 .49-6.589 1.916-13.446 5.366-19.08zm442.248 3.542c-18.752 8.983-34.378 23.319-47.886 38.877l-.541.568c-5.252 4.567-13.878 1.162-14.217-6.081v-23.769c.52-11.23 16.342-10.294 16.818 0v2.671c.613-.585 1.23-1.166 1.848-1.746 1.18-1.088 1.178-1.086 2.367-2.165 21.539-19.217 47.977-33.392 77.364-33.978 1.053-.01 1.051-.01 2.104-.008 31.384.397 60.156 15.993 82.854 36.819l.855.798v-2.391l.035-.776c1.382-9.905 16.3-9.638 16.782.776v23.769c-.347 7.541-9.414 10.749-14.548 5.746-.851-.997-1.653-2.035-2.494-3.041-14.765-17.319-33.983-32.243-55.599-39.839 3.089 5.428 4.416 11.882 4.78 18.116 2.749 47.07-73.477 47.576-73.435 0 .005-4.879 1.003-9.856 2.913-14.346zm44.281-132.915c26.709.243 51.828 8.84 77.042 17.12 3.316 1.089 22.107 7.283 27.58 12.635 9.043 8.841-.741 23.696-12.545 18.353-.986-.499-1.98-.982-2.976-1.462-51.716-24.495-104.34-33.637-156.682-5.956-16.989 8.984-28.844 16.747-42.492 28.028l-.78.589c-11.986 7.512-23.742-8.63-13.505-17.873a400.393 400.393 0 0 1 3.199-2.615c33.451-26.752 75.71-48.192 119.425-48.815.868-.006.864-.006 1.734-.004zm-466.797.004c35.607.508 68.021 15.076 97.724 33.15 1.173.714 20.439 12.897 25.626 18.936 8.571 9.978-3.693 25.179-15.011 16.628a364.493 364.493 0 0 0-2.968-2.426c-62.189-49.735-128.972-53.732-199.182-18.184l-.891.403c-12.048 4.232-21.063-11.656-10.897-19.377 6.7-5.089 22.728-10.774 28.409-12.619 24.309-7.893 48.149-15.85 73.742-16.493 1.149-.02 2.298-.025 3.448-.018z"/>

</svg>
